SplineFontDB: 3.0
FontName: Jost-Hairline
FullName: Jost* 100 Hairline
FamilyName: Jost* Hairline
Weight: Hairline
Copyright: This typeface is licensed under the SIL open font license.
UComments: "2016-6-10: Created with FontForge (http://fontforge.org)"
Version: 003.300
ItalicAngle: 0
UnderlinePosition: -100
UnderlineWidth: 50
Ascent: 800
Descent: 200
InvalidEm: 0
LayerCount: 2
Layer: 0 0 "Back" 1
Layer: 1 0 "Fore" 0
PreferredKerning: 4
XUID: [1021 31 -699969567 16188444]
FSType: 0
OS2Version: 0
OS2_WeightWidthSlopeOnly: 0
OS2_UseTypoMetrics: 0
CreationTime: 1465610489
ModificationTime: 1536028366
PfmFamily: 33
TTFWeight: 100
TTFWidth: 5
LineGap: 100
VLineGap: 0
OS2TypoAscent: 825
OS2TypoAOffset: 0
OS2TypoDescent: -225
OS2TypoDOffset: 0
OS2TypoLinegap: 100
OS2WinAscent: 900
OS2WinAOffset: 0
OS2WinDescent: 300
OS2WinDOffset: 0
HheadAscent: 1030
HheadAOffset: 0
HheadDescent: -350
HheadDOffset: 0
OS2CapHeight: 700
OS2XHeight: 460
OS2Vendor: 'PfEd'
Lookup: 1 0 0 "'tnum' Tabular Numbers lookup 0" { "'tnum' Tabular Numbers lookup 0 subtable"  } ['tnum' ('DFLT' <'dflt' > 'grek' <'dflt' > 'latn' <'dflt' > ) ]
Lookup: 1 0 0 "'ss01' Style Set 1 in Latin lookup 1" { "'ss01' Style Set 1 in Latin lookup 1 subtable"  } ['ss01' ('DFLT' <'dflt' > 'latn' <'dflt' > ) ]
Lookup: 258 0 0 "Lets get our kern on" { "kernin like nobodys business" [150,0,4] } ['kern' ('DFLT' <'dflt' > 'latn' <'dflt' > ) ]
MarkAttachClasses: 1
DEI: 91125
KernClass2: 16 14 "kernin like nobodys business"
 15 slash seven V W
 175 quotedbl quotesingle asterisk grave dieresis ordfeminine macron degree acute ordmasculine circumflex breve dotaccent ring tilde quoteleft quoteright quotedblleft quotedblright
 17 nine question F P
 107 A L backslash Agrave Aacute Acircumflex Atilde Adieresis Aring Amacron Abreve Aogonek Lacute uni013B Lslash
 26 three eight B C germandbls
 5 K X Z
 125 at D G O Ograve Oacute Ocircumflex Otilde Odieresis Oslash Dcaron Dcroat Gcircumflex Gbreve Gdotaccent uni0122 Omacron Obreve

StartChar: H
Encoding: 72 72 0
GlifName: H_
Width: 608
VWidth: 0
Flags: HMW
LayerCount: 2
Fore
SplineSet
162 377 m 257
 165 387 l 257
 598 387 l 257
 595 377 l 257
 162 377 l 257
699 699 m 257
 710 699 l 257
 469 0 l 257
 458 0 l 257
 699 699 l 257
270 699 m 257
 281 699 l 257
 40 0 l 257
 29 0 l 257
 270 699 l 257
EndSplineSet
EndChar

StartChar: O
Encoding: 79 79 1
GlifName: O_
Width: 728
VWidth: 0
Flags: HMW
LayerCount: 2
Fore
SplineSet
123 350 m 256
 70 194 117 4 310 3 c 256
 507 2 676 174 736 350 c 256
 789 506 742 696 549 697 c 256
 352 698 183 526 123 350 c 256
112 350 m 256
 173 532 348 709 550 708 c 256
 748 707 801 512 747 350 c 256
 686 168 511 -9 309 -8 c 256
 111 -7 58 188 112 350 c 256
EndSplineSet
EndChar

StartChar: I
Encoding: 73 73 2
GlifName: I_
Width: 169
VWidth: 0
Flags: HMW
LayerCount: 2
Fore
SplineSet
266 699 m 257
 276 699 l 257
 34 0 l 257
 24 0 l 257
 266 699 l 257
EndSplineSet
EndChar

StartChar: C
Encoding: 67 67 3
GlifName: C_
Width: 644
VWidth: 0
Flags: HMW
LayerCount: 2
Fore
SplineSet
124 350 m 256
 72 197 113 8 304 5 c 256
 393 4 473 39 546 86 c 257
 540 71 l 257
 467 26 389 -8 302 -7 c 256
 104 -5 58 190 112 350 c 256
 173 532 342 706 544 708 c 256
 619 709 679 683 730 629 c 257
 725 614 l 257
 678 672 616 697 542 696 c 256
 346 694 184 525 124 350 c 256
EndSplineSet
EndChar

StartChar: E
Encoding: 69 69 4
GlifName: E_
Width: 479
VWidth: 0
Flags: HMW
LayerCount: 2
Fore
SplineSet
32 0 m 257
 35 10 l 257
 354 10 l 257
 351 0 l 257
 32 0 l 257
268 690 m 257
 271 700 l 257
 589 700 l 257
 586 690 l 257
 268 690 l 257
163 384 m 257
 167 394 l 257
 466 394 l 257
 463 384 l 257
 163 384 l 257
270 699 m 257
 281 699 l 257
 40 0 l 257
 29 0 l 257
 270 699 l 257
EndSplineSet
EndChar

StartChar: F
Encoding: 70 70 6
GlifName: F_
Width: 423
VWidth: 0
Flags: HMW
LayerCount: 2
Fore
SplineSet
268 689 m 257
 272 700 l 257
 552 700 l 257
 548 689 l 257
 268 689 l 257
160 373 m 257
 164 383 l 257
 434 383 l 257
 431 373 l 257
 160 373 l 257
270 699 m 257
 281 699 l 257
 40 0 l 257
 29 0 l 257
 270 699 l 257
EndSplineSet
EndChar

StartChar: G
Encoding: 71 71 7
GlifName: G_
Width: 719
VWidth: 0
Flags: HMW
LayerCount: 2
Fore
SplineSet
454 330 m 257
 457 340 l 257
 730 339 l 257
 660 169 511 -7 311 -7 c 256
 113 -7 58 188 112 350 c 256
 173 533 350 709 553 708 c 256
 656 708 727 649 765 556 c 257
 754 550 l 257
 723 642 650 697 552 697 c 256
 354 698 184 528 123 350 c 256
 70 194 120 4 313 4 c 256
 504 4 646 169 717 329 c 257
 454 330 l 257
EndSplineSet
EndChar

StartChar: T
Encoding: 84 84 8
GlifName: T_
Width: 405
VWidth: 0
Flags: HMW
LayerCount: 2
Fore
SplineSet
200 689 m 257
 203 700 l 257
 572 700 l 257
 568 689 l 257
 389 689 l 257
 153 0 l 257
 142 0 l 257
 378 689 l 257
 200 689 l 257
EndSplineSet
EndChar

StartChar: L
Encoding: 76 76 9
GlifName: L_
Width: 404
VWidth: 0
Flags: HMW
LayerCount: 2
Fore
SplineSet
270 699 m 257
 280 699 l 257
 43 10 l 257
 335 10 l 257
 332 0 l 257
 30 0 l 257
 270 699 l 257
EndSplineSet
EndChar

StartChar: D
Encoding: 68 68 10
GlifName: D_
Width: 597
VWidth: 0
Flags: HMW
LayerCount: 2
Fore
SplineSet
270 699 m 257
 281 699 l 257
 40 0 l 257
 29 0 l 257
 270 699 l 257
182 0 m 258
 35 0 l 257
 39 11 l 257
 184 11 l 258
 382 11 543 168 605 350 c 256
 661 513 609 689 417 689 c 258
 270 689 l 257
 274 700 l 257
 419 700 l 258
 617 700 673 518 616 350 c 256
 553 163 386 0 182 0 c 258
EndSplineSet
EndChar

StartChar: Q
Encoding: 81 81 11
GlifName: Q_
Width: 725
VWidth: 0
Flags: HMW
LayerCount: 2
Fore
SplineSet
123 350 m 256
 70 194 117 4 310 3 c 256
 507 2 676 174 736 350 c 256
 789 506 742 696 549 697 c 256
 352 698 183 526 123 350 c 256
112 350 m 256
 173 532 348 709 550 708 c 256
 748 707 801 512 747 350 c 256
 686 168 511 -9 309 -8 c 256
 111 -7 58 188 112 350 c 256
424 300 m 257
 438 300 l 257
 639 0 l 257
 624 0 l 257
 424 300 l 257
EndSplineSet
EndChar

StartChar: A
Encoding: 65 65 12
GlifName: A_
Width: 564
VWidth: 0
Flags: HMW
LayerCount: 2
Fore
SplineSet
160 272 m 257
 163 282 l 257
 486 282 l 257
 483 272 l 257
 160 272 l 257
465 688 m 257
 169 277 l 257
 167 273 l 257
 -30 0 l 257
 -42 0 l 257
 473 715 l 257
 496 0 l 257
 484 0 l 257
 478 273 l 257
 478 276 l 257
 465 688 l 257
EndSplineSet
EndChar

StartChar: R
Encoding: 82 82 13
GlifName: R_
Width: 440
VWidth: 0
Flags: HMW
LayerCount: 2
Fore
SplineSet
241 317 m 257
 252 317 l 257
 353 0 l 257
 341 0 l 257
 241 317 l 257
270 699 m 257
 281 699 l 257
 40 0 l 257
 29 0 l 257
 270 699 l 257
267 689 m 257
 271 700 l 257
 377 700 l 258
 490 700 574 626 534 507 c 256
 493 384 371 318 247 314 c 256
 139 314 l 257
 143 324 l 257
 248 324 l 256
 366 328 484 390 524 507 c 256
 563 621 483 684 375 689 c 256
 267 689 l 257
EndSplineSet
EndChar

StartChar: V
Encoding: 86 86 14
GlifName: V_
Width: 564
VWidth: 0
Flags: HMW
LayerCount: 2
Fore
SplineSet
251 15 m 257
 720 699 l 257
 733 699 l 257
 242 -15 l 257
 196 700 l 257
 208 700 l 257
 251 15 l 257
EndSplineSet
EndChar

StartChar: M
Encoding: 77 77 15
GlifName: M_
Width: 780
VWidth: 0
Flags: HMW
LayerCount: 2
Fore
SplineSet
311 674 m 257
 11 0 l 257
 1 0 l 257
 318 715 l 257
 380 132 l 257
 846 716 l 257
 669 0 l 257
 659 0 l 257
 825 672 l 257
 372 104 l 257
 311 674 l 257
EndSplineSet
EndChar

StartChar: W
Encoding: 87 87 16
GlifName: W_
Width: 893
VWidth: 0
Flags: HMW
LayerCount: 2
Fore
SplineSet
626 27 m 257
 1047 699 l 257
 1058 699 l 257
 614 -16 l 257
 622 676 l 257
 200 -16 l 257
 200 700 l 257
 211 700 l 257
 212 27 l 257
 634 716 l 257
 626 27 l 257
EndSplineSet
EndChar

StartChar: N
Encoding: 78 78 17
GlifName: N_
Width: 625
VWidth: 0
Flags: HMW
LayerCount: 2
Fore
SplineSet
735 699 m 257
 746 699 l 257
 500 -15 l 257
 236 678 l 257
 2 0 l 257
 -9 0 l 257
 237 715 l 257
 500 17 l 257
 735 699 l 257
EndSplineSet
EndChar

StartChar: a
Encoding: 97 97 18
GlifName: a
Width: 409
VWidth: 0
Flags: HMW
LayerCount: 2
Fore
SplineSet
39 135 m 256
 14 65 49 1 126 1 c 256
 223 1 294 79 336 158 c 257
 341 158 l 257
 300 74 227 -9 125 -9 c 256
 42 -9 3 60 29 136 c 256
 60 225 158 280 249 280 c 256
 295 280 331 265 364 235 c 257
 360 226 l 257
 328 256 292 270 247 270 c 256
 162 270 69 218 39 135 c 256
159 396 m 257
 155 405 l 257
 205 437 262 471 324 469 c 256
 411 466 419 389 399 320 c 258
 288 0 l 257
 278 0 l 257
 390 320 l 258
 409 384 404 456 323 459 c 256
 263 462 207 427 159 396 c 257
EndSplineSet
Substitution2: "'ss01' Style Set 1 in Latin lookup 1 subtable" a.alt
EndChar

StartChar: X
Encoding: 88 88 19
GlifName: X_
Width: 470
VWidth: 0
Flags: HMW
LayerCount: 2
Fore
SplineSet
606 698 m 257
 620 698 l 257
 322 366 l 257
 418 0 l 257
 405 0 l 257
 314 355 l 257
 -3 0 l 257
 -17 0 l 257
 311 368 l 257
 223 700 l 257
 236 700 l 257
 319 378 l 257
 606 698 l 257
EndSplineSet
EndChar

StartChar: K
Encoding: 75 75 20
GlifName: K_
Width: 427
VWidth: 0
Flags: HMW
LayerCount: 2
Fore
SplineSet
266 699 m 257
 276 699 l 257
 35 0 l 257
 24 0 l 257
 266 699 l 257
569 698 m 257
 585 698 l 257
 173 371 l 257
 357 0 l 257
 344 0 l 257
 161 373 l 257
 569 698 l 257
EndSplineSet
EndChar

StartChar: Y
Encoding: 89 89 21
GlifName: Y_
Width: 477
VWidth: 0
Flags: HMW
LayerCount: 2
Fore
SplineSet
636 698 m 257
 649 698 l 257
 276 266 l 257
 184 0 l 257
 173 0 l 257
 266 267 l 257
 199 700 l 257
 211 700 l 257
 274 282 l 257
 636 698 l 257
EndSplineSet
EndChar

StartChar: B
Encoding: 66 66 22
GlifName: B_
Width: 465
VWidth: 0
Flags: HMW
LayerCount: 2
Fore
SplineSet
169 386 m 257
 171 394 l 257
 267 394 l 256
 363 398 461 444 494 540 c 256
 527 635 459 689 370 689 c 258
 276 689 l 257
 43 11 l 257
 146 11 l 258
 265 11 375 83 413 200 c 256
 446 302 376 384 275 384 c 258
 168 384 l 257
 170 392 l 257
 285 392 l 258
 389 392 456 302 424 200 c 256
 386 77 269 0 144 0 c 258
 29 0 l 257
 270 700 l 257
 372 700 l 258
 466 700 539 640 505 539 c 256
 472 441 375 390 276 386 c 256
 169 386 l 257
EndSplineSet
EndChar

StartChar: Z
Encoding: 90 90 23
GlifName: Z_
Width: 503
VWidth: 0
Flags: HMW
LayerCount: 2
Fore
SplineSet
218 689 m 257
 222 700 l 257
 675 700 l 257
 -10 12 l 257
 430 12 l 257
 426 0 l 257
 -37 0 l 257
 649 689 l 257
 218 689 l 257
EndSplineSet
EndChar

StartChar: o
Encoding: 111 111 24
GlifName: o
Width: 523
VWidth: 0
Flags: HMW
LayerCount: 2
Fore
SplineSet
78 230 m 256
 115 354 236 470 371 469 c 256
 503 468 552 343 518 230 c 256
 481 106 360 -10 225 -9 c 256
 93 -8 44 117 78 230 c 256
88 230 m 256
 55 123 100 2 226 1 c 256
 355 0 472 112 508 230 c 256
 541 337 496 458 370 459 c 256
 241 460 124 348 88 230 c 256
EndSplineSet
EndChar

StartChar: J
Encoding: 74 74 25
GlifName: J_
Width: 185
VWidth: 0
Flags: HMW
LayerCount: 2
Fore
SplineSet
-229 -159 m 257
 -206 -186 -181 -207 -143 -208 c 256
 -52 -211 -8 -124 19 -50 c 258
 276 699 l 257
 287 699 l 257
 27 -60 l 258
 -1 -137 -50 -222 -143 -219 c 256
 -185 -218 -213 -196 -237 -165 c 257
 -229 -159 l 257
EndSplineSet
EndChar

StartChar: t
Encoding: 116 116 26
GlifName: t
Width: 178
VWidth: 0
Flags: HMW
LayerCount: 2
Fore
SplineSet
121 460 m 257
 272 460 l 257
 268 450 l 257
 117 450 l 257
 121 460 l 257
243 619 m 257
 253 619 l 257
 39 0 l 257
 29 0 l 257
 243 619 l 257
EndSplineSet
EndChar

StartChar: d
Encoding: 100 100 27
GlifName: d
Width: 509
VWidth: 0
Flags: HMW
LayerCount: 2
Fore
SplineSet
637 779 m 257
 647 779 l 257
 378 0 l 257
 369 0 l 257
 637 779 l 257
66 230 m 256
 105 346 215 472 348 469 c 256
 474 466 485 324 454 230 c 256
 417 120 313 -8 186 -9 c 256
 53 -10 32 128 66 230 c 256
76 230 m 256
 43 133 62 -1 190 1 c 256
 310 3 413 125 449 230 c 256
 479 318 467 455 349 459 c 256
 222 464 114 341 76 230 c 256
EndSplineSet
EndChar

StartChar: l
Encoding: 108 108 28
GlifName: l
Width: 169
VWidth: 0
Flags: HMW
LayerCount: 2
Fore
SplineSet
293 779 m 257
 303 779 l 257
 34 0 l 257
 24 0 l 257
 293 779 l 257
EndSplineSet
EndChar

StartChar: i
Encoding: 105 105 29
GlifName: i
Width: 178
VWidth: 0
Flags: HMW
LayerCount: 2
Fore
SplineSet
263 695 m 256
 263 701 267 705 273 705 c 256
 279 705 283 701 283 695 c 256
 283 689 279 685 273 685 c 256
 267 685 263 689 263 695 c 256
189 459 m 257
 199 459 l 257
 39 0 l 257
 29 0 l 257
 189 459 l 257
EndSplineSet
EndChar

StartChar: r
Encoding: 114 114 30
GlifName: r
Width: 272
VWidth: 0
Flags: HMW
LayerCount: 2
Fore
SplineSet
194 459 m 257
 34 0 l 257
 24 0 l 257
 184 459 l 257
 194 459 l 257
351 440 m 257
 336 449 322 458 304 459 c 256
 213 464 159 349 129 281 c 257
 124 281 l 257
 155 354 208 476 305 469 c 256
 325 468 341 457 358 447 c 257
 351 440 l 257
EndSplineSet
EndChar

StartChar: c
Encoding: 99 99 31
GlifName: c
Width: 459
VWidth: 0
Flags: HMW
LayerCount: 2
Fore
SplineSet
83 230 m 256
 50 123 96 2 222 1 c 256
 283 1 338 27 388 59 c 257
 384 47 l 257
 335 15 281 -9 221 -9 c 256
 89 -9 40 117 74 230 c 256
 111 354 231 470 366 469 c 256
 418 469 461 449 496 412 c 257
 492 400 l 257
 459 439 417 459 365 459 c 256
 236 459 120 348 83 230 c 256
EndSplineSet
EndChar

StartChar: b
Encoding: 98 98 32
GlifName: b
Width: 509
VWidth: 0
Flags: HMW
LayerCount: 2
Fore
SplineSet
298 779 m 257
 29 0 l 257
 20 0 l 257
 288 779 l 257
 298 779 l 257
492 230 m 256
 453 114 343 -12 210 -9 c 256
 84 -6 73 136 104 230 c 256
 141 340 244 468 371 469 c 256
 504 470 526 332 492 230 c 256
482 230 m 256
 515 327 495 461 367 459 c 256
 247 457 145 335 109 230 c 256
 79 142 90 5 208 1 c 256
 335 -4 444 119 482 230 c 256
EndSplineSet
EndChar

StartChar: p
Encoding: 112 112 33
GlifName: p
Width: 509
VWidth: 0
Flags: HMW
LayerCount: 2
Fore
SplineSet
-46 -219 m 257
 -56 -219 l 257
 179 459 l 257
 189 459 l 257
 -46 -219 l 257
492 230 m 256
 453 114 343 -12 210 -9 c 256
 84 -6 73 136 104 230 c 256
 141 340 244 468 371 469 c 256
 504 470 526 332 492 230 c 256
482 230 m 256
 515 327 495 461 367 459 c 256
 247 457 145 335 109 230 c 256
 79 142 90 5 208 1 c 256
 335 -4 444 119 482 230 c 256
EndSplineSet
EndChar

StartChar: q
Encoding: 113 113 34
GlifName: q
Width: 509
VWidth: 0
Flags: HMW
LayerCount: 2
Fore
SplineSet
294 -219 m 257
 528 459 l 257
 538 459 l 257
 303 -219 l 257
 294 -219 l 257
66 230 m 256
 105 346 215 472 348 469 c 256
 474 466 485 324 454 230 c 256
 417 120 313 -8 186 -9 c 256
 53 -10 32 128 66 230 c 256
76 230 m 256
 43 133 62 -1 190 1 c 256
 310 3 413 125 449 230 c 256
 479 318 467 455 349 459 c 256
 222 464 114 341 76 230 c 256
EndSplineSet
EndChar

StartChar: h
Encoding: 104 104 35
GlifName: h
Width: 446
VWidth: 0
Flags: HMW
LayerCount: 2
Fore
SplineSet
303 779 m 257
 34 0 l 257
 24 0 l 257
 293 779 l 257
 303 779 l 257
413 320 m 258
 432 384 429 457 346 459 c 256
 244 461 170 363 129 282 c 257
 124 282 l 257
 165 369 239 470 347 469 c 256
 436 468 444 389 423 320 c 258
 311 0 l 257
 302 0 l 257
 413 320 l 258
EndSplineSet
EndChar

StartChar: n
Encoding: 110 110 36
GlifName: n
Width: 446
VWidth: 0
Flags: HMW
LayerCount: 2
Fore
SplineSet
194 459 m 257
 34 0 l 257
 24 0 l 257
 184 459 l 257
 194 459 l 257
413 320 m 258
 432 384 429 457 346 459 c 256
 244 461 170 363 129 282 c 257
 124 282 l 257
 165 369 239 470 347 469 c 256
 436 468 444 389 423 320 c 258
 311 0 l 257
 302 0 l 257
 413 320 l 258
EndSplineSet
EndChar

StartChar: m
Encoding: 109 109 37
GlifName: m
Width: 649
VWidth: 0
Flags: HMW
LayerCount: 2
Fore
SplineSet
375 320 m 258
 391 372 403 456 327 459 c 256
 233 463 165 354 129 282 c 257
 124 282 l 257
 160 359 228 473 328 469 c 256
 411 466 403 378 385 320 c 258
 274 0 l 257
 264 0 l 257
 375 320 l 258
194 459 m 257
 34 0 l 257
 24 0 l 257
 184 459 l 257
 194 459 l 257
625 320 m 258
 514 0 l 257
 504 0 l 257
 615 320 l 258
 631 372 643 456 567 459 c 256
 473 463 405 354 369 282 c 257
 362 282 l 257
 399 360 468 473 568 469 c 256
 651 466 643 378 625 320 c 258
EndSplineSet
EndChar

StartChar: k
Encoding: 107 107 38
GlifName: k
Width: 350
VWidth: 0
Flags: HMW
LayerCount: 2
Fore
SplineSet
288 779 m 257
 298 779 l 257
 29 0 l 257
 20 0 l 257
 288 779 l 257
411 458 m 257
 427 458 l 257
 132 269 l 257
 286 0 l 257
 275 0 l 257
 121 271 l 257
 411 458 l 257
EndSplineSet
EndChar

StartChar: u
Encoding: 117 117 39
GlifName: u
Width: 446
VWidth: 0
Flags: HMW
LayerCount: 2
Fore
SplineSet
302 0 m 257
 461 459 l 257
 471 459 l 257
 312 0 l 257
 302 0 l 257
86 150 m 258
 66 86 62 2 150 1 c 256
 252 -1 325 96 366 178 c 257
 372 178 l 257
 331 91 256 -11 148 -9 c 256
 53 -8 54 80 76 150 c 258
 184 459 l 257
 194 459 l 257
 86 150 l 258
EndSplineSet
EndChar

StartChar: e
Encoding: 101 101 40
GlifName: e
Width: 472
VWidth: 0
Flags: HMW
LayerCount: 2
Fore
SplineSet
85 228 m 257
 88 238 l 257
 457 238 l 257
 493 321 473 456 349 458 c 256
 221 460 125 338 88 234 c 257
 89 233 l 257
 66 137 76.002 3.09668 200 1 c 256
 282.994 -0.40332 357 54 416 112 c 257
 423 105 l 257
 362 44 289.019 -9.70328 199 -9 c 256
 71 -8 50 132 79 232 c 256
 87 258 98 284 112 308 c 256
 160 390 248 470 349 469 c 256
 464 467 502 350 474 254 c 256
 471 245 467 236 464 228 c 257
 85 228 l 257
EndSplineSet
EndChar

StartChar: g
Encoding: 103 103 41
GlifName: g
Width: 509
VWidth: 0
Flags: HMW
LayerCount: 2
Fore
SplineSet
-7 -30 m 257
 3 -30 l 257
 -20 -120 -6 -217 107 -219 c 256
 237 -221 334.396 -101.827 373 10 c 258
 528 459 l 257
 538 459 l 257
 384 10 l 258
 343.569 -107.881 242 -230 106 -229 c 256
 -12 -228 -31 -125 -7 -30 c 257
66 230 m 256
 105 346 215 472 348 469 c 256
 474 466 485 324 454 230 c 256
 417 120 313 -8 186 -9 c 256
 53 -10 32 128 66 230 c 256
76 230 m 256
 42 132 62 0 190 1 c 256
 312 2 415 129 450 235 c 256
 479 322 464 455 349 459 c 256
 222 464 114 341 76 230 c 256
EndSplineSet
EndChar

StartChar: f
Encoding: 102 102 42
GlifName: f
Width: 261
VWidth: 0
Flags: HMW
LayerCount: 2
Fore
SplineSet
150 460 m 257
 333 460 l 257
 330 450 l 257
 146 450 l 257
 150 460 l 257
462 733 m 257
 448 755 433 775 404 777 c 256
 334 781 289 706 267 650 c 258
 44 0 l 257
 34 0 l 257
 256 650 l 258
 279 711 329 792 405 787 c 256
 437 785 454 765 470 740 c 257
 462 733 l 257
EndSplineSet
EndChar

StartChar: s
Encoding: 115 115 43
GlifName: s
Width: 379
VWidth: 0
Flags: HMW
LayerCount: 2
Fore
SplineSet
58 147 m 257
 54 79 66 1 151 0 c 256
 218 -1 287 53 305 117 c 256
 323 180 274 210 223 231 c 256
 164 255 116 287 139 359 c 256
 160 423 228 468 294 467 c 256
 357 466 382 424 391 368 c 257
 381 365 l 257
 373 418 353 456 293 457 c 256
 232 458.017 168 417 149 359 c 256
 126 291 175 262 230 240 c 256
 285 218 333 183 315 117 c 256
 296 47 223 -9 150 -9 c 256
 60 -9 44 70 48 144 c 257
 58 147 l 257
EndSplineSet
EndChar

StartChar: y
Encoding: 121 121 44
GlifName: y
Width: 399
VWidth: 0
Flags: HMW
LayerCount: 2
Fore
SplineSet
495 459 m 257
 -22 -219 l 257
 -33 -218 l 257
 151 21 l 257
 112 460 l 257
 122 460 l 257
 161 20 l 257
 149 21 l 257
 484 459 l 257
 495 459 l 257
EndSplineSet
EndChar

StartChar: w
Encoding: 119 119 45
GlifName: w
Width: 583
VWidth: 0
Flags: HMW
LayerCount: 2
Fore
SplineSet
118 460 m 257
 127 460 l 257
 103 20 l 257
 396 476 l 257
 381 19 l 257
 664 459 l 257
 674 459 l 257
 370 -16 l 257
 385 440 l 257
 91 -16 l 257
 118 460 l 257
EndSplineSet
EndChar

StartChar: v
Encoding: 118 118 46
GlifName: v
Width: 395
VWidth: 0
Flags: HMW
LayerCount: 2
Fore
SplineSet
117 460 m 257
 128 460 l 257
 165 11 l 257
 483 459 l 257
 495 459 l 257
 158 -15 l 257
 117 460 l 257
EndSplineSet
EndChar

StartChar: x
Encoding: 120 120 47
GlifName: x
Width: 357
VWidth: 0
Flags: HMW
LayerCount: 2
Fore
SplineSet
433 458 m 257
 447 458 l 257
 224 236 l 257
 314 0 l 257
 302 0 l 257
 216 229 l 257
 -11 0 l 257
 -26 0 l 257
 212 238 l 257
 126 460 l 257
 138 460 l 257
 220 245 l 257
 433 458 l 257
EndSplineSet
EndChar

StartChar: z
Encoding: 122 122 48
GlifName: z
Width: 404
VWidth: 0
Flags: HMW
LayerCount: 2
Fore
SplineSet
455 449 m 257
 137 449 l 257
 140 459 l 257
 480 459 l 257
 -12 11 l 257
 335 11 l 257
 332 0 l 257
 -37 0 l 257
 455 449 l 257
EndSplineSet
EndChar

StartChar: j
Encoding: 106 106 49
GlifName: j
Width: 169
VWidth: 0
Flags: HMW
LayerCount: 2
Fore
SplineSet
253 695 m 256
 253 701 257 705 263 705 c 256
 269 705 273 701 273 695 c 256
 273 689 269 685 263 685 c 256
 257 685 253 689 253 695 c 256
-202 -165 m 257
 -191 -184 -174 -209 -146 -209 c 256
 -74.2686 -209 -27 -134 -7 -82 c 258
 179 459 l 257
 189 459 l 257
 3 -82 l 258
 -20 -143 -70 -219 -146 -219 c 256
 -178.062 -219 -195 -197 -211 -172 c 257
 -202 -165 l 257
EndSplineSet
EndChar

StartChar: P
Encoding: 80 80 50
GlifName: P_
Width: 451
VWidth: 0
Flags: HMW
LayerCount: 2
Fore
SplineSet
270 699 m 257
 281 699 l 257
 40 0 l 257
 29 0 l 257
 270 699 l 257
272 690 m 257
 276 700 l 257
 386 700 l 258
 502 700 558 606 521 497 c 256
 482 380 371 294 249 294 c 258
 137 294 l 257
 140 304 l 257
 251 304 l 258
 368 304 472 386 510 497 c 256
 546 601 495 690 384 690 c 258
 272 690 l 257
EndSplineSet
EndChar

StartChar: U
Encoding: 85 85 51
GlifName: U_
Width: 541
VWidth: 0
Flags: HMW
LayerCount: 2
Fore
SplineSet
266 699 m 257
 276 699 l 257
 111 220 l 258
 81 124 90 3 216 2 c 256
 342 1 432 112 472 220 c 258
 637 699 l 257
 648 699 l 257
 484 220 l 258
 442 104 349 -10 215 -9 c 256
 81 -8 69 116 101 220 c 258
 266 699 l 257
EndSplineSet
EndChar

StartChar: S
Encoding: 83 83 52
GlifName: S_
Width: 459
VWidth: 0
Flags: HMW
LayerCount: 2
Fore
SplineSet
60 197 m 257
 59 110 77 6 185 4 c 256
 289 2 381 78 412 175 c 256
 439 261 393 320 320 359 c 256
 244 399 177 455 208 550 c 256
 237 637 332 708 424 707 c 256
 517 706 546 631 546 550 c 257
 536 548 l 257
 536 623 510 695 423 696 c 256
 337 697 247 631 219 550 c 256
 187 459 255 406 327 368 c 256
 404 328 451 265 423 175 c 256
 391 73 294 -9 184 -7 c 256
 71 -5 49 100 50 193 c 257
 60 197 l 257
EndSplineSet
EndChar

StartChar: at
Encoding: 64 64 53
GlifName: at
Width: 724
VWidth: 0
Flags: HMW
LayerCount: 2
Fore
SplineSet
258 320 m 256
 239 261 244 178 322 175 c 256
 421 171 506 287 534 370 c 256
 552 424 554 510 479 516 c 256
 376 524 286 407 258 320 c 256
247 320 m 256
 277 414 371 533 481 527 c 256
 565 522 562 427 542 367 c 256
 513 280 425 163 322 164 c 256
 235 165 226 254 247 320 c 256
87 320 m 256
 155 521 355 711 577 708 c 256
 752 706 824 543 771 390 c 256
 739 296 639 140 521 153 c 256
 444 161 479 244 498 290 c 257
 496 291 l 257
 614 519 l 257
 626 519 l 257
 506 289 l 258
 501 278 496 266 492 254 c 256
 481 218 475 172 523 164 c 256
 633 146 730 305 760 390 c 256
 812 537 745 694 575 697 c 256
 358 701 165 516 98 320 c 256
 45 164 96 7 280 4 c 256
 366 2 449 28 528 60 c 257
 531 50 l 257
 451 18 365 -8 278 -7 c 256
 88 -4 32 158 87 320 c 256
EndSplineSet
EndChar

StartChar: period
Encoding: 46 46 54
GlifName: period
Width: 244
VWidth: 0
Flags: HMW
LayerCount: 2
Fore
SplineSet
57 1 m 256
 57 7 62 12 68 12 c 256
 74 12 79 7 79 1 c 256
 79 -5 74 -10 68 -10 c 256
 62 -10 57 -5 57 1 c 256
EndSplineSet
EndChar

StartChar: comma
Encoding: 44 44 55
GlifName: comma
Width: 259
VWidth: 0
Flags: HMW
LayerCount: 2
Fore
SplineSet
144 92 m 257
 153 87 l 257
 -39 -159 l 257
 -45 -157 l 257
 144 92 l 257
EndSplineSet
EndChar

StartChar: colon
Encoding: 58 58 56
GlifName: colon
Width: 282
VWidth: 0
Flags: HMW
LayerCount: 2
Fore
SplineSet
57 1 m 256
 57 7 62 12 68 12 c 256
 74 12 79 7 79 1 c 256
 79 -5 74 -10 68 -10 c 256
 62 -10 57 -5 57 1 c 256
176 349 m 256
 176 355 181 360 187 360 c 256
 193 360 198 355 198 349 c 256
 198 343 193 338 187 338 c 256
 181 338 176 343 176 349 c 256
EndSplineSet
EndChar

StartChar: semicolon
Encoding: 59 59 57
GlifName: semicolon
Width: 259
VWidth: 0
Flags: HMW
LayerCount: 2
Fore
SplineSet
204 349 m 256
 204 355 209 360 215 360 c 256
 221 360 226 355 226 349 c 256
 226 343 221 338 215 338 c 256
 209 338 204 343 204 349 c 256
144 92 m 257
 153 87 l 257
 -39 -159 l 257
 -45 -157 l 257
 144 92 l 257
EndSplineSet
EndChar

StartChar: quotedbl
Encoding: 34 34 58
GlifName: quotedbl
Width: 379
VWidth: 0
Flags: HMW
LayerCount: 2
Fore
SplineSet
314 699 m 257
 327 699 l 257
 185 421 l 257
 178 421 l 257
 314 699 l 257
484 699 m 257
 497 699 l 257
 354 421 l 257
 347 421 l 257
 484 699 l 257
EndSplineSet
EndChar

StartChar: exclam
Encoding: 33 33 59
GlifName: exclam
Width: 246
VWidth: 0
Flags: HMW
LayerCount: 2
Fore
SplineSet
302 699 m 257
 316 699 l 257
 140 201 l 257
 134 201 l 257
 302 699 l 257
57 1 m 256
 57 8 62 12 68 12 c 256
 74 12 79 8 79 1 c 256
 79 -6 74 -10 68 -10 c 256
 62 -10 57 -6 57 1 c 256
EndSplineSet
EndChar

StartChar: quotesingle
Encoding: 39 39 60
GlifName: quotesingle
Width: 209
VWidth: 0
Flags: HMW
LayerCount: 2
Fore
SplineSet
314 699 m 257
 327 699 l 257
 185 421 l 257
 178 421 l 257
 314 699 l 257
EndSplineSet
EndChar

StartChar: numbersign
Encoding: 35 35 61
GlifName: numbersign
Width: 537
VWidth: 0
Flags: HMW
LayerCount: 2
Fore
SplineSet
171 454 m 257
 175 465 l 257
 609 465 l 257
 605 454 l 257
 497 454 l 257
 493 454 l 257
 298 454 l 257
 295 454 l 257
 171 454 l 257
60 240 m 257
 64 251 l 257
 176 251 l 257
 181 251 l 257
 372 251 l 257
 378 251 l 257
 498 251 l 257
 495 240 l 257
 60 240 l 257
628 699 m 257
 639 699 l 257
 237 0 l 257
 226 0 l 257
 366 244 l 257
 368 246 l 257
 488 458 l 257
 490 462 l 257
 628 699 l 257
430 699 m 257
 441 699 l 257
 304 462 l 257
 302 458 l 257
 180 244 l 257
 180 243 l 257
 40 1 l 257
 29 0 l 257
 430 699 l 257
EndSplineSet
EndChar

StartChar: hyphen
Encoding: 45 45 62
GlifName: hyphen
Width: 197
VWidth: 0
Flags: HMW
LayerCount: 2
Fore
SplineSet
41 265 m 257
 44 275 l 257
 233 275 l 257
 229 265 l 257
 41 265 l 257
EndSplineSet
EndChar

StartChar: dollar
Encoding: 36 36 63
GlifName: dollar
Width: 545
VWidth: 0
Flags: HMW
LayerCount: 2
Fore
SplineSet
452 817 m 257
 462 817 l 257
 423 701 l 257
 413 701 l 257
 452 817 l 257
202 -2 m 257
 211 -2 l 257
 175 -112 l 257
 165 -112 l 257
 202 -2 l 257
538 548 m 257
 535 624 506 695 419 696 c 256
 334 697 246 631 220 550 c 256
 191 458 263 405 335 368 c 256
 413 328 463 266 437 175 c 256
 408 73 313 -9 204 -7 c 256
 91 -5 65 99 63 193 c 257
 74 197 l 257
 75 108 98 6 206 4 c 256
 309 2 399 78 427 175 c 256
 452 262 401 321 328 359 c 256
 252 398 180 455 209 550 c 256
 235 637 329 708 421 707 c 256
 514 706 546 631 548 550 c 257
 538 548 l 257
EndSplineSet
EndChar

StartChar: bar
Encoding: 124 124 64
GlifName: bar
Width: 197
VWidth: 0
Flags: HMW
LayerCount: 2
Fore
SplineSet
302 785 m 257
 312 785 l 257
 2 -215 l 257
 -8 -215 l 257
 302 785 l 257
EndSplineSet
EndChar

StartChar: zero
Encoding: 48 48 65
GlifName: zero
Width: 517
VWidth: 0
Flags: HMW
LayerCount: 2
Fore
SplineSet
128 350 m 256
 95 254 34 2 203 0 c 256
 370 -2 475 217 520 350 c 256
 553 446 614 697 445 699 c 256
 278 701 173 483 128 350 c 256
117 350 m 256
 164 489 272 711 446 709 c 256
 624 707 566 454 531 350 c 256
 484 211 376 -11 202 -9 c 256
 24 -7 82 246 117 350 c 256
EndSplineSet
Substitution2: "'tnum' Tabular Numbers lookup 0 subtable" uniFF10
EndChar

StartChar: one
Encoding: 49 49 66
GlifName: one
Width: 385
VWidth: 0
Flags: HMW
LayerCount: 2
Fore
SplineSet
258 655 m 257
 262 666 l 257
 446 705 l 257
 203 0 l 257
 194 0 l 257
 431 690 l 257
 258 655 l 257
EndSplineSet
Substitution2: "'tnum' Tabular Numbers lookup 0 subtable" uniFF11
EndChar

StartChar: two
Encoding: 50 50 67
GlifName: two
Width: 483
VWidth: 0
Flags: HMW
LayerCount: 2
Fore
SplineSet
-11 0 m 257
 392 334 l 258
 452 385 516 441 540 519 c 256
 568 606 530 699 429 700 c 256
 295 702 212 570 167 461 c 257
 157 461 l 257
 203 576 290 712 430 710 c 256
 536 708 578 612 550 519 c 256
 526 440 462 380 401 328 c 258
 17 11 l 257
 420 10 l 257
 417 0 l 257
 -11 0 l 257
EndSplineSet
Substitution2: "'tnum' Tabular Numbers lookup 0 subtable" uniFF12
EndChar

StartChar: four
Encoding: 52 52 68
GlifName: four
Width: 520
VWidth: 0
Flags: HMW
LayerCount: 2
Fore
SplineSet
17 141 m 257
 569 699 l 257
 571 699 l 257
 329 0 l 257
 319 0 l 257
 369 142 l 257
 370 147 l 257
 548 663 l 257
 39 151 l 257
 374 150 l 257
 377 150 l 257
 484 150 l 257
 481 140 l 257
 17 141 l 257
EndSplineSet
Substitution2: "'tnum' Tabular Numbers lookup 0 subtable" uniFF14
EndChar

StartChar: slash
Encoding: 47 47 69
GlifName: slash
Width: 446
VWidth: 0
Flags: HMW
LayerCount: 2
Fore
SplineSet
607 699 m 257
 619 698 l 257
 -81 -149 l 257
 -93 -148 l 257
 607 699 l 257
EndSplineSet
EndChar

StartChar: backslash
Encoding: 92 92 70
GlifName: backslash
Width: 409
VWidth: 0
Flags: HMW
LayerCount: 2
Fore
SplineSet
199 700 m 257
 211 700 l 257
 341 0 l 257
 329 0 l 257
 199 700 l 257
EndSplineSet
EndChar

StartChar: eight
Encoding: 56 56 71
GlifName: eight
Width: 485
VWidth: 0
Flags: HMW
LayerCount: 2
Fore
SplineSet
210 541 m 256
 239 629 335 710 430 709 c 256
 522 708 564 621 537 540 c 256
 508 453 410 368 315 369 c 256
 223 370 184 461 210 541 c 256
219 541 m 256
 195 469 230 378 315 376 c 256
 404 374 499 461 527 541 c 256
 554 617 516 698 429 699 c 256
 339 700 247 624 219 541 c 256
69 185 m 256
 103 282 208 372 314 371 c 256
 416 370 463 276 434 185 c 256
 401 81 298 -10 186 -9 c 256
 75 -8 36 90 69 185 c 256
79 185 m 256
 47 96 82 2 187 1 c 256
 293 0 392 87 424 185 c 256
 452 269 411 363 314 364 c 256
 213 365 112 277 79 185 c 256
EndSplineSet
Substitution2: "'tnum' Tabular Numbers lookup 0 subtable" uniFF18
EndChar

StartChar: nine
Encoding: 57 57 72
GlifName: nine
Width: 504
VWidth: 0
Flags: HMW
LayerCount: 2
Fore
SplineSet
562 480 m 256
 594 581 555 698 434 699 c 256
 311 700 204 593 170 480 c 256
 142 387 181 277 291 274 c 256
 412 271 526 369 562 480 c 256
159 0 m 257
 147 0 l 257
 481 345 l 257
 484 344 l 257
 428 300 364 261 290 263 c 256
 174 266 131 380 160 480 c 256
 194 599 305 710 435 709 c 256
 564 708 605 589 571 480 c 256
 552 420 513 367 470 321 c 258
 159 0 l 257
EndSplineSet
Substitution2: "'tnum' Tabular Numbers lookup 0 subtable" uniFF19
EndChar

StartChar: three
Encoding: 51 51 73
GlifName: three
Width: 518
VWidth: 0
Flags: HMW
LayerCount: 2
Fore
SplineSet
310 363 m 257
 312 371 l 257
 412 382 525 429 559 533 c 256
 586 617 539 697 448 699 c 256
 341 701 267 616 225 527 c 257
 215 527 l 257
 257 623 336 710 449 709 c 256
 546 708 598 623 569 533 c 256
 534 422 417 373 310 363 c 257
225 -9 m 256
 107 -9 64 79 85 185 c 257
 94 185 l 257
 74 83 112 2 226 1 c 256
 330 0 438 74 468 175 c 256
 501 288 408 347 309 359 c 257
 311 367 l 257
 416 356 513 293 478 175 c 256
 447 68 335 -9 225 -9 c 256
EndSplineSet
Substitution2: "'tnum' Tabular Numbers lookup 0 subtable" uniFF13
EndChar

StartChar: five
Encoding: 53 53 74
GlifName: five
Width: 524
VWidth: 0
Flags: HMW
LayerCount: 2
Fore
SplineSet
497 230 m 256
 461 105 348 -10 212 -9 c 256
 119 -9 74 51 60 137 c 257
 69 142 l 257
 83 60 123 2 213 1 c 256
 343 0 452 111 488 230 c 256
 516 322 485 432 374 435 c 256
 286 437 209 383 145 329 c 257
 348 700 l 257
 658 700 l 257
 655 690 l 257
 352 689 l 257
 171 360 l 257
 228 408 298 447 375 445 c 256
 493 442 526 328 497 230 c 256
EndSplineSet
Substitution2: "'tnum' Tabular Numbers lookup 0 subtable" uniFF15
EndChar

StartChar: six
Encoding: 54 54 75
GlifName: six
Width: 504
VWidth: 0
Flags: HMW
LayerCount: 2
Fore
SplineSet
90 220 m 256
 58 119 96 2 217 1 c 256
 340 0 448 107 482 220 c 256
 510 313 471 423 361 426 c 256
 240 429 126 331 90 220 c 256
492 698 m 257
 505 698 l 257
 169 354 l 257
 167 356 l 257
 223 400 287 439 361 437 c 256
 477 434 520 320 491 220 c 256
 457 101 346 -10 216 -9 c 256
 87 -8 46 111 80 220 c 256
 99 280 138 333 181 379 c 258
 492 698 l 257
EndSplineSet
Substitution2: "'tnum' Tabular Numbers lookup 0 subtable" uniFF16
EndChar

StartChar: seven
Encoding: 55 55 76
GlifName: seven
Width: 484
VWidth: 0
Flags: HMW
LayerCount: 2
Fore
SplineSet
211 690 m 257
 214 700 l 257
 658 699 l 257
 92 0 l 257
 81 0 l 257
 638 689 l 257
 211 690 l 257
EndSplineSet
Substitution2: "'tnum' Tabular Numbers lookup 0 subtable" uniFF17
EndChar

StartChar: plus
Encoding: 43 43 77
GlifName: plus
Width: 517
VWidth: 0
Flags: HMW
LayerCount: 2
Fore
SplineSet
92 250 m 257
 95 260 l 257
 482 260 l 257
 478 250 l 257
 92 250 l 257
360 479 m 257
 370 479 l 257
 214 31 l 257
 204 31 l 257
 360 479 l 257
EndSplineSet
EndChar

StartChar: equal
Encoding: 61 61 78
GlifName: equal
Width: 578
VWidth: 0
Flags: HMW
LayerCount: 2
Fore
SplineSet
70 185 m 257
 73 195 l 257
 530 195 l 257
 527 185 l 257
 70 185 l 257
113 310 m 257
 116 320 l 257
 573 320 l 257
 569 310 l 257
 113 310 l 257
EndSplineSet
EndChar

StartChar: percent
Encoding: 37 37 79
GlifName: percent
Width: 659
VWidth: 0
Flags: HMW
LayerCount: 2
Fore
SplineSet
169 561 m 256
 195 638 274 710 359 709 c 256
 443 708 473 631 449 559 c 256
 423 482 344 410 259 411 c 256
 175 412 145 489 169 561 c 256
179 560 m 256
 156 495 182 421 260 420 c 256
 339 419 414 488 439 560 c 256
 462 626 435 698 358 699 c 256
 279 700 204 632 179 560 c 256
341 141 m 256
 367 218 446 290 531 289 c 256
 615 288 645 211 621 139 c 256
 595 62 516 -10 431 -9 c 256
 347 -8 317 69 341 141 c 256
351 140 m 256
 328 75 353 1 431 0 c 256
 510 -1 586 68 611 140 c 256
 634 206 607 278 530 279 c 256
 451 280 376 212 351 140 c 256
724 698 m 257
 736 698 l 257
 66 0 l 257
 53 0 l 257
 724 698 l 257
EndSplineSet
EndChar

StartChar: ampersand
Encoding: 38 38 80
GlifName: ampersand
Width: 635
VWidth: 0
Flags: HMW
LayerCount: 2
Fore
SplineSet
269 427 m 258
 246 474 235 526 252 577 c 256
 277 653 354 713 436 710 c 256
 511 708 546 642 525 574 c 256
 499 489 408 439 335 400 c 256
 232 344 104 296 66 173 c 256
 36 76 95 2 195 1 c 256
 380 -1 514 199 631 315 c 257
 638 309 l 257
 518 190 383 -10 194 -9 c 256
 89 -8 25 70 56 173 c 256
 94 299 222 351 329 407 c 256
 399 444 489 493 515 574 c 256
 535 637 504 697 435 700 c 256
 360 703 285 646 262 576 c 256
 246 527 256 480 278 435 c 258
 504 -0 l 257
 492 0 l 257
 269 427 l 258
EndSplineSet
EndChar

StartChar: question
Encoding: 63 63 81
GlifName: question
Width: 509
VWidth: 0
Flags: HMW
LayerCount: 2
Fore
SplineSet
549 520 m 256
 582 612 536 698 434 699 c 256
 347 700 276 645 215 589 c 257
 208 595 l 257
 271 653 345 710 435 709 c 256
 543 707 593 618 559 520 c 256
 519 405 395 351 282 337 c 257
 224 171 l 257
 216 171 l 257
 272 345 l 257
 273 345 l 256
 385 357 508 406 549 520 c 256
147 1 m 256
 147 6 152 12 158 12 c 256
 164 12 168 7 168 1 c 256
 168 -5.12311 163 -10 157 -10 c 256
 151 -10 147 -6.09902 147 1 c 256
EndSplineSet
EndChar

StartChar: parenleft
Encoding: 40 40 82
GlifName: parenleft
Width: 225
VWidth: 0
Flags: HMW
LayerCount: 2
Fore
SplineSet
400 779 m 257
 405 779 l 257
 293 632 203 467 149 290 c 256
 100 131 84 -34 102 -200 c 257
 97 -200 l 257
 71 -35 90 131 139 290 c 256
 193 468 282 635 400 779 c 257
EndSplineSet
EndChar

StartChar: parenright
Encoding: 41 41 83
GlifName: parenright
Width: 225
VWidth: 0
Flags: HMW
LayerCount: 2
Fore
SplineSet
-64 -199 m 257
 -69 -199 l 257
 43 -52 132 113 186 290 c 256
 235 449 252 614 234 780 c 257
 239 780 l 257
 265 615 246 449 197 290 c 256
 143 112 54 -55 -64 -199 c 257
EndSplineSet
EndChar

StartChar: asterisk
Encoding: 42 42 84
GlifName: asterisk
Width: 557
VWidth: 0
Flags: HMW
LayerCount: 2
Fore
SplineSet
579 584 m 257
 578 572 l 257
 403 523 l 257
 402 529 l 257
 579 584 l 257
458 387 m 257
 447 380 l 257
 400 522 l 257
 405 527 l 257
 458 387 l 257
261 382 m 257
 253 389 l 257
 401 527 l 257
 404 522 l 257
 261 382 l 257
261 573 m 257
 268 584 l 257
 407 528 l 257
 403 523 l 257
 261 573 l 257
459 699 m 257
 471 699 l 257
 405 526 l 257
 399 526 l 257
 459 699 l 257
EndSplineSet
EndChar

StartChar: less
Encoding: 60 60 85
GlifName: less
Width: 602
VWidth: 0
Flags: HMW
LayerCount: 2
Fore
SplineSet
111 256 m 257
 506 55 l 257
 503 46 l 257
 93 254 l 257
 95 260 l 257
 647 469 l 257
 644 459 l 257
 111 256 l 257
EndSplineSet
EndChar

StartChar: greater
Encoding: 62 62 86
GlifName: greater
Width: 602
VWidth: 0
Flags: HMW
LayerCount: 2
Fore
SplineSet
559 258 m 257
 163 460 l 257
 167 469 l 257
 576 261 l 257
 574 255 l 257
 22 46 l 257
 25 56 l 257
 559 258 l 257
EndSplineSet
EndChar

StartChar: bracketleft
Encoding: 91 91 87
GlifName: bracketleft
Width: 244
VWidth: 0
Flags: HMW
LayerCount: 2
Fore
SplineSet
308 769 m 257
 6 -209 l 257
 127 -209 l 257
 124 -220 l 257
 -9 -220 l 257
 300 780 l 257
 432 780 l 257
 429 769 l 257
 308 769 l 257
EndSplineSet
EndChar

StartChar: bracketright
Encoding: 93 93 88
GlifName: bracketright
Width: 244
VWidth: 0
Flags: HMW
LayerCount: 2
Fore
SplineSet
41 -209 m 257
 342 769 l 257
 221 769 l 257
 225 780 l 257
 357 780 l 257
 48 -220 l 257
 -83 -220 l 257
 -80 -209 l 257
 41 -209 l 257
EndSplineSet
EndChar

StartChar: asciicircum
Encoding: 94 94 89
GlifName: asciicircum
Width: 479
VWidth: 0
Flags: HMW
LayerCount: 2
Fore
SplineSet
422 690 m 257
 177 462 l 257
 162 462 l 257
 427 708 l 257
 426 708 l 257
 523 460 l 257
 511 460 l 257
 422 690 l 257
EndSplineSet
EndChar

StartChar: underscore
Encoding: 95 95 90
GlifName: underscore
Width: 470
VWidth: 0
Flags: HMW
LayerCount: 2
Fore
SplineSet
-92 -109 m 257
 -88 -98 l 257
 383 -98 l 257
 379 -109 l 257
 -92 -109 l 257
EndSplineSet
EndChar

StartChar: grave
Encoding: 96 96 91
GlifName: grave
Width: 332
VWidth: 0
Flags: HMW
LayerCount: 2
Fore
SplineSet
272 692 m 257
 281 699 l 257
 394 540 l 257
 389 536 l 257
 272 692 l 257
EndSplineSet
EndChar

StartChar: braceleft
Encoding: 123 123 92
GlifName: braceleft
Width: 264
VWidth: 0
Flags: HMW
LayerCount: 2
Fore
SplineSet
302 640 m 258
 238 430 l 258
 218 370 189 316 129 289 c 257
 131 292 l 257
 179 257 166 202 151 150 c 258
 86 -60 l 258
 71 -112 51 -190 124 -190 c 258
 144 -190 l 257
 141 -200 l 257
 122 -200 l 258
 42 -200 60 -117 77 -60 c 258
 142 150 l 258
 156 199 163 244 128 285 c 257
 131 295 l 257
 181 328 209 374 228 430 c 258
 292 640 l 258
 314 707 345 779 423 779 c 258
 443 779 l 257
 440 770 l 257
 421 770 l 258
 349 770 322 701 302 640 c 258
EndSplineSet
EndChar

StartChar: braceright
Encoding: 125 125 93
GlifName: braceright
Width: 264
VWidth: 0
Flags: HMW
LayerCount: 2
Fore
SplineSet
72 -60 m 258
 136 150 l 258
 157 210 185 264 245 291 c 257
 244 288 l 257
 196 323 208 378 223 430 c 258
 288 640 l 258
 303 692 323 770 250 770 c 258
 231 770 l 257
 234 780 l 257
 252 780 l 258
 332 780 314 697 297 640 c 258
 232 430 l 258
 218 381 212 336 247 295 c 257
 244 285 l 257
 194 252 166 206 147 150 c 258
 83 -60 l 258
 61 -127 29 -200 -49 -200 c 258
 -68 -200 l 257
 -65 -191 l 257
 -47 -191 l 258
 25 -191 52 -121 72 -60 c 258
EndSplineSet
EndChar

StartChar: asciitilde
Encoding: 126 126 94
GlifName: asciitilde
Width: 541
VWidth: 0
Flags: HMW
LayerCount: 2
Fore
SplineSet
103 179 m 257
 94 182 l 257
 95 190 96 198 98 206 c 256
 108 237 126 268 150 290 c 256
 173 311 208 326 239 326 c 256
 286 325 307 287 326 250 c 256
 342 219 361 184 401 183 c 256
 458 181 502 240 518 289 c 256
 521 299 522 310 523 320 c 257
 532 317 l 257
 531 308 530 298 527 289 c 256
 518 260 502 228 480 207 c 256
 460 188 428 172 400 173 c 256
 357 174 336 209 318 243 c 256
 300 277 282.041 315.371 238 316 c 256
 168 317 123 255 106 201 c 256
 104 194 104 186 103 179 c 257
EndSplineSet
EndChar

StartChar: exclamdown
Encoding: 161 161 95
GlifName: exclamdown
Width: 282
VWidth: 0
Flags: HMW
LayerCount: 2
Fore
SplineSet
27 -244 m 257
 13 -244 l 257
 190 254 l 257
 196 254 l 257
 27 -244 l 257
270 454 m 256
 269 450 261 443 256 443 c 256
 251 443 248 449 249 454 c 256
 250 458 258 465 263 465 c 256
 268 465 271 459 270 454 c 256
EndSplineSet
EndChar

StartChar: cent
Encoding: 162 162 96
GlifName: cent
Width: 545
VWidth: 0
Flags: HMW
LayerCount: 2
Fore
SplineSet
243 -5 m 257
 247 -5 l 257
 212 -111 l 257
 199 -111 l 257
 243 -5 l 257
114 230 m 256
 78 125 119 2 245 1 c 256
 307 1 362 27 413 59 c 257
 409 47 l 257
 359 15 304 -9 244 -9 c 256
 111 -9 68 119 105 230 c 256
 147 354 269 469 405 469 c 256
 456 469 499 450 533 412 c 257
 529 400 l 257
 498 440 455 459 404 459 c 256
 274 459 155 348 114 230 c 256
437 577 m 257
 451 577 l 257
 404 464 l 257
 400 464 l 257
 437 577 l 257
EndSplineSet
EndChar

StartChar: sterling
Encoding: 163 163 97
GlifName: sterling
Width: 545
VWidth: 0
Flags: HMW
LayerCount: 2
Fore
SplineSet
131 305 m 257
 424 305 l 257
 420 295 l 257
 128 295 l 257
 131 305 l 257
567 498 m 257
 586 578 590 697 479 699 c 256
 387 701 295 622 266 538 c 256
 234 443 319 359 289 264 c 256
 252 150 129 81 47 1 c 257
 47 11 l 257
 417 10 l 257
 414 0 l 257
 34 0 l 257
 118 78 242 149 279 264 c 256
 309 359 225 443 256 538 c 256
 286 628 382 710 480 709 c 256
 598 708 597 584 577 498 c 257
 567 498 l 257
EndSplineSet
EndChar

StartChar: currency
Encoding: 164 164 98
GlifName: currency
Width: 526
VWidth: 0
Flags: HMW
LayerCount: 2
Fore
SplineSet
177 523 m 257
 190 533 l 257
 229 469 l 257
 217 460 l 257
 177 523 l 257
31 68 m 257
 25 79 l 257
 108 139 l 257
 114 129 l 257
 31 68 l 257
525 461 m 257
 518 471 l 257
 601 532 l 257
 607 521 l 257
 525 461 l 257
403 131 m 257
 415 140 l 257
 454 77 l 257
 443 67 l 257
 403 131 l 257
96 300 m 256
 136 421 258 540 392 539 c 256
 523 538 563 408 527 300 c 256
 487 179 365 60 231 61 c 256
 100 62 60 192 96 300 c 256
106 300 m 256
 71 198 107 72 232 71 c 256
 360 70 478 185 517 300 c 256
 552 402 516 528 391 529 c 256
 263 530 145 415 106 300 c 256
EndSplineSet
EndChar

StartChar: yen
Encoding: 165 165 99
GlifName: yen
Width: 531
VWidth: 0
Flags: HMW
LayerCount: 2
Fore
SplineSet
66 270 m 257
 69 280 l 257
 518 280 l 257
 515 270 l 257
 66 270 l 257
23 145 m 257
 27 155 l 257
 476 155 l 257
 473 145 l 257
 23 145 l 257
650 698 m 257
 663 698 l 257
 289 264 l 257
 198 0 l 257
 187 0 l 257
 281 268 l 257
 213 700 l 257
 225 700 l 257
 289 282 l 257
 650 698 l 257
EndSplineSet
EndChar

StartChar: brokenbar
Encoding: 166 166 100
GlifName: brokenbar
Width: 197
VWidth: 0
Flags: HMW
LayerCount: 2
Fore
SplineSet
279 694 m 257
 289 694 l 257
 203 456 l 257
 193 456 l 257
 279 694 l 257
135 244 m 257
 49 6 l 257
 39 6 l 257
 125 244 l 257
 135 244 l 257
EndSplineSet
EndChar

StartChar: section
Encoding: 167 167 101
GlifName: section
Width: 374
VWidth: 0
Flags: HMW
LayerCount: 2
Fore
SplineSet
493 616 m 257
 475 670 435 699 377 699 c 256
 316 699 234 663 215 599 c 256
 195 531 273 506 320 483 c 256
 370 459 435 426 416 359 c 256
 391 269 297 248 221 241 c 257
 220 241 l 257
 289 266 385 282 406 361 c 256
 422 422 357 454 312 475 c 256
 260 499 182 526 205 599 c 256
 227 669 309 709 378 709 c 256
 440 709 483 679 500 620 c 257
 493 616 l 257
25 127 m 257
 28 53 70 2 147 0 c 256
 213 -2 293 33 317 100 c 256
 342 171 276 206 223 233 c 256
 174 259 103 292 123 360 c 256
 149 449 244 470 319 479 c 257
 320 479 l 257
 252 455 154 436 133 358 c 256
 116 294 185 264 231 241 c 256
 288 212 352 175 327 100 c 256
 303 27 218 -10 146 -9 c 256
 65 -8 18 45 16 123 c 257
 25 127 l 257
EndSplineSet
EndChar

StartChar: dieresis
Encoding: 168 168 102
GlifName: dieresis
Width: 397
VWidth: 0
Flags: HMW
LayerCount: 2
Fore
SplineSet
460 689 m 256
 461 693 468 700 473 700 c 256
 478 700 482 694 481 689 c 256
 480 685 472 678 467 678 c 256
 462 678 459 684 460 689 c 256
272 689 m 256
 273 693 280 700 285 700 c 256
 290 700 294 694 293 689 c 256
 292 685 284 678 279 678 c 256
 274 678 271 684 272 689 c 256
EndSplineSet
EndChar

StartChar: copyright
Encoding: 169 169 103
GlifName: copyright
Width: 752
VWidth: 0
Flags: HMW
LayerCount: 2
Fore
SplineSet
260 350 m 256
 231 257 261 145 375 143 c 256
 428 142 475 165 519 191 c 257
 516 182 l 257
 472 157 426 135 374 136 c 256
 256 138 222 252 252 350 c 256
 285 459 386 563 505 564 c 256
 551 565 586 548 619 518 c 257
 616 509 l 257
 585 541 551 557 505 557 c 256
 389 556 292 455 260 350 c 256
121 350 m 256
 69 183 149 1 341 0 c 256
 540 -1 722 167 779 350 c 256
 831 517 751 699 559 700 c 256
 360 701 178 533 121 350 c 256
111 350 m 256
 169 540 353 711 559 710 c 256
 758 709 842 524 789 350 c 256
 731 160 546 -11 340 -10 c 256
 141 -9 58 176 111 350 c 256
EndSplineSet
EndChar

StartChar: registered
Encoding: 174 174 104
GlifName: registered
Width: 752
VWidth: 0
Flags: HMW
LayerCount: 2
Fore
SplineSet
413 340 m 257
 421 340 l 257
 489 150 l 257
 480 150 l 257
 413 340 l 257
425 570 m 257
 432 570 l 257
 300 150 l 257
 293 150 l 257
 425 570 l 257
422 563 m 257
 424 570 l 257
 488 570 l 257
 555 566 609 526 587 453 c 256
 565 379 489 343 417 339 c 257
 353 338 l 257
 354 344 l 257
 418 344 l 257
 487 348 559 383 580 454 c 256
 601 523 550 558 487 562 c 257
 422 563 l 257
121 350 m 256
 69 183 149 1 341 0 c 256
 540 -1 722 167 779 350 c 256
 831 517 751 699 559 700 c 256
 360 701 178 533 121 350 c 256
111 350 m 256
 169 540 353 711 559 710 c 256
 758 709 842 524 789 350 c 256
 731 160 546 -11 340 -10 c 256
 141 -9 58 176 111 350 c 256
EndSplineSet
EndChar

StartChar: ordfeminine
Encoding: 170 170 105
GlifName: ordfeminine
Width: 223
VWidth: 0
Flags: HMW
LayerCount: 2
Fore
SplineSet
154 528 m 256
 143 494 161 463 197 461 c 256
 245 459 279 504 303 539 c 257
 307 538 l 257
 283 500 248 454 197 456 c 256
 157 458 137 492 150 529 c 256
 164 571 218 600 260 599 c 256
 282 598 298 589 317 578 c 257
 315 572 l 257
 297 584 281 594 259 595 c 256
 219 597 167 568 154 528 c 256
217 663 m 257
 214 667 l 257
 238 681 269 702 299 699 c 256
 340 694 345 659 337 625 c 257
 278 461 l 257
 273 461 l 257
 332 625 l 257
 340 656 338 690 299 694 c 256
 270 697 240 677 217 663 c 257
EndSplineSet
EndChar

StartChar: ordmasculine
Encoding: 186 186 106
GlifName: ordmasculine
Width: 261
VWidth: 0
Flags: HMW
LayerCount: 2
Fore
SplineSet
162 581 m 256
 182 642 248 700 315 699 c 256
 381 698 406 636 387 579 c 256
 367 518 301 460 234 461 c 256
 168 462 143 524 162 581 c 256
171 580 m 256
 153 529 175 473 235 471 c 256
 296 469 359 525 378 580 c 256
 396 631 374 687 314 689 c 256
 253 691 190 635 171 580 c 256
EndSplineSet
EndChar

StartChar: guillemotleft
Encoding: 171 171 107
GlifName: guillemotleft
Width: 456
VWidth: 0
Flags: HMW
LayerCount: 2
Fore
SplineSet
230 255 m 257
 346 27 l 257
 337 20 l 257
 220 257 l 257
 497 488 l 257
 502 481 l 257
 230 255 l 257
79 255 m 257
 195 27 l 257
 187 20 l 257
 70 257 l 257
 347 488 l 257
 352 481 l 257
 79 255 l 257
EndSplineSet
EndChar

StartChar: guillemotright
Encoding: 187 187 108
GlifName: guillemotright
Width: 456
VWidth: 0
Flags: HMW
LayerCount: 2
Fore
SplineSet
292 255 m 257
 176 483 l 257
 184 490 l 257
 302 253 l 257
 24 22 l 257
 20 29 l 257
 292 255 l 257
443 255 m 257
 327 483 l 257
 335 490 l 257
 452 253 l 257
 175 22 l 257
 170 29 l 257
 443 255 l 257
EndSplineSet
EndChar

StartChar: uni00AD
Encoding: 173 173 109
GlifName: uni00A_D_
Width: 197
VWidth: 0
Flags: HMW
LayerCount: 2
Fore
SplineSet
41 265 m 257
 44 275 l 257
 233 275 l 257
 229 265 l 257
 41 265 l 257
EndSplineSet
EndChar

StartChar: logicalnot
Encoding: 172 172 110
GlifName: logicalnot
Width: 583
VWidth: 0
Flags: HMW
LayerCount: 2
Fore
SplineSet
131 365 m 257
 135 375 l 257
 597 375 l 257
 526 176 l 257
 516 176 l 257
 584 365 l 257
 131 365 l 257
EndSplineSet
EndChar

StartChar: macron
Encoding: 175 175 111
GlifName: macron
Width: 479
VWidth: 0
Flags: HMW
LayerCount: 2
Fore
SplineSet
246 665 m 257
 249 675 l 257
 578 675 l 257
 575 665 l 257
 246 665 l 257
EndSplineSet
EndChar

StartChar: degree
Encoding: 176 176 112
GlifName: degree
Width: 261
VWidth: 0
Flags: HMW
LayerCount: 2
Fore
SplineSet
168 601 m 256
 188 662 255 720 322 719 c 256
 388 718 413 656 394 599 c 256
 374 538 308 480 241 481 c 256
 175 482 149 544 168 601 c 256
178 600 m 256
 160 549 182 493 242 491 c 256
 303 489 365 545 384 600 c 256
 402 651 380 707 320 709 c 256
 259 711 197 655 178 600 c 256
EndSplineSet
EndChar

StartChar: plusminus
Encoding: 177 177 113
GlifName: plusminus
Width: 573
VWidth: 0
Flags: HMW
LayerCount: 2
Fore
SplineSet
27 0 m 257
 30 10 l 257
 482 10 l 257
 479 0 l 257
 27 0 l 257
144 380 m 257
 147 390 l 257
 599 390 l 257
 596 380 l 257
 144 380 l 257
440 620 m 257
 450 620 l 257
 303 150 l 257
 293 150 l 257
 440 620 l 257
EndSplineSet
EndChar

StartChar: uni00B2
Encoding: 178 178 114
GlifName: uni00B_2
Width: 312
VWidth: 0
Flags: HMW
LayerCount: 2
Fore
SplineSet
70 283 m 257
 318 483 l 258
 354 513 395 548 411 594 c 256
 429 645 409 700 349 702 c 256
 268 705 216 623 185 560 c 257
 179 560 l 257
 211 626 264 711 349 708 c 256
 412 706 435 649 417 594 c 256
 402 547 361 510 324 479 c 258
 87 289 l 257
 328 288 l 257
 326 282 l 257
 70 283 l 257
EndSplineSet
EndChar

StartChar: uni00B3
Encoding: 179 179 115
GlifName: uni00B_3
Width: 289
VWidth: 0
Flags: HMW
LayerCount: 2
Fore
SplineSet
246 498 m 257
 248 503 l 257
 308 513 377 537 400 600 c 256
 418 649 391 697 338 699 c 256
 273 701 229 649 199 598 c 257
 193 598 l 257
 224 653 269 707 338 705 c 256
 396 703 425 652 406 599 c 256
 382 532 310 507 246 498 c 257
189 275 m 256
 116 276 98 328 108 391 c 257
 114 391 l 257
 105 331 118 282 189 281 c 256
 251 280 319 325 338 385 c 256
 360 454 305 484 247 495 c 257
 248 500 l 257
 310 489 367 457 344 384 c 256
 324 321 254 274 189 275 c 256
EndSplineSet
EndChar

StartChar: acute
Encoding: 180 180 116
GlifName: acute
Width: 332
VWidth: 0
Flags: HMW
LayerCount: 2
Fore
SplineSet
418 690 m 257
 205 537 l 257
 201 542 l 257
 412 698 l 257
 418 690 l 257
EndSplineSet
EndChar

StartChar: mu
Encoding: 181 181 117
GlifName: mu
Width: 446
VWidth: 0
Flags: HMW
LayerCount: 2
Fore
SplineSet
302 0 m 257
 461 459 l 257
 471 459 l 257
 312 0 l 257
 302 0 l 257
86 150 m 258
 66 86 62 2 150 1 c 256
 252 -1 325 96 366 178 c 257
 372 178 l 257
 331 91 256 -11 148 -9 c 256
 53 -8 54 80 76 150 c 258
 184 459 l 257
 194 459 l 257
 86 150 l 258
184 459 m 257
 194 459 l 257
 -75 -319 l 257
 -85 -319 l 257
 184 459 l 257
EndSplineSet
EndChar

StartChar: paragraph
Encoding: 182 182 118
GlifName: paragraph
Width: 421
VWidth: 0
Flags: HMW
LayerCount: 2
Fore
SplineSet
452 690 m 257
 455 700 l 257
 550 700 l 257
 547 690 l 257
 452 690 l 257
541 699 m 257
 551 699 l 257
 235 -219 l 257
 225 -219 l 257
 541 699 l 257
455 700 m 257
 467 699 l 257
 150 -219 l 257
 140 -219 l 257
 455 700 l 257
309 270 m 257
 189 284 127.021 365.993 167 485 c 256
 210 613 325 701 455 700 c 257
 309 270 l 257
EndSplineSet
EndChar

StartChar: periodcentered
Encoding: 183 183 119
GlifName: periodcentered
Width: 227
VWidth: 0
Flags: HMW
LayerCount: 2
Fore
SplineSet
124 221 m 256
 125 225 133 232 138 232 c 256
 143 232 147 226 146 221 c 256
 145 217 137 210 132 210 c 256
 127 210 123 216 124 221 c 256
EndSplineSet
EndChar

StartChar: uni00B9
Encoding: 185 185 120
GlifName: uni00B_9
Width: 442
VWidth: 0
Flags: HMW
LayerCount: 2
Fore
SplineSet
308 667 m 257
 310 674 l 257
 422 697 l 257
 274 275 l 257
 268 275 l 257
 411 688 l 257
 308 667 l 257
EndSplineSet
EndChar

StartChar: cedilla
Encoding: 184 184 121
GlifName: cedilla
Width: 329
VWidth: 0
Flags: HMW
LayerCount: 2
Fore
SplineSet
112 0 m 257
 124 0 l 257
 43 -75 l 257
 65 -65 92 -50 117 -53 c 256
 156 -57 172 -91 162 -127 c 256
 148 -180 82 -220 29 -219 c 256
 -3 -219 -22 -203 -43 -182 c 257
 -35 -176 l 257
 -16 -194 3 -209 31 -209 c 256
 79 -209 139 -174 153 -126 c 256
 162 -96 148 -67 115 -63 c 256
 86 -59 55 -76 29 -87 c 257
 112 0 l 257
EndSplineSet
EndChar

StartChar: questiondown
Encoding: 191 191 122
GlifName: questiondown
Width: 509
VWidth: 0
Flags: HMW
LayerCount: 2
Fore
SplineSet
92 179 m 256
 54 88 108 2 206 1 c 256
 293 0 364 55 425 111 c 257
 433 105 l 257
 370 47 295 -10 205 -9 c 256
 97 -7 48 82 82 180 c 256
 122 295 245 349 357 363 c 257
 416 530 l 257
 423 530 l 257
 370 355 l 257
 370 356 l 257
 185 334 118 241 92 179 c 256
493 699 m 256
 492 695 484 688 479 688 c 256
 474 688 471 694 472 699 c 256
 473 703 481 710 486 710 c 256
 491 710 494 704 493 699 c 256
EndSplineSet
EndChar

StartChar: multiply
Encoding: 215 215 123
GlifName: multiply
Width: 543
VWidth: 0
Flags: HMW
LayerCount: 2
Fore
SplineSet
44 48 m 257
 39 55 l 257
 300 254 l 257
 176 456 l 257
 184 463 l 257
 305 261 l 257
 566 461 l 257
 571 454 l 257
 309 254 l 257
 432 53 l 257
 424 46 l 257
 303 247 l 257
 44 48 l 257
EndSplineSet
EndChar

StartChar: Oslash
Encoding: 216 216 124
GlifName: O_slash
Width: 743
VWidth: 0
Flags: HMW
LayerCount: 2
Fore
SplineSet
123 350 m 256
 70 194 117 4 310 3 c 256
 507 2 676 174 736 350 c 256
 789 506 742 696 549 697 c 256
 352 698 183 526 123 350 c 256
112 350 m 256
 173 532 348 709 550 708 c 256
 748 707 801 512 747 350 c 256
 686 168 511 -9 309 -8 c 256
 111 -7 58 188 112 350 c 256
866 732 m 257
 875 725 l 257
 4 -32 l 257
 -5 -25 l 257
 866 732 l 257
EndSplineSet
EndChar

StartChar: Thorn
Encoding: 222 222 125
GlifName: T_horn
Width: 489
VWidth: 0
Flags: HMW
LayerCount: 2
Fore
SplineSet
261 699 m 257
 271 699 l 257
 29 0 l 257
 20 0 l 257
 261 699 l 257
212 550 m 257
 216 560 l 257
 362 560 l 256
 481 555 556 468 516 350 c 256
 474 226 348 145 220 140 c 256
 72 140 l 257
 76 150 l 257
 222 150 l 256
 342 156 465 234 505 350 c 256
 544 462 473 544 360 550 c 256
 212 550 l 257
EndSplineSet
EndChar

StartChar: divide
Encoding: 247 247 126
GlifName: divide
Width: 586
VWidth: 0
Flags: HMW
LayerCount: 2
Fore
SplineSet
381 451 m 256
 382 455 390 462 395 462 c 256
 400 462 403 456 402 451 c 256
 401 447 393 440 388 440 c 256
 383 440 380 446 381 451 c 256
237 31 m 256
 238 35 246 42 251 42 c 256
 256 42 260 36 259 31 c 256
 258 27 250 20 245 20 c 256
 240 20 236 26 237 31 c 256
82 235 m 257
 86 245 l 257
 556 245 l 257
 553 235 l 257
 82 235 l 257
EndSplineSet
EndChar

StartChar: oslash
Encoding: 248 248 127
GlifName: oslash
Width: 513
VWidth: 0
Flags: HMW
LayerCount: 2
Fore
SplineSet
66 230 m 256
 107 353 230 470 366 469 c 256
 499 468 543 341 506 230 c 256
 465 107 341 -10 205 -9 c 256
 72 -8 29 119 66 230 c 256
76 230 m 256
 40 124 79 2 206 1 c 256
 336 0 456 112 496 230 c 256
 532 336 493 458 366 459 c 256
 236 460 116 348 76 230 c 256
545 492 m 257
 553 485 l 257
 5 -36 l 257
 -2 -29 l 257
 545 492 l 257
EndSplineSet
EndChar

StartChar: circumflex
Encoding: 710 710 128
GlifName: circumflex
Width: 451
VWidth: 0
Flags: HMW
LayerCount: 2
Fore
SplineSet
418 717 m 257
 226 585 l 257
 221 592 l 257
 420 729 l 257
 524 590 l 257
 516 583 l 257
 418 717 l 257
EndSplineSet
EndChar

StartChar: ogonek
Encoding: 731 731 129
GlifName: ogonek
Width: 235
VWidth: 0
Flags: HMW
LayerCount: 2
Fore
SplineSet
110 -174 m 257
 115 -181 l 257
 83 -201 50 -220 11 -219 c 256
 -36 -218 -75 -190 -63 -139 c 256
 -44 -60 63 -20 128 9 c 257
 132 0 l 257
 71 -30 -36 -65 -54 -140 c 256
 -64 -184 -28 -208 12 -209 c 256
 48 -210 80 -192 110 -174 c 257
EndSplineSet
EndChar

StartChar: tilde
Encoding: 732 732 130
GlifName: tilde
Width: 498
VWidth: 0
Flags: HMW
LayerCount: 2
Fore
SplineSet
298 650 m 257
 316 677 337 706 374 706 c 256
 414 706 436 659 477 661 c 256
 506 662 527 688 545 707 c 257
 554 704 l 257
 533 682 508 653 475 653 c 256
 436 653 415 697 376 698 c 256
 343 699 324 673 307 649 c 257
 298 650 l 257
EndSplineSet
EndChar

StartChar: ring
Encoding: 730 730 131
GlifName: ring
Width: 261
VWidth: 0
Flags: HMW
LayerCount: 2
Fore
SplineSet
248 786 m 256
 265 837 323 885 378 884 c 256
 432 883 457 832 441 784 c 256
 424 733 366 685 311 686 c 256
 257 687 232 738 248 786 c 256
257 785 m 256
 243 743 264 698 312 696 c 256
 361 694 417 740 432 785 c 256
 446 827 425 872 377 874 c 256
 328 876 272 830 257 785 c 256
EndSplineSet
EndChar

StartChar: dotaccent
Encoding: 729 729 132
GlifName: dotaccent
Width: 227
VWidth: 0
Flags: HMW
LayerCount: 2
Fore
SplineSet
305 751 m 256
 306 755 314 762 319 762 c 256
 324 762 327 756 326 751 c 256
 325 747 318 740 313 740 c 256
 308 740 304 746 305 751 c 256
EndSplineSet
EndChar

StartChar: uni2010
Encoding: 8208 8208 133
GlifName: uni2010
Width: 197
VWidth: 0
Flags: HMW
LayerCount: 2
Fore
SplineSet
41 265 m 257
 44 275 l 257
 233 275 l 257
 229 265 l 257
 41 265 l 257
EndSplineSet
EndChar

StartChar: endash
Encoding: 8211 8211 134
GlifName: endash
Width: 696
VWidth: 0
Flags: HMW
LayerCount: 2
Fore
SplineSet
102 265 m 257
 105 275 l 257
 670 275 l 257
 667 265 l 257
 102 265 l 257
EndSplineSet
EndChar

StartChar: figuredash
Encoding: 8210 8210 135
GlifName: figuredash
Width: 555
VWidth: 0
Flags: HMW
LayerCount: 2
Fore
SplineSet
102 265 m 257
 105 275 l 257
 529 275 l 257
 526 265 l 257
 102 265 l 257
EndSplineSet
EndChar

StartChar: emdash
Encoding: 8212 8212 136
GlifName: emdash
Width: 837
VWidth: 0
Flags: HMW
LayerCount: 2
Fore
SplineSet
102 265 m 257
 105 275 l 257
 811 275 l 257
 808 265 l 257
 102 265 l 257
EndSplineSet
EndChar

StartChar: minus
Encoding: 8722 8722 137
GlifName: minus
Width: 555
VWidth: 0
Flags: HMW
LayerCount: 2
Fore
SplineSet
102 265 m 257
 105 275 l 257
 529 275 l 257
 526 265 l 257
 102 265 l 257
EndSplineSet
EndChar

StartChar: quoteright
Encoding: 8217 8217 138
GlifName: quoteright
Width: 230
VWidth: 0
Flags: HMW
LayerCount: 2
Fore
SplineSet
349 698 m 257
 361 698 l 257
 189 472 l 257
 179 472 l 257
 349 698 l 257
EndSplineSet
EndChar

StartChar: quoteleft
Encoding: 8216 8216 139
GlifName: quoteleft
Width: 211
VWidth: 0
Flags: HMW
LayerCount: 2
Fore
SplineSet
173 472 m 257
 160 472 l 257
 332 698 l 257
 342 698 l 257
 173 472 l 257
EndSplineSet
EndChar

StartChar: quotesinglbase
Encoding: 8218 8218 140
GlifName: quotesinglbase
Width: 230
VWidth: 0
Flags: HMW
LayerCount: 2
Fore
SplineSet
118 78 m 257
 131 78 l 257
 -41 -148 l 257
 -51 -148 l 257
 118 78 l 257
EndSplineSet
EndChar

StartChar: quotedblleft
Encoding: 8220 8220 141
GlifName: quotedblleft
Width: 362
VWidth: 0
Flags: HMW
LayerCount: 2
Fore
SplineSet
191 472 m 257
 179 472 l 257
 351 698 l 257
 361 698 l 257
 191 472 l 257
323 472 m 257
 311 472 l 257
 482 698 l 257
 493 698 l 257
 323 472 l 257
EndSplineSet
EndChar

StartChar: quotedblright
Encoding: 8221 8221 142
GlifName: quotedblright
Width: 362
VWidth: 0
Flags: HMW
LayerCount: 2
Fore
SplineSet
330 698 m 257
 342 698 l 257
 171 472 l 257
 160 472 l 257
 330 698 l 257
462 698 m 257
 474 698 l 257
 302 472 l 257
 292 472 l 257
 462 698 l 257
EndSplineSet
EndChar

StartChar: perthousand
Encoding: 8240 8240 143
GlifName: perthousand
Width: 1007
VWidth: 0
Flags: HMW
LayerCount: 2
Fore
SplineSet
689 141 m 256
 715 218 794 290 879 289 c 256
 963 288 993 211 969 139 c 256
 943 62 864 -10 779 -9 c 256
 695 -8 665 69 689 141 c 256
699 140 m 256
 676 75 702 1 780 0 c 256
 859 -1 934 68 959 140 c 256
 982 206 955 278 878 279 c 256
 799 280 724 212 699 140 c 256
169 561 m 256
 195 638 274 710 359 709 c 256
 443 708 473 631 449 559 c 256
 423 482 344 410 259 411 c 256
 175 412 145 489 169 561 c 256
179 560 m 256
 156 495 182 421 260 420 c 256
 339 419 414 488 439 560 c 256
 462 626 435 698 358 699 c 256
 279 700 204 632 179 560 c 256
341 141 m 256
 367 218 446 290 531 289 c 256
 615 288 645 211 621 139 c 256
 595 62 516 -10 431 -9 c 256
 347 -8 317 69 341 141 c 256
351 140 m 256
 328 75 353 1 431 0 c 256
 510 -1 586 68 611 140 c 256
 634 206 607 278 530 279 c 256
 451 280 376 212 351 140 c 256
724 698 m 257
 736 698 l 257
 66 0 l 257
 53 0 l 257
 724 698 l 257
EndSplineSet
EndChar

StartChar: guilsinglleft
Encoding: 8249 8249 144
GlifName: guilsinglleft
Width: 305
VWidth: 0
Flags: HMW
LayerCount: 2
Fore
SplineSet
79 255 m 257
 195 27 l 257
 187 20 l 257
 70 257 l 257
 347 488 l 257
 352 481 l 257
 79 255 l 257
EndSplineSet
EndChar

StartChar: guilsinglright
Encoding: 8250 8250 145
GlifName: guilsinglright
Width: 329
VWidth: 0
Flags: HMW
LayerCount: 2
Fore
SplineSet
316 255 m 257
 199 483 l 257
 208 490 l 257
 325 253 l 257
 48 22 l 257
 43 29 l 257
 316 255 l 257
EndSplineSet
EndChar

StartChar: uni2031
Encoding: 8241 8241 146
GlifName: uni2031
Width: 1355
VWidth: 0
Flags: HMW
LayerCount: 2
Fore
SplineSet
1037 141 m 256
 1063 218 1143 290 1228 289 c 256
 1312 288 1341 211 1317 139 c 256
 1291 62 1212 -10 1127 -9 c 256
 1043 -8 1013 69 1037 141 c 256
1047 140 m 256
 1024 75 1050 1 1128 0 c 256
 1207 -1 1283 68 1308 140 c 256
 1331 206 1303 278 1226 279 c 256
 1147 280 1072 212 1047 140 c 256
689 141 m 256
 715 218 794 290 879 289 c 256
 963 288 993 211 969 139 c 256
 943 62 864 -10 779 -9 c 256
 695 -8 665 69 689 141 c 256
699 140 m 256
 676 75 702 1 780 0 c 256
 859 -1 934 68 959 140 c 256
 982 206 955 278 878 279 c 256
 799 280 724 212 699 140 c 256
169 561 m 256
 195 638 274 710 359 709 c 256
 443 708 473 631 449 559 c 256
 423 482 344 410 259 411 c 256
 175 412 145 489 169 561 c 256
179 560 m 256
 156 495 182 421 260 420 c 256
 339 419 414 488 439 560 c 256
 462 626 435 698 358 699 c 256
 279 700 204 632 179 560 c 256
341 141 m 256
 367 218 446 290 531 289 c 256
 615 288 645 211 621 139 c 256
 595 62 516 -10 431 -9 c 256
 347 -8 317 69 341 141 c 256
351 140 m 256
 328 75 353 1 431 0 c 256
 510 -1 586 68 611 140 c 256
 634 206 607 278 530 279 c 256
 451 280 376 212 351 140 c 256
724 698 m 257
 736 698 l 257
 66 0 l 257
 53 0 l 257
 724 698 l 257
EndSplineSet
EndChar

StartChar: uni203D
Encoding: 8253 8253 147
GlifName: uni203D_
Width: 524
VWidth: 0
Flags: HMW
LayerCount: 2
Fore
SplineSet
549 520 m 256
 582 612 536 698 434 699 c 256
 347 700 276 645 215 589 c 257
 208 595 l 257
 271 653 345 710 435 709 c 256
 543 707 593 618 559 520 c 256
 521 412 414 352 306 338 c 257
 300 346 l 257
 405 358 511 415 549 520 c 256
356 509 m 257
 367 509 l 257
 245 171 l 257
 239 171 l 257
 356 509 l 257
175 1 m 256
 176 5 184 12 189 12 c 256
 194 12 198 6 197 1 c 256
 196 -3 188 -10 183 -10 c 256
 178 -10 174 -4 175 1 c 256
EndSplineSet
EndChar

StartChar: Euro
Encoding: 8364 8364 148
GlifName: E_uro
Width: 658
VWidth: 0
Flags: HMW
LayerCount: 2
Fore
SplineSet
168 445 m 257
 171 455 l 257
 643 455 l 257
 640 445 l 257
 168 445 l 257
127 325 m 257
 130 335 l 257
 578 335 l 257
 574 325 l 257
 127 325 l 257
216 350 m 256
 172 221 162 4 349 1 c 256
 405 0 458 21 508 45 c 257
 502 30 l 257
 453 9 402 -10 348 -9 c 256
 153 -7 160 214 206 350 c 256
 261 515 399 709 592 709 c 256
 640 709 681 694 721 670 c 257
 716 655 l 257
 678 684 638 700 590 700 c 256
 402 700 270 510 216 350 c 256
EndSplineSet
EndChar

StartChar: fraction
Encoding: 8260 8260 149
GlifName: fraction
Width: 663
VWidth: 0
Flags: HMW
LayerCount: 2
Fore
SplineSet
780 698 m 257
 793 698 l 257
 13 0 l 257
 1 0 l 257
 780 698 l 257
EndSplineSet
EndChar

StartChar: onequarter
Encoding: 188 188 150
GlifName: onequarter
Width: 709
VWidth: 0
Flags: HMW
LayerCount: 2
Fore
SplineSet
816 698 m 257
 828 698 l 257
 49 0 l 257
 37 0 l 257
 816 698 l 257
193 667 m 257
 195 674 l 257
 307 697 l 257
 159 275 l 257
 153 275 l 257
 296 688 l 257
 193 667 l 257
352 84 m 257
 359 90 l 257
 566 90 l 257
 568 90 l 257
 632 90 l 257
 631 84 l 257
 352 84 l 257
357 86 m 257
 350 86 l 257
 683 417 l 257
 682 419 l 257
 539 0 l 257
 533 0 l 257
 563 85 l 257
 563 88 l 257
 671 397 l 257
 357 86 l 257
EndSplineSet
EndChar

StartChar: onehalf
Encoding: 189 189 151
GlifName: onehalf
Width: 770
VWidth: 0
Flags: HMW
LayerCount: 2
Fore
SplineSet
816 698 m 257
 828 698 l 257
 49 0 l 257
 37 0 l 257
 816 698 l 257
193 667 m 257
 195 674 l 257
 307 697 l 257
 159 275 l 257
 153 275 l 257
 296 688 l 257
 193 667 l 257
413 3 m 257
 661 202 l 258
 697 232 738 267 754 313 c 256
 772 364 752 419 692 422 c 256
 611 425 559 343 528 280 c 257
 522 280 l 257
 554 346 607 431 692 428 c 256
 755 425 779 368 761 313 c 256
 746 266 703 230 666 199 c 258
 430 9 l 257
 671 8 l 257
 669 2 l 257
 413 3 l 257
EndSplineSet
EndChar

StartChar: threequarters
Encoding: 190 190 152
GlifName: threequarters
Width: 771
VWidth: 0
Flags: HMW
LayerCount: 2
Fore
SplineSet
879 698 m 257
 892 698 l 257
 112 0 l 257
 100 0 l 257
 879 698 l 257
251 498 m 257
 253 503 l 257
 313 513 382 537 405 600 c 256
 423 649 395 697 342 699 c 256
 277 701 233 649 203 598 c 257
 197 598 l 257
 228 653 274 707 343 705 c 256
 401 703 430 652 411 599 c 256
 387 532 315 507 251 498 c 257
193 275 m 256
 120 276 102 328 112 391 c 257
 118 391 l 257
 109 331 122 282 193 281 c 256
 255 280 324 325 343 385 c 256
 365 454 309 484 251 495 c 257
 253 500 l 257
 315 489 372 457 349 384 c 256
 329 321 258 274 193 275 c 256
415 84 m 257
 422 90 l 257
 629 90 l 257
 631 90 l 257
 695 90 l 257
 694 84 l 257
 415 84 l 257
421 86 m 257
 413 86 l 257
 746 417 l 257
 745 419 l 257
 602 0 l 257
 596 0 l 257
 626 85 l 257
 627 88 l 257
 734 397 l 257
 421 86 l 257
EndSplineSet
EndChar

StartChar: uni2150
Encoding: 8528 8528 153
GlifName: uni2150
Width: 792
VWidth: 0
Flags: HMW
LayerCount: 2
Fore
SplineSet
769 698 m 257
 781 698 l 257
 2 0 l 257
 -10 0 l 257
 769 698 l 257
193 667 m 257
 195 674 l 257
 307 697 l 257
 159 275 l 257
 153 275 l 257
 296 688 l 257
 193 667 l 257
579 414 m 257
 581 420 l 257
 848 419 l 257
 494 0 l 257
 486 0 l 257
 835 413 l 257
 579 414 l 257
EndSplineSet
EndChar

StartChar: uni2151
Encoding: 8529 8529 154
GlifName: uni2151
Width: 737
VWidth: 0
Flags: HMW
LayerCount: 2
Fore
SplineSet
769 698 m 257
 781 698 l 257
 2 0 l 257
 -10 0 l 257
 769 698 l 257
193 667 m 257
 195 674 l 257
 307 697 l 257
 159 275 l 257
 153 275 l 257
 296 688 l 257
 193 667 l 257
726 290 m 256
 747 350 728 420 655 421 c 256
 582 422 512 356 490 290 c 256
 472 235 493 170 559 167 c 256
 631 164 703 225 726 290 c 256
474 4 m 257
 466 5 l 257
 677 207 l 257
 678 208 l 257
 643 184 603 158 559 160 c 256
 489 162 466 232 485 291 c 256
 507 361 579 429 655 427 c 256
 732 425 754 355 732 290 c 256
 720 254 694 222 668 195 c 258
 474 4 l 257
EndSplineSet
EndChar

StartChar: uni2152
Encoding: 8530 8530 155
GlifName: uni2152
Width: 1016
VWidth: 0
Flags: HMW
LayerCount: 2
Fore
SplineSet
769 698 m 257
 781 698 l 257
 2 0 l 257
 -10 0 l 257
 769 698 l 257
193 667 m 257
 195 674 l 257
 307 697 l 257
 159 275 l 257
 153 275 l 257
 296 688 l 257
 193 667 l 257
488 394 m 257
 490 401 l 257
 601 424 l 257
 454 2 l 257
 448 2 l 257
 591 415 l 257
 488 394 l 257
723 210 m 256
 703 152 668 3 768 1 c 256
 867 -1 931 132 958 210 c 256
 978 268 1014 417 914 419 c 256
 815 421 750 288 723 210 c 256
716 210 m 256
 744 292 810 426 914 425 c 256
 1020 423 987 272 966 210 c 256
 938 128 872 -6 768 -5 c 256
 662 -3 695 148 716 210 c 256
EndSplineSet
EndChar

StartChar: onethird
Encoding: 8531 8531 156
GlifName: onethird
Width: 710
VWidth: 0
Flags: HMW
LayerCount: 2
Fore
SplineSet
769 698 m 257
 781 698 l 257
 2 0 l 257
 -10 0 l 257
 769 698 l 257
193 667 m 257
 195 674 l 257
 307 697 l 257
 159 275 l 257
 153 275 l 257
 296 688 l 257
 193 667 l 257
563 218 m 257
 565 223 l 257
 625 233 694 257 717 320 c 256
 735 369 707 417 654 419 c 256
 589 421 545 369 515 318 c 257
 509 318 l 257
 540 373 585 427 654 425 c 256
 712 423 742 372 723 319 c 256
 699 252 627 227 563 218 c 257
505 -5 m 256
 432 -4 414 48 424 111 c 257
 430 111 l 257
 421 51 434 2 505 1 c 256
 567 0 636 45 655 105 c 256
 677 174 621 204 563 215 c 257
 565 220 l 257
 627 209 684 177 661 104 c 256
 641 41 570 -6 505 -5 c 256
EndSplineSet
EndChar

StartChar: twothirds
Encoding: 8532 8532 157
GlifName: twothirds
Width: 829
VWidth: 0
Flags: HMW
LayerCount: 2
Fore
SplineSet
889 698 m 257
 901 698 l 257
 121 0 l 257
 109 0 l 257
 889 698 l 257
73 283 m 257
 321 483 l 258
 357 513 398 548 414 594 c 256
 432 645 412 700 352 702 c 256
 271 705 219 623 188 560 c 257
 182 560 l 257
 214 626 267 711 352 708 c 256
 415 706 438 649 420 594 c 256
 405 547 363 510 326 479 c 258
 90 289 l 257
 331 288 l 257
 329 282 l 257
 73 283 l 257
682 218 m 257
 684 223 l 257
 744 233 813 257 836 320 c 256
 854 369 827 417 774 419 c 256
 709 421 665 369 635 318 c 257
 629 318 l 257
 660 373 705 427 774 425 c 256
 832 423 861 372 842 319 c 256
 818 252 746 227 682 218 c 257
625 -5 m 256
 552 -4 534 48 544 111 c 257
 550 111 l 257
 541 51 554 2 625 1 c 256
 687 0 755 45 774 105 c 256
 796 174 741 204 683 215 c 257
 684 220 l 257
 746 209 803 177 780 104 c 256
 760 41 690 -6 625 -5 c 256
EndSplineSet
EndChar

StartChar: uni2155
Encoding: 8533 8533 158
GlifName: uni2155
Width: 700
VWidth: 0
Flags: HMW
LayerCount: 2
Fore
SplineSet
769 698 m 257
 781 698 l 257
 2 0 l 257
 -10 0 l 257
 769 698 l 257
193 667 m 257
 195 674 l 257
 307 697 l 257
 159 275 l 257
 153 275 l 257
 296 688 l 257
 193 667 l 257
636 135 m 256
 612 62 540 -8 459 -7 c 256
 402 -7 381 30 371 80 c 257
 376 83 l 257
 386 35 405 0 459 -1 c 256
 537 -2 607 66 630 136 c 256
 648 190 633 256 566 259 c 256
 513 262 466 226 426 196 c 257
 442 214 l 257
 473 244 522 267 566 265 c 256
 637 262 655 193 636 135 c 256
559 411 m 257
 441 214 l 257
 425 196 l 257
 556 417 l 257
 742 418 l 257
 740 412 l 257
 559 411 l 257
EndSplineSet
EndChar

StartChar: uni2156
Encoding: 8534 8534 159
GlifName: uni2156
Width: 819
VWidth: 0
Flags: HMW
LayerCount: 2
Fore
SplineSet
889 698 m 257
 901 698 l 257
 121 0 l 257
 109 0 l 257
 889 698 l 257
73 283 m 257
 321 483 l 258
 357 513 398 548 414 594 c 256
 432 645 412 700 352 702 c 256
 271 705 219 623 188 560 c 257
 182 560 l 257
 214 626 267 711 352 708 c 256
 415 706 438 649 420 594 c 256
 405 547 363 510 326 479 c 258
 90 289 l 257
 331 288 l 257
 329 282 l 257
 73 283 l 257
755 135 m 256
 731 62 660 -8 579 -7 c 256
 522 -7 500 30 490 80 c 257
 496 83 l 257
 506 35 525 0 579 -1 c 256
 657 -2 726 66 749 136 c 256
 767 190 753 256 686 259 c 256
 633 262 586 226 546 196 c 257
 561 214 l 257
 592 244 642 267 686 265 c 256
 757 262 774 193 755 135 c 256
678 411 m 257
 561 214 l 257
 544 196 l 257
 675 417 l 257
 861 418 l 257
 859 412 l 257
 678 411 l 257
EndSplineSet
EndChar

StartChar: uni2157
Encoding: 8535 8535 160
GlifName: uni2157
Width: 781
VWidth: 0
Flags: HMW
LayerCount: 2
Fore
SplineSet
851 698 m 257
 863 698 l 257
 84 0 l 257
 71 0 l 257
 851 698 l 257
251 498 m 257
 253 503 l 257
 313 513 382 537 405 600 c 256
 423 649 395 697 342 699 c 256
 277 701 233 649 203 598 c 257
 197 598 l 257
 228 653 274 707 343 705 c 256
 401 703 430 652 411 599 c 256
 387 532 315 507 251 498 c 257
193 275 m 256
 120 276 102 328 112 391 c 257
 118 391 l 257
 109 331 122 282 193 281 c 256
 255 280 324 325 343 385 c 256
 365 454 309 484 251 495 c 257
 253 500 l 257
 315 489 372 457 349 384 c 256
 329 321 258 274 193 275 c 256
718 135 m 256
 694 62 622 -8 541 -7 c 256
 484 -7 463 30 453 80 c 257
 458 83 l 257
 468 35 487 0 541 -1 c 256
 619 -2 689 66 712 136 c 256
 730 190 715 256 648 259 c 256
 595 262 548 226 508 196 c 257
 524 214 l 257
 555 244 604 267 648 265 c 256
 719 262 737 193 718 135 c 256
640 411 m 257
 523 214 l 257
 507 196 l 257
 638 417 l 257
 824 418 l 257
 822 412 l 257
 640 411 l 257
EndSplineSet
EndChar

StartChar: uni2158
Encoding: 8536 8536 161
GlifName: uni2158
Width: 814
VWidth: 0
Flags: HMW
LayerCount: 2
Fore
SplineSet
884 698 m 257
 896 698 l 257
 117 0 l 257
 104 0 l 257
 884 698 l 257
103 364 m 257
 110 370 l 257
 317 370 l 257
 319 370 l 257
 384 370 l 257
 382 364 l 257
 103 364 l 257
109 366 m 257
 101 366 l 257
 435 699 l 257
 436 699 l 257
 290 281 l 257
 283 281 l 257
 314 365 l 257
 314 368 l 257
 422 677 l 257
 109 366 l 257
751 135 m 256
 727 62 655 -8 574 -7 c 256
 517 -7 496 30 486 80 c 257
 491 83 l 257
 501 35 520 0 574 -1 c 256
 652 -2 721 66 744 136 c 256
 762 190 748 256 681 259 c 256
 628 262 581 226 541 196 c 257
 556 214 l 257
 587 244 637 267 681 265 c 256
 752 262 770 193 751 135 c 256
673 411 m 257
 556 214 l 257
 540 196 l 257
 671 417 l 257
 856 418 l 257
 855 412 l 257
 673 411 l 257
EndSplineSet
EndChar

StartChar: uni2159
Encoding: 8537 8537 162
GlifName: uni2159
Width: 690
VWidth: 0
Flags: HMW
LayerCount: 2
Fore
SplineSet
769 698 m 257
 781 698 l 257
 2 0 l 257
 -10 0 l 257
 769 698 l 257
193 667 m 257
 195 674 l 257
 307 697 l 257
 159 275 l 257
 153 275 l 257
 296 688 l 257
 193 667 l 257
398 130 m 256
 377 70 397 0 470 -1 c 256
 543 -2 612 64 634 130 c 256
 652 185 632 250 566 253 c 256
 494 256 421 195 398 130 c 256
650 416 m 257
 659 415 l 257
 448 213 l 257
 447 212 l 257
 482 236 521 262 566 260 c 256
 636 258 659 188 640 129 c 256
 618 59 547 -9 470 -7 c 256
 393 -5 370 65 392 130 c 256
 404 166 431 198 457 225 c 258
 650 416 l 257
EndSplineSet
EndChar

StartChar: uni215A
Encoding: 8538 8538 163
GlifName: uni215A_
Width: 805
VWidth: 0
Flags: HMW
LayerCount: 2
Fore
SplineSet
884 698 m 257
 896 698 l 257
 117 0 l 257
 104 0 l 257
 884 698 l 257
366 415 m 256
 342 342 271 272 190 273 c 256
 133 273 111 310 101 360 c 257
 107 363 l 257
 117 315 136 280 190 279 c 256
 268 278 337 346 360 416 c 256
 378 470 364 536 297 539 c 256
 244 542 197 506 157 476 c 257
 172 494 l 257
 203 524 253 547 297 545 c 256
 368 542 385 473 366 415 c 256
289 691 m 257
 172 494 l 257
 155 476 l 257
 286 697 l 257
 472 698 l 257
 470 692 l 257
 289 691 l 257
513 130 m 256
 492 70 511 0 584 -1 c 256
 657 -2 727 64 749 130 c 256
 767 185 747 250 681 253 c 256
 609 256 536 195 513 130 c 256
765 416 m 257
 774 415 l 257
 562 213 l 257
 561 212 l 257
 596 236 636 262 681 260 c 256
 751 258 774 188 755 129 c 256
 733 59 661 -9 584 -7 c 256
 507 -5 485 65 507 130 c 256
 519 166 545 198 571 225 c 258
 765 416 l 257
EndSplineSet
EndChar

StartChar: oneeighth
Encoding: 8539 8539 164
GlifName: oneeighth
Width: 715
VWidth: 0
Flags: HMW
LayerCount: 2
Fore
SplineSet
769 698 m 257
 781 698 l 257
 2 0 l 257
 -10 0 l 257
 769 698 l 257
193 667 m 257
 195 674 l 257
 307 697 l 257
 159 275 l 257
 153 275 l 257
 296 688 l 257
 193 667 l 257
512 326 m 256
 529 377 590 426 645 425 c 256
 699 424 726 372 710 324 c 256
 693 273 631 220 576 222 c 256
 522 223 497 279 512 326 c 256
518 326 m 256
 503 283 525 228 575 226 c 256
 626 224 688 277 704 324 c 256
 719 370 696 417 645 419 c 256
 593 421 534 374 518 326 c 256
428 112 m 256
 448 169 514 223 576 222 c 256
 637 221 664 164 648 110 c 256
 630 49 563 -7 498 -5 c 256
 433 -3 408 55 428 112 c 256
434 111 m 256
 415 58 436 3 498 1 c 256
 560 -1 624 53 642 111 c 256
 658 161 634 216 576 218 c 256
 516 220 454 165 434 111 c 256
EndSplineSet
EndChar

StartChar: threeeighths
Encoding: 8540 8540 165
GlifName: threeeighths
Width: 796
VWidth: 0
Flags: HMW
LayerCount: 2
Fore
SplineSet
851 698 m 257
 863 698 l 257
 84 0 l 257
 71 0 l 257
 851 698 l 257
251 498 m 257
 253 503 l 257
 313 513 382 537 405 600 c 256
 423 649 395 697 342 699 c 256
 277 701 233 649 203 598 c 257
 197 598 l 257
 228 653 274 707 343 705 c 256
 401 703 430 652 411 599 c 256
 387 532 315 507 251 498 c 257
193 275 m 256
 120 276 102 328 112 391 c 257
 118 391 l 257
 109 331 122 282 193 281 c 256
 255 280 324 325 343 385 c 256
 365 454 309 484 251 495 c 257
 253 500 l 257
 315 489 372 457 349 384 c 256
 329 321 258 274 193 275 c 256
594 326 m 256
 611 377 672 426 727 425 c 256
 781 424 808 372 792 324 c 256
 775 273 713 220 658 222 c 256
 604 223 579 279 594 326 c 256
600 326 m 256
 585 283 607 228 657 226 c 256
 708 224 770 277 786 324 c 256
 801 370 778 417 727 419 c 256
 675 421 616 374 600 326 c 256
510 112 m 256
 530 169 596 223 658 222 c 256
 719 221 746 164 730 110 c 256
 712 49 645 -7 580 -5 c 256
 515 -3 490 55 510 112 c 256
516 111 m 256
 497 58 518 2 580 1 c 256
 642 -1 706 53 724 111 c 256
 740 161 716 216 658 218 c 256
 598 220 536 165 516 111 c 256
EndSplineSet
EndChar

StartChar: fiveeighths
Encoding: 8541 8541 166
GlifName: fiveeighths
Width: 829
VWidth: 0
Flags: HMW
LayerCount: 2
Fore
SplineSet
884 698 m 257
 896 698 l 257
 117 0 l 257
 104 0 l 257
 884 698 l 257
366 415 m 256
 342 342 271 272 190 273 c 256
 133 273 111 310 101 360 c 257
 107 363 l 257
 117 315 136 280 190 279 c 256
 268 278 337 346 360 416 c 256
 378 470 364 536 297 539 c 256
 244 542 197 506 157 476 c 257
 172 494 l 257
 203 524 253 547 297 545 c 256
 368 542 385 473 366 415 c 256
289 691 m 257
 172 494 l 257
 155 476 l 257
 286 697 l 257
 472 698 l 257
 470 692 l 257
 289 691 l 257
627 326 m 256
 644 377 705 426 760 425 c 256
 814 424 841 372 825 324 c 256
 808 273 745 220 690 222 c 256
 636 223 612 279 627 326 c 256
633 326 m 256
 618 283 640 228 690 226 c 256
 741 224 803 277 819 324 c 256
 834 370 811 417 760 419 c 256
 708 421 649 374 633 326 c 256
543 112 m 256
 563 169 628 223 690 222 c 256
 751 221 779 164 763 110 c 256
 745 49 678 -7 613 -5 c 256
 548 -3 523 55 543 112 c 256
549 111 m 256
 530 58 551 2 613 1 c 256
 675 -1 739 53 757 111 c 256
 773 161 749 216 691 218 c 256
 631 220 569 165 549 111 c 256
EndSplineSet
EndChar

StartChar: seveneighths
Encoding: 8542 8542 167
GlifName: seveneighths
Width: 726
VWidth: 0
Flags: HMW
LayerCount: 2
Fore
SplineSet
780 698 m 257
 793 698 l 257
 13 0 l 257
 1 0 l 257
 780 698 l 257
216 694 m 257
 217 700 l 257
 484 699 l 257
 130 282 l 257
 123 282 l 257
 471 693 l 257
 216 694 l 257
523 326 m 256
 540 377 601 426 656 425 c 256
 710 424 737 372 721 324 c 256
 704 273 642 220 587 222 c 256
 533 223 508 279 523 326 c 256
529 326 m 256
 514 283 537 228 587 226 c 256
 638 224 699 277 715 324 c 256
 730 370 707 417 656 419 c 256
 604 421 545 374 529 326 c 256
439 112 m 256
 459 169 525 223 587 222 c 256
 648 221 675 164 659 110 c 256
 641 49 575 -7 510 -5 c 256
 445 -3 419 55 439 112 c 256
445 111 m 256
 426 58 448 3 510 1 c 256
 572 -1 635 53 653 111 c 256
 669 161 646 216 588 218 c 256
 528 220 465 165 445 111 c 256
EndSplineSet
EndChar

StartChar: uni2074
Encoding: 8308 8308 168
GlifName: uni2074
Width: 349
VWidth: 0
Flags: HMW
LayerCount: 2
Fore
SplineSet
103 364 m 257
 110 370 l 257
 317 370 l 257
 319 370 l 257
 384 370 l 257
 382 364 l 257
 103 364 l 257
109 366 m 257
 101 366 l 257
 435 699 l 257
 436 699 l 257
 290 281 l 257
 283 281 l 257
 314 365 l 257
 314 368 l 257
 422 677 l 257
 109 366 l 257
EndSplineSet
EndChar

StartChar: uni2075
Encoding: 8309 8309 169
GlifName: uni2075
Width: 320
VWidth: 0
Flags: HMW
LayerCount: 2
Fore
SplineSet
366 415 m 256
 342 342 271 272 190 273 c 256
 133 273 111 310 101 360 c 257
 107 363 l 257
 117 315 136 280 190 279 c 256
 268 278 337 346 360 416 c 256
 378 470 364 536 297 539 c 256
 244 542 197 506 157 476 c 257
 172 494 l 257
 203 524 253 547 297 545 c 256
 368 542 385 473 366 415 c 256
289 691 m 257
 172 494 l 257
 155 476 l 257
 286 697 l 257
 472 698 l 257
 470 692 l 257
 289 691 l 257
EndSplineSet
EndChar

StartChar: uni2076
Encoding: 8310 8310 170
GlifName: uni2076
Width: 312
VWidth: 0
Flags: HMW
LayerCount: 2
Fore
SplineSet
129 410 m 256
 108 350 127 280 200 279 c 256
 273 278 343 344 365 410 c 256
 383 465 363 530 297 533 c 256
 225 536 152 475 129 410 c 256
381 696 m 257
 389 695 l 257
 178 493 l 257
 177 492 l 257
 212 516 251 542 296 540 c 256
 366 538 389 468 370 409 c 256
 348 339 277 271 200 273 c 256
 123 275 101 345 123 410 c 256
 135 446 161 478 187 505 c 258
 381 696 l 257
EndSplineSet
EndChar

StartChar: uni2077
Encoding: 8311 8311 171
GlifName: uni2077
Width: 331
VWidth: 0
Flags: HMW
LayerCount: 2
Fore
SplineSet
216 694 m 257
 217 700 l 257
 484 699 l 257
 130 282 l 257
 123 282 l 257
 471 693 l 257
 216 694 l 257
EndSplineSet
EndChar

StartChar: uni2078
Encoding: 8312 8312 172
GlifName: uni2078
Width: 284
VWidth: 0
Flags: HMW
LayerCount: 2
Fore
SplineSet
196 606 m 256
 213 657 274 706 329 705 c 256
 383 704 409 652 393 604 c 256
 376 553 314 500 259 502 c 256
 205 503 181 559 196 606 c 256
201 606 m 256
 186 563 209 508 259 506 c 256
 310 504 371 557 387 604 c 256
 402 650 379 697 328 699 c 256
 276 701 217 654 201 606 c 256
111 392 m 256
 131 449 197 503 259 502 c 256
 320 501 347 444 331 390 c 256
 313 329 247 273 182 275 c 256
 117 277 91 335 111 392 c 256
117 391 m 256
 98 338 120 282 182 281 c 256
 244 279 307 333 325 391 c 256
 341 441 318 496 260 498 c 256
 200 500 137 445 117 391 c 256
EndSplineSet
EndChar

StartChar: uni2079
Encoding: 8313 8313 173
GlifName: uni2079
Width: 312
VWidth: 0
Flags: HMW
LayerCount: 2
Fore
SplineSet
410 570 m 256
 431 630 411 700 338 701 c 256
 265 702 196 636 174 570 c 256
 156 515 176 450 242 447 c 256
 314 444 387 505 410 570 c 256
158 284 m 257
 150 285 l 257
 360 487 l 257
 361 488 l 257
 326 464 287 438 243 440 c 256
 173 442 149 512 168 571 c 256
 190 641 262 709 338 707 c 256
 415 705 438 635 416 570 c 256
 404 534 377 502 351 475 c 258
 158 284 l 257
EndSplineSet
EndChar

StartChar: uni2070
Encoding: 8304 8304 174
GlifName: uni2070
Width: 304
VWidth: 0
Flags: HMW
LayerCount: 2
Fore
SplineSet
152 490 m 256
 132 432 97 283 197 281 c 256
 296 279 361 412 388 490 c 256
 408 548 443 697 343 699 c 256
 244 701 179 568 152 490 c 256
145 490 m 256
 173 572 239 706 343 705 c 256
 449 703 416 552 395 490 c 256
 367 408 301 274 197 275 c 256
 91 277 124 428 145 490 c 256
EndSplineSet
EndChar

StartChar: uni2080
Encoding: 8320 8320 175
GlifName: uni2080
Width: 314
VWidth: 0
Flags: HMW
LayerCount: 2
Fore
SplineSet
57 210 m 256
 37 152 1 3 101 1 c 256
 200 -1 265 132 292 210 c 256
 312 268 348 417 248 419 c 256
 149 421 84 288 57 210 c 256
50 210 m 256
 78 292 143 426 247 425 c 256
 353 423 320 272 299 210 c 256
 271 128 206 -6 102 -5 c 256
 -4 -3 29 148 50 210 c 256
EndSplineSet
EndChar

StartChar: uni2084
Encoding: 8324 8324 176
GlifName: uni2084
Width: 349
VWidth: 0
Flags: HMW
LayerCount: 2
Fore
SplineSet
7 84 m 257
 14 90 l 257
 221 90 l 257
 223 90 l 257
 288 90 l 257
 286 84 l 257
 7 84 l 257
13 86 m 257
 6 86 l 257
 339 419 l 257
 341 419 l 257
 195 0 l 257
 188 0 l 257
 218 85 l 257
 219 88 l 257
 327 397 l 257
 13 86 l 257
EndSplineSet
EndChar

StartChar: uni2085
Encoding: 8325 8325 177
GlifName: uni2085
Width: 320
VWidth: 0
Flags: HMW
LayerCount: 2
Fore
SplineSet
271 135 m 256
 247 62 175 -8 94 -7 c 256
 37 -7 16 30 6 80 c 257
 11 83 l 257
 21 35 40 0 94 -1 c 256
 172 -2 242 66 265 136 c 256
 283 190 268 256 201 259 c 256
 148 262 101 226 61 196 c 257
 77 214 l 257
 108 244 157 267 201 265 c 256
 272 262 290 193 271 135 c 256
193 411 m 257
 76 214 l 257
 60 196 l 257
 191 417 l 257
 377 418 l 257
 375 412 l 257
 193 411 l 257
EndSplineSet
EndChar

StartChar: uni2086
Encoding: 8326 8326 178
GlifName: uni2086
Width: 312
VWidth: 0
Flags: HMW
LayerCount: 2
Fore
SplineSet
33 130 m 256
 12 70 31 0 104 -1 c 256
 177 -2 247 64 269 130 c 256
 287 185 267 250 201 253 c 256
 129 256 56 195 33 130 c 256
285 416 m 257
 294 415 l 257
 82 213 l 257
 81 212 l 257
 116 236 156 262 201 260 c 256
 271 258 294 188 275 129 c 256
 253 59 181 -9 104 -7 c 256
 27 -5 5 65 27 130 c 256
 39 166 66 198 92 225 c 258
 285 416 l 257
EndSplineSet
EndChar

StartChar: uni2087
Encoding: 8327 8327 179
GlifName: uni2087
Width: 331
VWidth: 0
Flags: HMW
LayerCount: 2
Fore
SplineSet
120 414 m 257
 122 420 l 257
 389 419 l 257
 34 0 l 257
 27 0 l 257
 375 413 l 257
 120 414 l 257
EndSplineSet
EndChar

StartChar: uni2088
Encoding: 8328 8328 180
GlifName: uni2088
Width: 284
VWidth: 0
Flags: HMW
LayerCount: 2
Fore
SplineSet
100 326 m 256
 117 377 178 426 233 425 c 256
 287 424 314 372 298 324 c 256
 281 273 219 220 164 222 c 256
 110 223 85 279 100 326 c 256
106 326 m 256
 91 283 113 228 163 226 c 256
 214 224 276 277 292 324 c 256
 307 370 284 417 233 419 c 256
 181 421 122 374 106 326 c 256
16 112 m 256
 36 169 102 223 164 222 c 256
 225 221 252 164 236 110 c 256
 218 49 151 -7 86 -5 c 256
 21 -3 -4 55 16 112 c 256
22 111 m 256
 3 58 24 2 86 1 c 256
 148 -1 212 53 230 111 c 256
 246 161 222 216 164 218 c 256
 104 220 42 165 22 111 c 256
EndSplineSet
EndChar

StartChar: uni2089
Encoding: 8329 8329 181
GlifName: uni2089
Width: 312
VWidth: 0
Flags: HMW
LayerCount: 2
Fore
SplineSet
314 290 m 256
 335 350 316 420 243 421 c 256
 170 422 100 356 78 290 c 256
 60 235 81 170 147 167 c 256
 219 164 291 225 314 290 c 256
62 4 m 257
 54 5 l 257
 265 207 l 257
 266 208 l 257
 231 184 191 158 147 160 c 256
 77 162 53 232 72 291 c 256
 94 361 167 429 243 427 c 256
 320 425 342 355 320 290 c 256
 308 254 282 222 256 195 c 258
 62 4 l 257
EndSplineSet
EndChar

StartChar: uni2081
Encoding: 8321 8321 182
GlifName: uni2081
Width: 270
VWidth: 0
Flags: HMW
LayerCount: 2
Fore
SplineSet
170 394 m 257
 172 401 l 257
 283 424 l 257
 136 2 l 257
 130 2 l 257
 273 415 l 257
 170 394 l 257
EndSplineSet
EndChar

StartChar: uni2082
Encoding: 8322 8322 183
GlifName: uni2082
Width: 312
VWidth: 0
Flags: HMW
LayerCount: 2
Fore
SplineSet
-26 3 m 257
 223 203 l 258
 259 233 300 268 316 314 c 256
 334 365 313 420 253 422 c 256
 172 425 121 343 90 280 c 257
 84 280 l 257
 116 346 168 431 253 428 c 256
 316 426 340 369 322 314 c 256
 307 267 265 230 228 199 c 258
 -8 9 l 257
 233 8 l 257
 231 2 l 257
 -26 3 l 257
EndSplineSet
EndChar

StartChar: uni2083
Encoding: 8323 8323 184
GlifName: uni2083
Width: 299
VWidth: 0
Flags: HMW
LayerCount: 2
Fore
SplineSet
151 218 m 257
 152 223 l 257
 212 233 282 257 305 320 c 256
 323 369 295 417 242 419 c 256
 177 421 133 369 103 318 c 257
 97 318 l 257
 128 373 173 427 242 425 c 256
 300 423 330 372 311 319 c 256
 287 252 215 227 151 218 c 257
93 -5 m 256
 20 -4 2 48 12 111 c 257
 18 111 l 257
 9 51 22 2 93 1 c 256
 155 0 224 45 243 105 c 256
 265 174 209 204 151 215 c 257
 153 220 l 257
 215 209 272 177 249 104 c 256
 229 41 158 -6 93 -5 c 256
EndSplineSet
EndChar

StartChar: Agrave
Encoding: 192 192 185
GlifName: A_grave
Width: 564
VWidth: 0
Flags: HMW
LayerCount: 2
Fore
SplineSet
158 272 m 257
 161 282 l 257
 486 282 l 257
 483 272 l 257
 158 272 l 257
465 688 m 257
 169 277 l 257
 167 273 l 257
 -30 0 l 257
 -42 0 l 257
 473 715 l 257
 496 0 l 257
 484 0 l 257
 478 273 l 257
 478 276 l 257
 465 688 l 257
417 932 m 257
 427 939 l 257
 535 780 l 257
 530 776 l 257
 417 932 l 257
EndSplineSet
EndChar

StartChar: Aacute
Encoding: 193 193 186
GlifName: A_acute
Width: 564
VWidth: 0
Flags: HMW
LayerCount: 2
Fore
SplineSet
158 272 m 257
 161 282 l 257
 486 282 l 257
 483 272 l 257
 158 272 l 257
465 688 m 257
 169 277 l 257
 167 273 l 257
 -30 0 l 257
 -42 0 l 257
 473 715 l 257
 496 0 l 257
 484 0 l 257
 478 273 l 257
 478 276 l 257
 465 688 l 257
675 930 m 257
 456 777 l 257
 454 782 l 257
 670 938 l 257
 675 930 l 257
EndSplineSet
EndChar

StartChar: Acircumflex
Encoding: 194 194 187
GlifName: A_circumflex
Width: 564
VWidth: 0
Flags: HMW
LayerCount: 2
Fore
SplineSet
158 272 m 257
 161 282 l 257
 486 282 l 257
 483 272 l 257
 158 272 l 257
465 688 m 257
 169 277 l 257
 167 273 l 257
 -30 0 l 257
 -42 0 l 257
 473 715 l 257
 496 0 l 257
 484 0 l 257
 478 273 l 257
 478 276 l 257
 465 688 l 257
540 909 m 257
 348 777 l 257
 343 784 l 257
 542 921 l 257
 646 782 l 257
 638 775 l 257
 540 909 l 257
EndSplineSet
EndChar

StartChar: Atilde
Encoding: 195 195 188
GlifName: A_tilde
Width: 564
VWidth: 0
Flags: HMW
LayerCount: 2
Fore
SplineSet
158 272 m 257
 161 282 l 257
 486 282 l 257
 483 272 l 257
 158 272 l 257
465 688 m 257
 169 277 l 257
 167 273 l 257
 -30 0 l 257
 -42 0 l 257
 473 715 l 257
 496 -0 l 257
 484 0 l 257
 478 273 l 257
 478 276 l 257
 465 688 l 257
380 797 m 257
 399 824 421 853 458 853 c 256
 508 853 519 806 559 808 c 256
 588 809 610 835 629 854 c 257
 639 851 l 257
 618 829 591 800 558 800 c 256
 509 800 498 846 459 845 c 256
 427 844 408 819 390 796 c 257
 380 797 l 257
EndSplineSet
EndChar

StartChar: Adieresis
Encoding: 196 196 189
GlifName: A_dieresis
Width: 564
VWidth: 0
Flags: HMW
LayerCount: 2
Fore
SplineSet
158 272 m 257
 161 282 l 257
 486 282 l 257
 483 272 l 257
 158 272 l 257
465 688 m 257
 169 277 l 257
 167 273 l 257
 -30 0 l 257
 -42 0 l 257
 473 715 l 257
 496 0 l 257
 484 0 l 257
 478 273 l 257
 478 276 l 257
 465 688 l 257
587 806 m 256
 588 810 596 817 601 817 c 256
 606 817 609 811 608 806 c 256
 607 802 599 795 594 795 c 256
 589 795 586 801 587 806 c 256
398 806 m 256
 399 810 407 817 412 817 c 256
 417 817 421 811 420 806 c 256
 419 802 411 795 406 795 c 256
 401 795 397 801 398 806 c 256
EndSplineSet
EndChar

StartChar: Aring
Encoding: 197 197 190
GlifName: A_ring
Width: 564
VWidth: 0
Flags: HMW
LayerCount: 2
Fore
SplineSet
158 272 m 257
 161 282 l 257
 486 282 l 257
 483 272 l 257
 158 272 l 257
465 688 m 257
 169 277 l 257
 167 273 l 257
 -30 0 l 257
 -42 0 l 257
 473 715 l 257
 496 0 l 257
 484 0 l 257
 478 273 l 257
 478 276 l 257
 465 688 l 257
407 809 m 256
 424 860 483 908 538 907 c 256
 592 906 617 855 601 807 c 256
 584 756 525 708 470 709 c 256
 416 710 391 761 407 809 c 256
417 808 m 256
 403 766 424 721 472 719 c 256
 521 717 576 763 591 808 c 256
 605 850 584 895 536 897 c 256
 487 899 432 853 417 808 c 256
EndSplineSet
EndChar

StartChar: AE
Encoding: 198 198 191
GlifName: A_E_
Width: 843
VWidth: 0
Flags: HMW
LayerCount: 2
Fore
SplineSet
236 280 m 257
 239 290 l 257
 513 290 l 257
 509 280 l 257
 236 280 l 257
641 700 m 257
 655 698 l 257
 -38 0 l 257
 -51 0 l 257
 641 700 l 257
413 0 m 257
 417 10 l 257
 717 10 l 257
 714 0 l 257
 413 0 l 257
653 690 m 257
 641 700 l 257
 953 700 l 257
 949 690 l 257
 653 690 l 257
544 384 m 257
 548 394 l 257
 829 394 l 257
 826 384 l 257
 544 384 l 257
647 699 m 257
 658 699 l 257
 416 0 l 257
 405 0 l 257
 647 699 l 257
EndSplineSet
EndChar

StartChar: Ccedilla
Encoding: 199 199 192
GlifName: C_cedilla
Width: 644
VWidth: 0
Flags: HMW
LayerCount: 2
Fore
SplineSet
124 350 m 256
 72 197 113 8 304 5 c 256
 393 4 473 39 546 86 c 257
 540 71 l 257
 467 26 389 -8 302 -7 c 256
 104 -5 58 190 112 350 c 256
 173 532 342 706 544 708 c 256
 619 709 679 683 730 629 c 257
 725 614 l 257
 678 672 616 697 542 696 c 256
 346 694 184 525 124 350 c 256
298 -2 m 257
 310 -2 l 257
 229 -76 l 257
 251 -66 278 -51 303 -54 c 256
 342 -58 358 -92 348 -128 c 256
 334 -181 268 -221 215 -220 c 256
 183 -220 164 -204 143 -183 c 257
 151 -177 l 257
 170 -195 189 -210 217 -210 c 256
 265 -210 324 -175 338 -127 c 256
 347 -97 334 -68 301 -64 c 256
 272 -60 241 -77 215 -88 c 257
 298 -2 l 257
EndSplineSet
EndChar

StartChar: Egrave
Encoding: 200 200 193
GlifName: E_grave
Width: 479
VWidth: 0
Flags: HMW
LayerCount: 2
Fore
SplineSet
32 0 m 257
 35 10 l 257
 354 10 l 257
 351 0 l 257
 32 0 l 257
268 690 m 257
 271 700 l 257
 589 700 l 257
 586 690 l 257
 268 690 l 257
163 384 m 257
 167 394 l 257
 466 394 l 257
 463 384 l 257
 163 384 l 257
270 699 m 257
 281 699 l 257
 40 0 l 257
 29 0 l 257
 270 699 l 257
359 925 m 257
 368 932 l 257
 476 773 l 257
 471 769 l 257
 359 925 l 257
EndSplineSet
EndChar

StartChar: Eacute
Encoding: 201 201 194
GlifName: E_acute
Width: 479
VWidth: 0
Flags: HMW
LayerCount: 2
Fore
SplineSet
32 0 m 257
 35 10 l 257
 354 10 l 257
 351 0 l 257
 32 0 l 257
268 690 m 257
 271 700 l 257
 589 700 l 257
 586 690 l 257
 268 690 l 257
163 384 m 257
 167 394 l 257
 466 394 l 257
 463 384 l 257
 163 384 l 257
270 699 m 257
 281 699 l 257
 40 0 l 257
 29 0 l 257
 270 699 l 257
654 923 m 257
 435 770 l 257
 432 775 l 257
 649 931 l 257
 654 923 l 257
EndSplineSet
EndChar

StartChar: Ecircumflex
Encoding: 202 202 195
GlifName: E_circumflex
Width: 479
VWidth: 0
Flags: HMW
LayerCount: 2
Fore
SplineSet
32 0 m 257
 35 10 l 257
 354 10 l 257
 351 0 l 257
 32 0 l 257
268 690 m 257
 271 700 l 257
 589 700 l 257
 586 690 l 257
 268 690 l 257
163 384 m 257
 167 394 l 257
 466 394 l 257
 463 384 l 257
 163 384 l 257
270 699 m 257
 281 699 l 257
 40 0 l 257
 29 0 l 257
 270 699 l 257
500 902 m 257
 308 770 l 257
 303 777 l 257
 502 914 l 257
 606 775 l 257
 598 768 l 257
 500 902 l 257
EndSplineSet
EndChar

StartChar: Edieresis
Encoding: 203 203 196
GlifName: E_dieresis
Width: 479
VWidth: 0
Flags: HMW
LayerCount: 2
Fore
SplineSet
32 0 m 257
 35 10 l 257
 354 10 l 257
 351 0 l 257
 32 0 l 257
268 690 m 257
 271 700 l 257
 589 700 l 257
 586 690 l 257
 268 690 l 257
163 384 m 257
 167 394 l 257
 466 394 l 257
 463 384 l 257
 163 384 l 257
270 699 m 257
 281 699 l 257
 40 0 l 257
 29 0 l 257
 270 699 l 257
547 799 m 256
 548 803 556 810 561 810 c 256
 566 810 569 804 568 799 c 256
 567 795 559 788 554 788 c 256
 549 788 546 794 547 799 c 256
358 799 m 256
 359 803 367 810 372 810 c 256
 377 810 381 804 380 799 c 256
 379 795 371 788 366 788 c 256
 361 788 357 794 358 799 c 256
EndSplineSet
EndChar

StartChar: Igrave
Encoding: 204 204 197
GlifName: I_grave
Width: 169
VWidth: 0
Flags: HMW
LayerCount: 2
Fore
SplineSet
266 699 m 257
 276 699 l 257
 34 0 l 257
 24 0 l 257
 266 699 l 257
199 925 m 257
 208 932 l 257
 316 773 l 257
 311 769 l 257
 199 925 l 257
EndSplineSet
EndChar

StartChar: Iacute
Encoding: 205 205 198
GlifName: I_acute
Width: 169
VWidth: 0
Flags: HMW
LayerCount: 2
Fore
SplineSet
266 699 m 257
 276 699 l 257
 34 0 l 257
 24 0 l 257
 266 699 l 257
494 923 m 257
 275 770 l 257
 272 775 l 257
 489 931 l 257
 494 923 l 257
EndSplineSet
EndChar

StartChar: Icircumflex
Encoding: 206 206 199
GlifName: I_circumflex
Width: 169
VWidth: 0
Flags: HMW
LayerCount: 2
Fore
SplineSet
266 699 m 257
 276 699 l 257
 34 0 l 257
 24 0 l 257
 266 699 l 257
340 902 m 257
 148 770 l 257
 143 777 l 257
 342 914 l 257
 446 775 l 257
 438 768 l 257
 340 902 l 257
EndSplineSet
EndChar

StartChar: Idieresis
Encoding: 207 207 200
GlifName: I_dieresis
Width: 169
VWidth: 0
Flags: HMW
LayerCount: 2
Fore
SplineSet
266 699 m 257
 276 699 l 257
 34 0 l 257
 24 0 l 257
 266 699 l 257
358 799 m 256
 359 803 367 810 372 810 c 256
 377 810 381 804 380 799 c 256
 379 795 371 788 366 788 c 256
 361 788 357 794 358 799 c 256
227 799 m 256
 228 803 236 810 241 810 c 256
 246 810 249 804 248 799 c 256
 247 795 239 788 234 788 c 256
 229 788 226 794 227 799 c 256
EndSplineSet
EndChar

StartChar: Ntilde
Encoding: 209 209 201
GlifName: N_tilde
Width: 625
VWidth: 0
Flags: HMW
LayerCount: 2
Fore
SplineSet
735 699 m 257
 746 699 l 257
 500 -15 l 257
 236 678 l 257
 2 0 l 257
 -9 0 l 257
 237 715 l 257
 500 17 l 257
 735 699 l 257
395 757 m 257
 414 784 436 813 473 813 c 256
 513 813 534 766 574 768 c 256
 603 769 625 795 644 814 c 257
 653 811 l 257
 632 789 606 760 572 760 c 256
 533 760 513 804 474 805 c 256
 441 806 421 780 404 756 c 257
 395 757 l 257
EndSplineSet
EndChar

StartChar: Eth
Encoding: 208 208 202
GlifName: E_th
Width: 639
VWidth: 0
Flags: HMW
LayerCount: 2
Fore
SplineSet
68 345 m 257
 71 355 l 257
 354 355 l 257
 351 345 l 257
 68 345 l 257
270 699 m 257
 281 699 l 257
 40 0 l 257
 29 0 l 257
 270 699 l 257
182 0 m 256
 35 0 l 257
 39 11 l 257
 184 11 l 256
 381 18 543 169 605 350 c 256
 661 512 609 681 417 689 c 256
 270 689 l 257
 274 700 l 257
 419 700 l 256
 617 693 673 518 616 350 c 256
 553 163 386 6 182 0 c 256
EndSplineSet
EndChar

StartChar: Ograve
Encoding: 210 210 203
GlifName: O_grave
Width: 728
VWidth: 0
Flags: HMW
LayerCount: 2
Fore
SplineSet
123 350 m 256
 70 194 117 4 310 3 c 256
 507 2 676 174 736 350 c 256
 789 506 742 696 549 697 c 256
 352 698 183 526 123 350 c 256
112 350 m 256
 173 532 348 709 550 708 c 256
 748 707 801 512 747 350 c 256
 686 168 511 -9 309 -8 c 256
 111 -7 58 188 112 350 c 256
498 925 m 257
 508 932 l 257
 615 773 l 257
 608 769 l 257
 498 925 l 257
EndSplineSet
EndChar

StartChar: Oacute
Encoding: 211 211 204
GlifName: O_acute
Width: 728
VWidth: 0
Flags: HMW
LayerCount: 2
Fore
SplineSet
123 350 m 256
 70 194 117 4 310 3 c 256
 507 2 676 174 736 350 c 256
 789 506 742 696 549 697 c 256
 352 698 183 526 123 350 c 256
112 350 m 256
 173 532 348 709 550 708 c 256
 748 707 801 512 747 350 c 256
 686 168 511 -9 309 -8 c 256
 111 -7 58 188 112 350 c 256
754 923 m 257
 537 770 l 257
 532 775 l 257
 748 931 l 257
 754 923 l 257
EndSplineSet
EndChar

StartChar: Ocircumflex
Encoding: 212 212 205
GlifName: O_circumflex
Width: 728
VWidth: 0
Flags: HMW
LayerCount: 2
Fore
SplineSet
123 350 m 256
 70 194 117 4 310 3 c 256
 507 2 676 174 736 350 c 256
 789 506 742 696 549 697 c 256
 352 698 183 526 123 350 c 256
112 350 m 256
 173 532 348 709 550 708 c 256
 748 707 801 512 747 350 c 256
 686 168 511 -9 309 -8 c 256
 111 -7 58 188 112 350 c 256
619 902 m 257
 428 770 l 257
 423 777 l 257
 622 914 l 257
 726 775 l 257
 717 768 l 257
 619 902 l 257
EndSplineSet
EndChar

StartChar: Otilde
Encoding: 213 213 206
GlifName: O_tilde
Width: 728
VWidth: 0
Flags: HMW
LayerCount: 2
Fore
SplineSet
123 350 m 256
 70 194 117 4 310 3 c 256
 507 2 676 174 736 350 c 256
 789 506 742 696 549 697 c 256
 352 698 183 526 123 350 c 256
112 350 m 256
 173 532 348 709 550 708 c 256
 748 707 801 512 747 350 c 256
 686 168 511 -9 309 -8 c 256
 111 -7 58 188 112 350 c 256
460 790 m 257
 478 816 501 846 539 846 c 256
 579.012 846 599 799 639 801 c 256
 668 802 691 828 710 847 c 257
 717 844 l 257
 696 822 671 793 637 793 c 256
 598 793 578 837 540 838 c 256
 506 839 486 813 468 789 c 257
 460 790 l 257
EndSplineSet
EndChar

StartChar: Odieresis
Encoding: 214 214 207
GlifName: O_dieresis
Width: 728
VWidth: 0
Flags: HMW
LayerCount: 2
Fore
SplineSet
123 350 m 256
 70 194 117 4 310 3 c 256
 507 2 676 174 736 350 c 256
 789 506 742 696 549 697 c 256
 352 698 183 526 123 350 c 256
112 350 m 256
 173 532 348 709 550 708 c 256
 748 707 801 512 747 350 c 256
 686 168 511 -9 309 -8 c 256
 111 -7 58 188 112 350 c 256
679 809 m 256
 680 813 688 820 693 820 c 256
 698 820 701 814 700 809 c 256
 699 805 691 798 686 798 c 256
 681 798 678 804 679 809 c 256
472 809 m 256
 473 813 481 820 486 820 c 256
 491 820 494 814 493 809 c 256
 492 805 484 798 479 798 c 256
 474 798 471 804 472 809 c 256
EndSplineSet
EndChar

StartChar: Ugrave
Encoding: 217 217 208
GlifName: U_grave
Width: 541
VWidth: 0
Flags: HMW
LayerCount: 2
Fore
SplineSet
266 699 m 257
 276 699 l 257
 111 220 l 258
 81 124 90 3 216 2 c 256
 342 1 432 112 472 220 c 258
 637 699 l 257
 648 699 l 257
 484 220 l 258
 442 104 349 -10 215 -9 c 256
 81 -8 69 116 101 220 c 258
 266 699 l 257
404 925 m 257
 413 932 l 257
 521 773 l 257
 516 769 l 257
 404 925 l 257
EndSplineSet
EndChar

StartChar: Uacute
Encoding: 218 218 209
GlifName: U_acute
Width: 541
VWidth: 0
Flags: HMW
LayerCount: 2
Fore
SplineSet
266 699 m 257
 276 699 l 257
 111 220 l 258
 81 124 90 3 216 2 c 256
 342 1 432 112 472 220 c 258
 637 699 l 257
 648 699 l 257
 484 220 l 258
 442 104 349 -10 215 -9 c 256
 81 -8 69 116 101 220 c 258
 266 699 l 257
662 923 m 257
 443 770 l 257
 440 775 l 257
 656 931 l 257
 662 923 l 257
EndSplineSet
EndChar

StartChar: Ucircumflex
Encoding: 219 219 210
GlifName: U_circumflex
Width: 541
VWidth: 0
Flags: HMW
LayerCount: 2
Fore
SplineSet
266 699 m 257
 276 699 l 257
 111 220 l 258
 81 124 90 3 216 2 c 256
 342 1 432 112 472 220 c 258
 637 699 l 257
 648 699 l 257
 484 220 l 258
 442 104 349 -10 215 -9 c 256
 81 -8 69 116 101 220 c 258
 266 699 l 257
526 902 m 257
 334 770 l 257
 330 777 l 257
 529 914 l 257
 633 775 l 257
 624 768 l 257
 526 902 l 257
EndSplineSet
EndChar

StartChar: Udieresis
Encoding: 220 220 211
GlifName: U_dieresis
Width: 541
VWidth: 0
Flags: HMW
LayerCount: 2
Fore
SplineSet
266 699 m 257
 276 699 l 257
 111 220 l 258
 81 124 90 3 216 2 c 256
 342 1 432 112 472 220 c 258
 637 699 l 257
 648 699 l 257
 484 220 l 258
 442 104 349 -10 215 -9 c 256
 81 -8 69 116 101 220 c 258
 266 699 l 257
557 779 m 256
 558 783 566 790 571 790 c 256
 576 790 579 784 578 779 c 256
 577 775 569 768 564 768 c 256
 559 768 556 774 557 779 c 256
387 779 m 256
 388 783 396 790 401 790 c 256
 406 790 410 784 409 779 c 256
 408 775 400 768 395 768 c 256
 390 768 386 774 387 779 c 256
EndSplineSet
EndChar

StartChar: Yacute
Encoding: 221 221 212
GlifName: Y_acute
Width: 477
VWidth: 0
Flags: HMW
LayerCount: 2
Fore
SplineSet
648 923 m 257
 429 770 l 257
 426 775 l 257
 642 931 l 257
 648 923 l 257
636 698 m 257
 649 698 l 257
 276 266 l 257
 184 0 l 257
 173 0 l 257
 266 267 l 257
 199 700 l 257
 211 700 l 257
 274 282 l 257
 636 698 l 257
EndSplineSet
EndChar

StartChar: agrave
Encoding: 224 224 213
GlifName: agrave
Width: 409
VWidth: 0
Flags: HMW
LayerCount: 2
Fore
SplineSet
39 135 m 256
 14 65 49 1 126 1 c 256
 223 1 294 79 336 158 c 257
 341 158 l 257
 300 74 227 -9 125 -9 c 256
 42 -9 3 60 29 136 c 256
 60 225 158 280 249 280 c 256
 295 280 331 265 364 235 c 257
 360 226 l 257
 328 256 292 270 247 270 c 256
 162 270 69 218 39 135 c 256
159 396 m 257
 155 405 l 257
 205 437 262 471 324 469 c 256
 411 466 419 389 399 320 c 258
 288 0 l 257
 278 0 l 257
 390 320 l 258
 409 384 404 456 323 459 c 256
 263 462 207 427 159 396 c 257
278 707 m 257
 288 714 l 257
 396 555 l 257
 389 551 l 257
 278 707 l 257
EndSplineSet
Substitution2: "'ss01' Style Set 1 in Latin lookup 1 subtable" agrave.alt
EndChar

StartChar: aacute
Encoding: 225 225 214
GlifName: aacute
Width: 409
VWidth: 0
Flags: HMW
LayerCount: 2
Fore
SplineSet
39 135 m 256
 14 65 49 1 126 1 c 256
 223 1 294 79 336 158 c 257
 341 158 l 257
 300 74 227 -9 125 -9 c 256
 42 -9 3 60 29 136 c 256
 60 225 158 280 249 280 c 256
 295 280 331 265 364 235 c 257
 360 226 l 257
 328 256 292 270 247 270 c 256
 162 270 69 218 39 135 c 256
159 396 m 257
 155 405 l 257
 205 437 262 471 324 469 c 256
 411 466 419 389 399 320 c 258
 288 0 l 257
 278 0 l 257
 390 320 l 258
 409 384 404 456 323 459 c 256
 263 462 207 427 159 396 c 257
516 705 m 257
 299 552 l 257
 294 557 l 257
 510 713 l 257
 516 705 l 257
EndSplineSet
Substitution2: "'ss01' Style Set 1 in Latin lookup 1 subtable" aacute.alt
EndChar

StartChar: acircumflex
Encoding: 226 226 215
GlifName: acircumflex
Width: 409
VWidth: 0
Flags: HMW
LayerCount: 2
Fore
SplineSet
39 135 m 256
 14 65 49 1 126 1 c 256
 223 1 294 79 336 158 c 257
 341 158 l 257
 300 74 227 -9 125 -9 c 256
 42 -9 3 60 29 136 c 256
 60 225 158 280 249 280 c 256
 295 280 331 265 364 235 c 257
 360 226 l 257
 328 256 292 270 247 270 c 256
 162 270 69 218 39 135 c 256
159 396 m 257
 155 405 l 257
 205 437 262 471 324 469 c 256
 411 466 419 389 399 320 c 258
 288 0 l 257
 278 0 l 257
 390 320 l 258
 409 384 404 456 323 459 c 256
 263 462 207 427 159 396 c 257
397 674 m 257
 205 542 l 257
 200 549 l 257
 399 686 l 257
 503 547 l 257
 495 540 l 257
 397 674 l 257
EndSplineSet
Substitution2: "'ss01' Style Set 1 in Latin lookup 1 subtable" acircumflex.alt
EndChar

StartChar: atilde
Encoding: 227 227 216
GlifName: atilde
Width: 409
VWidth: 0
Flags: HMW
LayerCount: 2
Fore
SplineSet
39 135 m 256
 14 65 49 1 126 1 c 256
 223 1 294 79 336 158 c 257
 341 158 l 257
 300 74 227 -9 125 -9 c 256
 42 -9 3 60 29 136 c 256
 60 225 158 280 249 280 c 256
 295 280 331 265 364 235 c 257
 360 226 l 257
 328 256 292 270 247 270 c 256
 162 270 69 218 39 135 c 256
159 396 m 257
 155 405 l 257
 205 437 262 471 324 469 c 256
 411 466 419 389 399 320 c 258
 288 0 l 257
 278 0 l 257
 390 320 l 258
 409 384 404 456 323 459 c 256
 263 462 207 427 159 396 c 257
235 582 m 257
 254 609 276 638 313 638 c 256
 353 638 374 591 414 593 c 256
 443 594 465 620 484 639 c 257
 492 636 l 257
 471 614 446 585 412 585 c 256
 373 585 353 629 315 630 c 256
 281 631 261 605 243 581 c 257
 235 582 l 257
EndSplineSet
Substitution2: "'ss01' Style Set 1 in Latin lookup 1 subtable" atilde.alt
EndChar

StartChar: adieresis
Encoding: 228 228 217
GlifName: adieresis
Width: 409
VWidth: 0
Flags: HMW
LayerCount: 2
Fore
SplineSet
39 135 m 256
 14 65 49 1 126 1 c 256
 223 1 294 79 336 158 c 257
 341 158 l 257
 300 74 227 -9 125 -9 c 256
 42 -9 3 60 29 136 c 256
 60 225 158 280 249 280 c 256
 295 280 331 265 364 235 c 257
 360 226 l 257
 328 256 292 270 247 270 c 256
 162 270 69 218 39 135 c 256
159 396 m 257
 155 405 l 257
 205 437 262 471 324 469 c 256
 411 466 419 389 399 320 c 258
 288 0 l 257
 278 0 l 257
 390 320 l 258
 409 384 404 456 323 459 c 256
 263 462 207 427 159 396 c 257
412 561 m 256
 413 565 421 572 426 572 c 256
 431 572 434 566 433 561 c 256
 432 557 424 550 419 550 c 256
 414 550 411 556 412 561 c 256
261 561 m 256
 262 565 270 572 275 572 c 256
 280 572 283 566 282 561 c 256
 281 557 273 550 268 550 c 256
 263 550 260 556 261 561 c 256
EndSplineSet
Substitution2: "'ss01' Style Set 1 in Latin lookup 1 subtable" adieresis.alt
EndChar

StartChar: aring
Encoding: 229 229 218
GlifName: aring
Width: 409
VWidth: 0
Flags: HMW
LayerCount: 2
Fore
SplineSet
39 135 m 256
 14 65 49 1 126 1 c 256
 223 1 294 79 336 158 c 257
 341 158 l 257
 300 74 227 -9 125 -9 c 256
 42 -9 3 60 29 136 c 256
 60 225 158 280 249 280 c 256
 295 280 331 265 364 235 c 257
 360 226 l 257
 328 256 292 270 247 270 c 256
 162 270 69 218 39 135 c 256
159 396 m 257
 155 405 l 257
 205 437 262 471 324 469 c 256
 411 466 419 389 399 320 c 258
 288 0 l 257
 278 0 l 257
 390 320 l 258
 409 384 404 456 323 459 c 256
 263 462 207 427 159 396 c 257
283 631 m 256
 300 682 359 730 414 729 c 256
 468 728 493 677 477 629 c 256
 460 578 401 530 346 531 c 256
 292 532 267 583 283 631 c 256
293 630 m 256
 279 588 300 543 348 541 c 256
 397 539 452 585 467 630 c 256
 481 672 460 717 412 719 c 256
 363 721 308 675 293 630 c 256
EndSplineSet
Substitution2: "'ss01' Style Set 1 in Latin lookup 1 subtable" aring.alt
EndChar

StartChar: germandbls
Encoding: 223 223 219
GlifName: germandbls
Width: 498
VWidth: 0
Flags: HMW
LayerCount: 2
Fore
SplineSet
182 0 m 257
 312 16 427 97 470 225 c 256
 512 350 436 430 315 443 c 257
 317 449 l 257
 443 437 523 355 480 225 c 256
 436 92 316 5 179 -9 c 257
 182 0 l 257
316 446 m 257
 318 453 l 257
 423 461 523 500 562 606 c 256
 595 696 558 779 455 779 c 256
 354 779 271 694 237 606 c 258
 29 0 l 257
 20 0 l 257
 227 606 l 256
 264 701 348 788 456 789 c 256
 567 790 606 702 572 605 c 256
 532 491 427 454 316 446 c 257
EndSplineSet
EndChar

StartChar: ae
Encoding: 230 230 220
GlifName: ae
Width: 776
VWidth: 0
Flags: HMW
LayerCount: 2
Fore
SplineSet
37 132 m 256
 12 62 51 1 127 1 c 256
 225 1 311 86 338 165 c 257
 346 164 l 257
 319 80 229 -9 126 -9 c 256
 44 -9 3 57 28 133 c 256
 59 225 159 281 252 280 c 256
 296 280 332 265 364 235 c 257
 360 226 l 257
 329 256 295 270 251 270 c 256
 163 270 67 218 37 132 c 256
160 396 m 257
 155 405 l 257
 206 438 266 473 329 469 c 256
 408 464 419 394 400 330 c 257
 346 164 l 257
 338 165 l 257
 390 320 l 258
 410.601 381.406 406 455 325 459 c 256
 265 462 209 427 160 396 c 257
364 228 m 257
 367 238 l 257
 760 238 l 257
 762 228 l 257
 364 228 l 257
760 250 m 258
 794 342 763 458 649 460 c 256
 516 462 419 345 370 235 c 257
 370 235 l 257
 345 140 345 5 474 1 c 256
 567 -2 644 52 710 111 c 257
 717 105 l 257
 649 43 569 -12 473 -9 c 256
 346 -5 323 130 358 230 c 256
 364 247 372 263 380 279 c 256
 433 378 534 472 654 469 c 256
 769 466 804 348 772 253 c 256
 769 245 766 236 762 228 c 257
 753 231 l 257
 760 250 l 258
EndSplineSet
EndChar

StartChar: ccedilla
Encoding: 231 231 221
GlifName: ccedilla
Width: 459
VWidth: 0
Flags: HMW
LayerCount: 2
Fore
SplineSet
71 230 m 256
 35 125 75 2 202 1 c 256
 263 1 319 27 370 59 c 257
 366 47 l 257
 316 15 260 -9 200 -9 c 256
 67 -9 24 119 61 230 c 256
 102 354 226 470 362 469 c 256
 413 469 456 450 490 412 c 257
 486 400 l 257
 454 439 412 459 361 459 c 256
 231 459 112 348 71 230 c 256
196 -4 m 257
 209 -4 l 257
 128 -78 l 257
 150 -68 177 -53 202 -56 c 256
 241 -60 257 -94 247 -130 c 256
 233 -183 167 -223 114 -222 c 256
 82 -222 63 -206 42 -185 c 257
 50 -179 l 257
 69 -197 88 -212 116 -212 c 256
 164 -212 223 -177 237 -129 c 256
 246 -99 233 -70 200 -66 c 256
 171 -62 140 -79 114 -90 c 257
 196 -4 l 257
EndSplineSet
EndChar

StartChar: egrave
Encoding: 232 232 222
GlifName: egrave
Width: 472
VWidth: 0
Flags: HMW
LayerCount: 2
Fore
SplineSet
85 228 m 257
 88 238 l 257
 457 238 l 257
 493 321 473 456 349 458 c 256
 221 460 125 338 88 234 c 257
 89 233 l 257
 66 137 76.002 3.09668 200 1 c 256
 282.994 -0.40332 357 54 416 112 c 257
 423 105 l 257
 362 44 289.02 -9.70312 199 -9 c 256
 71 -8 50 132 79 232 c 256
 87 258 98 284 112 308 c 256
 160 390 248 470 349 469 c 256
 464 467 502 350 474 254 c 256
 471 245 467 236 464 228 c 257
 85 228 l 257
239.671 685.01 m 257
 248.671 692.01 l 257
 361.671 533.01 l 257
 356.671 529.01 l 257
 239.671 685.01 l 257
EndSplineSet
EndChar

StartChar: eacute
Encoding: 233 233 223
GlifName: eacute
Width: 472
VWidth: 0
Flags: HMW
LayerCount: 2
Fore
SplineSet
85 228 m 257
 88 238 l 257
 457 238 l 257
 493 321 473 456 349 458 c 256
 221 460 125 338 88 234 c 257
 89 233 l 257
 66 137 76.002 3.09668 200 1 c 256
 282.994 -0.40332 357 54 416 112 c 257
 423 105 l 257
 362 44 289.02 -9.70312 199 -9 c 256
 71 -8 50 132 79 232 c 256
 87 258 98 284 112 308 c 256
 160 390 248 470 349 469 c 256
 464 467 502 350 474 254 c 256
 471 245 467 236 464 228 c 257
 85 228 l 257
574.26 682.01 m 257
 361.26 529.01 l 257
 357.26 534.01 l 257
 568.26 690.01 l 257
 574.26 682.01 l 257
EndSplineSet
EndChar

StartChar: ecircumflex
Encoding: 234 234 224
GlifName: ecircumflex
Width: 472
VWidth: 0
Flags: HMW
LayerCount: 2
Fore
SplineSet
85 228 m 257
 88 238 l 257
 457 238 l 257
 493 321 473 456 349 458 c 256
 221 460 125 338 88 234 c 257
 89 233 l 257
 66 137 76.002 3.09668 200 1 c 256
 282.994 -0.40332 357 54 416 112 c 257
 423 105 l 257
 362 44 289.02 -9.70312 199 -9 c 256
 71 -8 50 132 79 232 c 256
 87 258 98 284 112 308 c 256
 160 390 248 470 349 469 c 256
 464 467 502 350 474 254 c 256
 471 245 467 236 464 228 c 257
 85 228 l 257
405.729 663.01 m 257
 213.729 531.01 l 257
 208.729 538.01 l 257
 407.729 675.01 l 257
 511.729 536.01 l 257
 503.729 529.01 l 257
 405.729 663.01 l 257
EndSplineSet
EndChar

StartChar: edieresis
Encoding: 235 235 225
GlifName: edieresis
Width: 472
VWidth: 0
Flags: HMW
LayerCount: 2
Fore
SplineSet
85 228 m 257
 88 238 l 257
 457 238 l 257
 493 321 473 456 349 458 c 256
 221 460 125 338 88 234 c 257
 89 233 l 257
 66 137 76.002 3.09668 200 1 c 256
 282.994 -0.40332 357 54 416 112 c 257
 423 105 l 257
 362 44 289.02 -9.70312 199 -9 c 256
 71 -8 50 132 79 232 c 256
 87 258 98 284 112 308 c 256
 160 390 248 470 349 469 c 256
 464 467 502 350 474 254 c 256
 471 245 467 236 464 228 c 257
 85 228 l 257
444.258 540.01 m 256
 445.258 544.01 452.258 551.01 457.258 551.01 c 256
 462.258 551.01 466.258 545.01 465.258 540.01 c 256
 464.258 536.01 456.258 529.01 451.258 529.01 c 256
 446.258 529.01 443.258 535.01 444.258 540.01 c 256
256.258 540.01 m 256
 257.258 544.01 264.258 551.01 269.258 551.01 c 256
 274.258 551.01 278.258 545.01 277.258 540.01 c 256
 276.258 536.01 268.258 529.01 263.258 529.01 c 256
 258.258 529.01 255.258 535.01 256.258 540.01 c 256
EndSplineSet
EndChar

StartChar: igrave
Encoding: 236 236 226
GlifName: igrave
Width: 178
VWidth: 0
Flags: HMW
LayerCount: 2
Fore
SplineSet
189 459 m 257
 198 459 l 257
 39 0 l 257
 29 0 l 257
 189 459 l 257
123 687 m 257
 133 694 l 257
 240 535 l 257
 233 531 l 257
 123 687 l 257
EndSplineSet
EndChar

StartChar: dotlessi
Encoding: 305 305 227
GlifName: dotlessi
Width: 178
VWidth: 0
Flags: HMW
LayerCount: 2
Fore
SplineSet
189 459 m 257
 198 459 l 257
 39 0 l 257
 29 0 l 257
 189 459 l 257
EndSplineSet
EndChar

StartChar: kgreenlandic
Encoding: 312 312 228
GlifName: kgreenlandic
Width: 350
VWidth: 0
Flags: HMW
LayerCount: 2
Fore
SplineSet
179 459 m 257
 189 459 l 257
 29 0 l 257
 19 0 l 257
 179 459 l 257
411 458 m 257
 427 458 l 257
 133 270 l 257
 287 0 l 257
 274 0 l 257
 120 271 l 257
 411 458 l 257
EndSplineSet
EndChar

StartChar: iacute
Encoding: 237 237 229
GlifName: iacute
Width: 178
VWidth: 0
Flags: HMW
LayerCount: 2
Fore
SplineSet
189 459 m 257
 198 459 l 257
 39 0 l 257
 29 0 l 257
 189 459 l 257
417 685 m 257
 200 532 l 257
 195 537 l 257
 411 693 l 257
 417 685 l 257
EndSplineSet
EndChar

StartChar: icircumflex
Encoding: 238 238 230
GlifName: icircumflex
Width: 178
VWidth: 0
Flags: HMW
LayerCount: 2
Fore
SplineSet
189 459 m 257
 198 459 l 257
 39 0 l 257
 29 0 l 257
 189 459 l 257
263 664 m 257
 72 532 l 257
 67 539 l 257
 266 676 l 257
 370 537 l 257
 361 530 l 257
 263 664 l 257
EndSplineSet
EndChar

StartChar: idieresis
Encoding: 239 239 231
GlifName: idieresis
Width: 178
VWidth: 0
Flags: HMW
LayerCount: 2
Fore
SplineSet
189 459 m 257
 198 459 l 257
 39 0 l 257
 29 0 l 257
 189 459 l 257
285 541 m 256
 286 545 293 552 298 552 c 256
 303 552 307 546 306 541 c 256
 305 537 297 530 292 530 c 256
 287 530 284 536 285 541 c 256
134 541 m 256
 135 545 143 552 148 552 c 256
 153 552 156 546 155 541 c 256
 154 537 146 530 141 530 c 256
 136 530 133 536 134 541 c 256
EndSplineSet
EndChar

StartChar: ntilde
Encoding: 241 241 232
GlifName: ntilde
Width: 446
VWidth: 0
Flags: HMW
LayerCount: 2
Fore
SplineSet
194 459 m 257
 34 0 l 257
 24 0 l 257
 184 459 l 257
 194 459 l 257
413 320 m 258
 432 384 429 457 346 459 c 256
 244 461 170 363 129 282 c 257
 124 282 l 257
 165 369 239 470 347 469 c 256
 436 468 444 389 423 320 c 258
 311 0 l 257
 302 0 l 257
 413 320 l 258
238 552 m 257
 257 579 279 608 316 608 c 256
 356 608 377 561 417 563 c 256
 446 564 468 590 487 609 c 257
 496 606 l 257
 475 584 449 555 415 555 c 256
 376 555 356 599 317 600 c 256
 284 601 264 575 247 551 c 257
 238 552 l 257
EndSplineSet
EndChar

StartChar: ograve
Encoding: 242 242 233
GlifName: ograve
Width: 523
VWidth: 0
Flags: HMW
LayerCount: 2
Fore
SplineSet
66 230 m 256
 107 353 230 470 366 469 c 256
 499 468 543 341 506 230 c 256
 465 107 341 -10 205 -9 c 256
 72 -8 29 119 66 230 c 256
76 230 m 256
 40 124 79 2 206 1 c 256
 336 0 456 112 496 230 c 256
 532 336 493 458 366 459 c 256
 236 460 116 348 76 230 c 256
313 687 m 257
 323 694 l 257
 430 535 l 257
 425 531 l 257
 313 687 l 257
EndSplineSet
EndChar

StartChar: oacute
Encoding: 243 243 234
GlifName: oacute
Width: 523
VWidth: 0
Flags: HMW
LayerCount: 2
Fore
SplineSet
66 230 m 256
 107 353 230 470 366 469 c 256
 499 468 543 341 506 230 c 256
 465 107 341 -10 205 -9 c 256
 72 -8 29 119 66 230 c 256
76 230 m 256
 40 124 79 2 206 1 c 256
 336 0 456 112 496 230 c 256
 532 336 493 458 366 459 c 256
 236 460 116 348 76 230 c 256
571 685 m 257
 352 532 l 257
 349 537 l 257
 566 693 l 257
 571 685 l 257
EndSplineSet
EndChar

StartChar: ocircumflex
Encoding: 244 244 235
GlifName: ocircumflex
Width: 523
VWidth: 0
Flags: HMW
LayerCount: 2
Fore
SplineSet
66 230 m 256
 107 353 230 470 366 469 c 256
 499 468 543 341 506 230 c 256
 465 107 341 -10 205 -9 c 256
 72 -8 29 119 66 230 c 256
76 230 m 256
 40 124 79 2 206 1 c 256
 336 0 456 112 496 230 c 256
 532 336 493 458 366 459 c 256
 236 460 116 348 76 230 c 256
442 684 m 257
 251 552 l 257
 246 559 l 257
 445 696 l 257
 549 557 l 257
 540 550 l 257
 442 684 l 257
EndSplineSet
EndChar

StartChar: otilde
Encoding: 245 245 236
GlifName: otilde
Width: 523
VWidth: 0
Flags: HMW
LayerCount: 2
Fore
SplineSet
66 230 m 256
 107 353 230 470 366 469 c 256
 499 468 543 341 506 230 c 256
 465 107 341 -10 205 -9 c 256
 72 -8 29 119 66 230 c 256
76 230 m 256
 40 124 79 2 206 1 c 256
 336 0 456 112 496 230 c 256
 532 336 493 458 366 459 c 256
 236 460 116 348 76 230 c 256
275 552 m 257
 261 576 338 608 354 608 c 256
 394 609 415 561 455 563 c 256
 484 564 506 590 525 609 c 257
 534 606 l 257
 513 584 487 555 454 555 c 256
 415 555 394 601 355 600 c 256
 323 599 303 574 285 551 c 257
 275 552 l 257
EndSplineSet
EndChar

StartChar: odieresis
Encoding: 246 246 237
GlifName: odieresis
Width: 523
VWidth: 0
Flags: HMW
LayerCount: 2
Fore
SplineSet
66 230 m 256
 107 353 230 470 366 469 c 256
 499 468 543 341 506 230 c 256
 465 107 341 -10 205 -9 c 256
 72 -8 29 119 66 230 c 256
76 230 m 256
 40 124 79 2 206 1 c 256
 336 0 456 112 496 230 c 256
 532 336 493 458 366 459 c 256
 236 460 116 348 76 230 c 256
482 561 m 256
 483 565 491 572 496 572 c 256
 501 572 504 566 503 561 c 256
 502 557 495 550 490 550 c 256
 485 550 481 556 482 561 c 256
294 561 m 256
 295 565 303 572 308 572 c 256
 313 572 316 566 315 561 c 256
 314 557 306 550 301 550 c 256
 296 550 293 556 294 561 c 256
EndSplineSet
EndChar

StartChar: ugrave
Encoding: 249 249 238
GlifName: ugrave
Width: 446
VWidth: 0
Flags: HMW
LayerCount: 2
Fore
SplineSet
302 0 m 257
 461 459 l 257
 471 459 l 257
 312 0 l 257
 302 0 l 257
86 150 m 258
 66 86 62 2 150 1 c 256
 252 -1 325 96 366 178 c 257
 372 178 l 257
 331 91 256 -11 148 -9 c 256
 53 -8 54 80 76 150 c 258
 184 459 l 257
 194 459 l 257
 86 150 l 258
260 697 m 257
 270 704 l 257
 377 545 l 257
 371 541 l 257
 260 697 l 257
EndSplineSet
EndChar

StartChar: uacute
Encoding: 250 250 239
GlifName: uacute
Width: 446
VWidth: 0
Flags: HMW
LayerCount: 2
Fore
SplineSet
302 0 m 257
 461 459 l 257
 471 459 l 257
 312 0 l 257
 302 0 l 257
86 150 m 258
 66 86 62 2 150 1 c 256
 252 -1 325 96 366 178 c 257
 372 178 l 257
 331 91 256 -11 148 -9 c 256
 53 -8 54 80 76 150 c 258
 184 459 l 257
 194 459 l 257
 86 150 l 258
555 695 m 257
 337 542 l 257
 333 547 l 257
 549 703 l 257
 555 695 l 257
EndSplineSet
EndChar

StartChar: ucircumflex
Encoding: 251 251 240
GlifName: ucircumflex
Width: 446
VWidth: 0
Flags: HMW
LayerCount: 2
Fore
SplineSet
302 0 m 257
 461 459 l 257
 471 459 l 257
 312 0 l 257
 302 0 l 257
86 150 m 258
 66 86 62 2 150 1 c 256
 252 -1 325 96 366 178 c 257
 372 178 l 257
 331 91 256 -11 148 -9 c 256
 53 -8 54 80 76 150 c 258
 184 459 l 257
 194 459 l 257
 86 150 l 258
401 674 m 257
 209 542 l 257
 205 549 l 257
 404 686 l 257
 508 547 l 257
 498 540 l 257
 401 674 l 257
EndSplineSet
EndChar

StartChar: udieresis
Encoding: 252 252 241
GlifName: udieresis
Width: 446
VWidth: 0
Flags: HMW
LayerCount: 2
Fore
SplineSet
302 0 m 257
 461 459 l 257
 471 459 l 257
 312 0 l 257
 302 0 l 257
86 150 m 258
 66 86 62 2 150 1 c 256
 252 -1 325 96 366 178 c 257
 372 178 l 257
 331 91 256 -11 148 -9 c 256
 53 -8 54 80 76 150 c 258
 184 459 l 257
 194 459 l 257
 86 150 l 258
425 562 m 256
 426 566 435 572 440 572 c 256
 445 571 447 566 446 561 c 256
 445 557 438 550 433 550 c 256
 428 550 424 557 425 562 c 256
274 562 m 256
 275 566 284 572 289 572 c 256
 294 571 297 566 296 561 c 256
 295 557 288 550 283 550 c 256
 278 550 273 557 274 562 c 256
EndSplineSet
EndChar

StartChar: yacute
Encoding: 253 253 242
GlifName: yacute
Width: 399
VWidth: 0
Flags: HMW
LayerCount: 2
Fore
SplineSet
495 459 m 257
 -22 -219 l 257
 -33 -218 l 257
 151 21 l 257
 112 460 l 257
 124 460 l 257
 160 20 l 257
 149 21 l 257
 484 459 l 257
 495 459 l 257
528 685 m 257
 310 532 l 257
 306 537 l 257
 522 693 l 257
 528 685 l 257
EndSplineSet
EndChar

StartChar: thorn
Encoding: 254 254 243
GlifName: thorn
Width: 509
VWidth: 0
Flags: HMW
LayerCount: 2
Fore
SplineSet
-46 -219 m 257
 -55 -219 l 257
 288 779 l 257
 298 779 l 257
 -46 -219 l 257
492 230 m 256
 453 114 343 -12 210 -9 c 256
 84 -6 73 136 104 230 c 256
 141 340 244 468 371 469 c 256
 504 470 526 332 492 230 c 256
482 230 m 256
 515 327 495 461 367 459 c 256
 247 457 145 335 109 230 c 256
 79 142 90 5 208 1 c 256
 335 -4 444 119 482 230 c 256
EndSplineSet
EndChar

StartChar: ydieresis
Encoding: 255 255 244
GlifName: ydieresis
Width: 399
VWidth: 0
Flags: HMW
LayerCount: 2
Fore
SplineSet
495 459 m 257
 -22 -219 l 257
 -33 -218 l 257
 151 21 l 257
 112 460 l 257
 124 460 l 257
 160 20 l 257
 149 21 l 257
 484 459 l 257
 495 459 l 257
402 561 m 256
 403 565 410 572 415 572 c 256
 420 572 424 565 423 560 c 256
 422 556 414 550 409 550 c 256
 404 551 401 556 402 561 c 256
252 561 m 256
 253 565 260 572 265 572 c 256
 270 572 274 565 273 560 c 256
 272 556 263 550 258 550 c 256
 253 551 251 556 252 561 c 256
EndSplineSet
EndChar

StartChar: Amacron
Encoding: 256 256 245
GlifName: A_macron
Width: 564
VWidth: 0
Flags: HMW
LayerCount: 2
Fore
SplineSet
158 272 m 257
 161 282 l 257
 486 282 l 257
 483 272 l 257
 158 272 l 257
465 688 m 257
 169 277 l 257
 167 273 l 257
 -30 0 l 257
 -42 0 l 257
 473 715 l 257
 496 0 l 257
 484 0 l 257
 478 273 l 257
 478 276 l 257
 465 688 l 257
335 795 m 257
 338 805 l 257
 668 805 l 257
 664 795 l 257
 335 795 l 257
EndSplineSet
EndChar

StartChar: amacron
Encoding: 257 257 246
GlifName: amacron
Width: 409
VWidth: 0
Flags: HMW
LayerCount: 2
Fore
SplineSet
39 135 m 256
 14 65 49 1 126 1 c 256
 223 1 294 79 336 158 c 257
 341 158 l 257
 300 74 227 -9 125 -9 c 256
 42 -9 3 60 29 136 c 256
 60 225 158 280 249 280 c 256
 295 280 331 265 364 235 c 257
 360 226 l 257
 328 256 292 270 247 270 c 256
 162 270 69 218 39 135 c 256
159 396 m 257
 155 405 l 257
 205 437 262 471 324 469 c 256
 411 466 419 389 399 320 c 258
 288 0 l 257
 278 0 l 257
 390 320 l 258
 409 384 404 456 323 459 c 256
 263 462 207 427 159 396 c 257
188 550 m 257
 191 560 l 257
 521 560 l 257
 518 550 l 257
 188 550 l 257
EndSplineSet
Substitution2: "'ss01' Style Set 1 in Latin lookup 1 subtable" amacron.alt
EndChar

StartChar: breve
Encoding: 728 728 247
GlifName: breve
Width: 513
VWidth: 0
Flags: HMW
LayerCount: 2
Fore
SplineSet
336 850 m 257
 345 850 l 257
 336 779 364 722 443 721 c 256
 527 720 588 780 625 849 c 257
 635 848 l 257
 597 772 532 711 442 711 c 256
 356 711 325 773 336 850 c 257
EndSplineSet
EndChar

StartChar: Abreve
Encoding: 258 258 248
GlifName: A_breve
Width: 564
VWidth: 0
Flags: HMW
LayerCount: 2
Fore
SplineSet
158 272 m 257
 161 282 l 257
 486 282 l 257
 483 272 l 257
 158 272 l 257
465 688 m 257
 169 277 l 257
 167 273 l 257
 -30 0 l 257
 -42 0 l 257
 473 715 l 257
 496 0 l 257
 484 0 l 257
 478 273 l 257
 478 276 l 257
 465 688 l 257
395 925 m 257
 405 925 l 257
 393 855 419 797 498 796 c 256
 582 795 645 855 684 923 c 257
 694 923 l 257
 654 848 587 785 497 786 c 256
 411 787 381 848 395 925 c 257
EndSplineSet
EndChar

StartChar: abreve
Encoding: 259 259 249
GlifName: abreve
Width: 409
VWidth: 0
Flags: HMW
LayerCount: 2
Fore
SplineSet
39 135 m 256
 14 65 49 1 126 1 c 256
 223 1 294 79 336 158 c 257
 341 158 l 257
 300 74 227 -9 125 -9 c 256
 42 -9 3 60 29 136 c 256
 60 225 158 280 249 280 c 256
 295 280 331 265 364 235 c 257
 360 226 l 257
 328 256 292 270 247 270 c 256
 162 270 69 218 39 135 c 256
159 396 m 257
 155 405 l 257
 205 437 262 471 324 469 c 256
 411 466 419 389 399 320 c 258
 288 0 l 257
 278 0 l 257
 390 320 l 258
 409 384 404 456 323 459 c 256
 263 462 207 427 159 396 c 257
239 680 m 257
 249 680 l 257
 237 610 263 552 342 551 c 256
 426 550 489 610 528 678 c 257
 538 678 l 257
 498 603 431 540 341 541 c 256
 255 542 225 603 239 680 c 257
EndSplineSet
Substitution2: "'ss01' Style Set 1 in Latin lookup 1 subtable" abreve.alt
EndChar

StartChar: Aogonek
Encoding: 260 260 250
GlifName: A_ogonek
Width: 564
VWidth: 0
Flags: HMW
LayerCount: 2
Fore
SplineSet
160 272 m 257
 163 282 l 257
 486 282 l 257
 483 272 l 257
 160 272 l 257
465 688 m 257
 169 277 l 257
 167 273 l 257
 -30 0 l 257
 -42 0 l 257
 473 715 l 257
 496 0 l 257
 484 0 l 257
 478 273 l 257
 478 276 l 257
 465 688 l 257
469 -174 m 257
 474 -182 l 257
 442 -202 407 -220 368 -219 c 256
 321 -218 283 -190 297 -139 c 256
 319 -59 426 -20 493 9 c 257
 497 0 l 257
 435 -30 327 -64 307 -140 c 256
 295 -184 330 -208 370 -209 c 256
 406 -210 439 -191 469 -174 c 257
EndSplineSet
EndChar

StartChar: aogonek
Encoding: 261 261 251
GlifName: aogonek
Width: 409
VWidth: 0
Flags: HMW
LayerCount: 2
Fore
SplineSet
39 135 m 256
 14 65 49 1 126 1 c 256
 223 1 294 79 336 158 c 257
 341 158 l 257
 300 74 227 -9 125 -9 c 256
 42 -9 3 60 29 136 c 256
 60 225 158 280 249 280 c 256
 295 280 331 265 364 235 c 257
 360 226 l 257
 328 256 292 270 247 270 c 256
 162 270 69 218 39 135 c 256
159 396 m 257
 155 405 l 257
 205 437 262 471 324 469 c 256
 411 466 419 389 399 320 c 258
 288 0 l 257
 278 0 l 257
 390 320 l 258
 409 384 404 456 323 459 c 256
 263 462 207 427 159 396 c 257
262 -174 m 257
 267 -182 l 257
 235 -202 200 -220 161 -219 c 256
 114 -218 76 -190 90 -139 c 256
 112 -59 219 -21 286 9 c 257
 290 0 l 257
 228 -30 120 -64 100 -140 c 256
 88 -184 123 -208 163 -209 c 256
 199 -210 232 -191 262 -174 c 257
EndSplineSet
Substitution2: "'ss01' Style Set 1 in Latin lookup 1 subtable" aogonek.alt
EndChar

StartChar: Cacute
Encoding: 262 262 252
GlifName: C_acute
Width: 644
VWidth: 0
Flags: HMW
LayerCount: 2
Fore
SplineSet
124 350 m 256
 72 197 113 8 304 5 c 256
 393 4 473 39 546 86 c 257
 540 71 l 257
 467 26 389 -8 302 -7 c 256
 104 -5 58 190 112 350 c 256
 173 532 342 706 544 708 c 256
 619 709 679 683 730 629 c 257
 725 614 l 257
 678 672 616 697 542 696 c 256
 346 694 184 525 124 350 c 256
748 923 m 257
 529 770 l 257
 526 775 l 257
 743 931 l 257
 748 923 l 257
EndSplineSet
EndChar

StartChar: cacute
Encoding: 263 263 253
GlifName: cacute
Width: 459
VWidth: 0
Flags: HMW
LayerCount: 2
Fore
SplineSet
71 230 m 256
 35 125 75 2 202 1 c 256
 263 1 319 27 370 59 c 257
 366 47 l 257
 316 15 260 -9 200 -9 c 256
 67 -9 24 119 61 230 c 256
 102 354 226 470 362 469 c 256
 413 469 456 450 490 412 c 257
 486 400 l 257
 454 439 412 459 361 459 c 256
 231 459 112 348 71 230 c 256
578 695 m 257
 361 542 l 257
 356 547 l 257
 573 703 l 257
 578 695 l 257
EndSplineSet
EndChar

StartChar: Ccircumflex
Encoding: 264 264 254
GlifName: C_circumflex
Width: 644
VWidth: 0
Flags: HMW
LayerCount: 2
Fore
SplineSet
124 350 m 256
 72 197 113 8 304 5 c 256
 393 4 473 39 546 86 c 257
 540 71 l 257
 467 26 389 -8 302 -7 c 256
 104 -4 58 190 112 350 c 256
 173 532 342 706 544 708 c 256
 619 709 679 683 730 629 c 257
 725 614 l 257
 678 672 616 697 542 696 c 256
 346 694 184 525 124 350 c 256
613 902 m 257
 421 770 l 257
 416 777 l 257
 615 914 l 257
 719 775 l 257
 711 768 l 257
 613 902 l 257
EndSplineSet
EndChar

StartChar: ccircumflex
Encoding: 265 265 255
GlifName: ccircumflex
Width: 459
VWidth: 0
Flags: HMW
LayerCount: 2
Fore
SplineSet
71 230 m 256
 35 125 75 2 202 1 c 256
 263 1 319 27 370 59 c 257
 366 47 l 257
 316 15 260 -9 200 -9 c 256
 67 -9 24 119 61 230 c 256
 102 354 226 470 362 469 c 256
 413 469 456 450 490 412 c 257
 486 400 l 257
 454 439 412 459 361 459 c 256
 231 459 112 348 71 230 c 256
431 664 m 257
 239 532 l 257
 234 539 l 257
 433 676 l 257
 537 537 l 257
 529 530 l 257
 431 664 l 257
EndSplineSet
EndChar

StartChar: Cdotaccent
Encoding: 266 266 256
GlifName: C_dotaccent
Width: 644
VWidth: 0
Flags: HMW
LayerCount: 2
Fore
SplineSet
124 350 m 256
 72 197 113 8 304 5 c 256
 393 4 473 39 546 86 c 257
 540 71 l 257
 467 26 389 -8 302 -7 c 256
 104 -5 58 190 112 350 c 256
 173 532 342 706 544 708 c 256
 619 709 679 683 730 629 c 257
 725 614 l 257
 678 672 616 697 542 696 c 256
 346 694 184 525 124 350 c 256
562 789 m 256
 563 793 571 800 576 800 c 256
 581 800 584 794 583 789 c 256
 582 785 574 778 569 778 c 256
 564 778 561 784 562 789 c 256
EndSplineSet
EndChar

StartChar: cdotaccent
Encoding: 267 267 257
GlifName: cdotaccent
Width: 459
VWidth: 0
Flags: HMW
LayerCount: 2
Fore
SplineSet
71 230 m 256
 35 125 75 2 202 1 c 256
 263 1 319 27 370 59 c 257
 366 47 l 257
 316 15 260 -9 200 -9 c 256
 67 -9 24 119 61 230 c 256
 102 354 226 470 362 469 c 256
 413 469 456 450 490 412 c 257
 486 400 l 257
 454 439 412 459 361 459 c 256
 231 459 112 348 71 230 c 256
380 551 m 256
 381 555 389 562 394 562 c 256
 399 562 402 556 401 551 c 256
 400 547 392 540 387 540 c 256
 382 540 379 546 380 551 c 256
EndSplineSet
EndChar

StartChar: Ccaron
Encoding: 268 268 258
GlifName: C_caron
Width: 644
VWidth: 0
Flags: HMW
LayerCount: 2
Fore
SplineSet
124 350 m 256
 72 197 113 8 304 5 c 256
 393 4 473 39 546 86 c 257
 540 71 l 257
 467 26 389 -8 302 -7 c 256
 104 -4 58 190 112 350 c 256
 173 532 342 706 544 708 c 256
 619 709 679 683 730 629 c 257
 725 614 l 257
 678 672 616 697 542 696 c 256
 346 694 184 525 124 350 c 256
572 791 m 257
 763 924 l 257
 768 916 l 257
 569 779 l 257
 465 918 l 257
 475 926 l 257
 572 791 l 257
EndSplineSet
EndChar

StartChar: ccaron
Encoding: 269 269 259
GlifName: ccaron
Width: 459
VWidth: 0
Flags: HMW
LayerCount: 2
Fore
SplineSet
71 230 m 256
 35 125 75 2 202 1 c 256
 263 1 319 27 370 59 c 257
 366 47 l 257
 316 15 260 -9 200 -9 c 256
 67 -9 24 119 61 230 c 256
 102 354 226 470 362 469 c 256
 413 469 456 450 490 412 c 257
 486 400 l 257
 454 439 412 459 361 459 c 256
 231 459 112 348 71 230 c 256
393 563 m 257
 584 696 l 257
 590 688 l 257
 391 551 l 257
 287 690 l 257
 296 698 l 257
 393 563 l 257
EndSplineSet
EndChar

StartChar: Dcaron
Encoding: 270 270 260
GlifName: D_caron
Width: 597
VWidth: 0
Flags: HMW
LayerCount: 2
Fore
SplineSet
270 699 m 257
 281 699 l 257
 40 0 l 257
 29 0 l 257
 270 699 l 257
182 0 m 256
 35 0 l 257
 39 11 l 257
 184 11 l 256
 382 17 543 168 605 350 c 256
 661 513 609 681 417 689 c 256
 270 689 l 257
 274 700 l 257
 419 700 l 256
 617 693 673 518 616 350 c 256
 553 163 386 6 182 0 c 256
520 811 m 257
 711 944 l 257
 717 936 l 257
 518 799 l 257
 414 938 l 257
 423 946 l 257
 520 811 l 257
EndSplineSet
EndChar

StartChar: dcaron
Encoding: 271 271 261
GlifName: dcaron
Width: 536
VWidth: 0
Flags: HMW
LayerCount: 2
Fore
SplineSet
637 779 m 257
 647 779 l 257
 378 0 l 257
 369 0 l 257
 637 779 l 257
66 230 m 256
 105 346 215 472 348 469 c 256
 474 466 485 324 454 230 c 256
 417 120 313 -8 186 -9 c 256
 53 -10 32 128 66 230 c 256
76 230 m 256
 43 133 62 -1 190 1 c 256
 310 3 413 125 449 230 c 256
 479 318 467 455 349 459 c 256
 222 464 114 341 76 230 c 256
824 762 m 257
 834 757 l 257
 641 511 l 257
 635 513 l 257
 824 762 l 257
EndSplineSet
EndChar

StartChar: Dcroat
Encoding: 272 272 262
GlifName: D_croat
Width: 639
VWidth: 0
Flags: HMW
LayerCount: 2
Fore
SplineSet
68 345 m 257
 71 355 l 257
 354 355 l 257
 351 345 l 257
 68 345 l 257
270 699 m 257
 281 699 l 257
 40 0 l 257
 29 0 l 257
 270 699 l 257
182 0 m 256
 35 0 l 257
 39 11 l 257
 184 11 l 256
 381 18 543 169 605 350 c 256
 661 512 609 681 417 689 c 256
 270 689 l 257
 274 700 l 257
 419 700 l 256
 617 693 673 518 616 350 c 256
 553 163 386 6 182 0 c 256
EndSplineSet
EndChar

StartChar: dcroat
Encoding: 273 273 263
GlifName: dcroat
Width: 509
VWidth: 0
Flags: HMW
LayerCount: 2
Fore
SplineSet
447 655 m 257
 450 665 l 257
 733 665 l 257
 729 655 l 257
 447 655 l 257
637 779 m 257
 647 779 l 257
 378 0 l 257
 369 0 l 257
 637 779 l 257
66 230 m 256
 105 347 215 472 348 469 c 256
 474 466 485 324 454 230 c 256
 417 120 313 -8 186 -9 c 256
 53 -10 31 127 66 230 c 256
76 230 m 256
 43 133 63 -1 190 1 c 256
 309 3 413 125 449 230 c 256
 479 317 466 454 349 459 c 256
 222 464 114 340 76 230 c 256
EndSplineSet
EndChar

StartChar: Emacron
Encoding: 274 274 264
GlifName: E_macron
Width: 479
VWidth: 0
Flags: HMW
LayerCount: 2
Fore
SplineSet
32 0 m 257
 35 10 l 257
 354 10 l 257
 351 0 l 257
 32 0 l 257
268 690 m 257
 271 700 l 257
 589 700 l 257
 586 690 l 257
 268 690 l 257
163 384 m 257
 167 394 l 257
 466 394 l 257
 463 384 l 257
 163 384 l 257
270 699 m 257
 281 699 l 257
 40 0 l 257
 29 0 l 257
 270 699 l 257
329 835 m 257
 333 845 l 257
 662 845 l 257
 659 835 l 257
 329 835 l 257
EndSplineSet
EndChar

StartChar: emacron
Encoding: 275 275 265
GlifName: emacron
Width: 472
VWidth: 0
Flags: HMW
LayerCount: 2
Fore
SplineSet
85 228 m 257
 88 238 l 257
 457 238 l 257
 493 321 473 456 349 458 c 256
 221 460 125 338 88 234 c 257
 89 233 l 257
 66 137 76 3 200 1 c 256
 283 0 357 54 416 112 c 257
 423 105 l 257
 362 44 289 -10 199 -9 c 256
 71 -8 50 132 79 232 c 256
 87 258 98 284 112 308 c 256
 160 390 248 470 349 469 c 256
 464 467 502 350 474 254 c 256
 471 245 467 236 464 228 c 257
 85 228 l 257
194 529 m 257
 197 539 l 257
 526 539 l 257
 523 529 l 257
 194 529 l 257
EndSplineSet
EndChar

StartChar: Ebreve
Encoding: 276 276 266
GlifName: E_breve
Width: 479
VWidth: 0
Flags: HMW
LayerCount: 2
Fore
SplineSet
32 0 m 257
 35 10 l 257
 354 10 l 257
 351 0 l 257
 32 0 l 257
268 690 m 257
 271 700 l 257
 589 700 l 257
 586 690 l 257
 268 690 l 257
163 384 m 257
 167 394 l 257
 466 394 l 257
 463 384 l 257
 163 384 l 257
270 699 m 257
 281 699 l 257
 40 0 l 257
 29 0 l 257
 270 699 l 257
361 908 m 257
 371 908 l 257
 359 838 385 780 464 779 c 256
 548 778 611 838 650 906 c 257
 660 906 l 257
 620 831 553 768 463 769 c 256
 377 770 347 831 361 908 c 257
EndSplineSet
EndChar

StartChar: ebreve
Encoding: 277 277 267
GlifName: ebreve
Width: 472
VWidth: 0
Flags: HMW
LayerCount: 2
Fore
SplineSet
85 228 m 257
 88 238 l 257
 457 238 l 257
 493 321 473 456 349 458 c 256
 221 460 125 338 88 234 c 257
 89 233 l 257
 66 137 76.002 3.09668 200 1 c 256
 282.994 -0.40332 357 54 416 112 c 257
 423 105 l 257
 362 44 289.02 -9.70312 199 -9 c 256
 71 -8 50 132 79 232 c 256
 87 258 98 284 112 308 c 256
 160 390 248 470 349 469 c 256
 464 467 502 350 474 254 c 256
 471 245 467 236 464 228 c 257
 85 228 l 257
233.651 668.01 m 257
 242.651 668.01 l 257
 233.651 597.01 261.651 540.01 340.651 539.01 c 256
 424.651 538.01 485.651 598.01 522.651 667.01 c 257
 532.651 666.01 l 257
 494.651 590.01 429.651 529.01 339.651 529.01 c 256
 253.651 529.01 222.651 591.01 233.651 668.01 c 257
EndSplineSet
EndChar

StartChar: Edotaccent
Encoding: 278 278 268
GlifName: E_dotaccent
Width: 479
VWidth: 0
Flags: HMW
LayerCount: 2
Fore
SplineSet
32 0 m 257
 35 10 l 257
 354 10 l 257
 351 0 l 257
 32 0 l 257
268 690 m 257
 271 700 l 257
 589 700 l 257
 586 690 l 257
 268 690 l 257
163 384 m 257
 167 394 l 257
 466 394 l 257
 463 384 l 257
 163 384 l 257
270 699 m 257
 281 699 l 257
 40 0 l 257
 29 0 l 257
 270 699 l 257
446 779 m 256
 447 783 455 790 460 790 c 256
 465 790 468 784 467 779 c 256
 466 775 458 768 453 768 c 256
 448 768 445 774 446 779 c 256
EndSplineSet
EndChar

StartChar: edotaccent
Encoding: 279 279 269
GlifName: edotaccent
Width: 472
VWidth: 0
Flags: HMW
LayerCount: 2
Fore
SplineSet
85 228 m 257
 88 238 l 257
 457 238 l 257
 493 321 473 456 349 458 c 256
 221 460 125 338 88 234 c 257
 89 233 l 257
 66 137 76.002 3.09668 200 1 c 256
 282.994 -0.40332 357 54 416 112 c 257
 423 105 l 257
 362 44 289.02 -9.70312 199 -9 c 256
 71 -8 50 132 79 232 c 256
 87 258 98 284 112 308 c 256
 160 390 248 470 349 469 c 256
 464 467 502 350 474 254 c 256
 471 245 467 236 464 228 c 257
 85 228 l 257
350.258 540.01 m 256
 351.258 544.01 359.258 551.01 364.258 551.01 c 256
 369.258 551.01 372.258 545.01 371.258 540.01 c 256
 370.258 536.01 363.258 529.01 358.258 529.01 c 256
 353.258 529.01 349.258 535.01 350.258 540.01 c 256
EndSplineSet
EndChar

StartChar: Eogonek
Encoding: 280 280 270
GlifName: E_ogonek
Width: 479
VWidth: 0
Flags: HMW
LayerCount: 2
Fore
SplineSet
32 0 m 257
 35 10 l 257
 354 10 l 257
 351 0 l 257
 32 0 l 257
268 690 m 257
 271 700 l 257
 589 700 l 257
 586 690 l 257
 268 690 l 257
163 384 m 257
 167 394 l 257
 466 394 l 257
 463 384 l 257
 163 384 l 257
270 699 m 257
 281 699 l 257
 40 0 l 257
 29 0 l 257
 270 699 l 257
323 -174 m 257
 328 -182 l 257
 296 -202 261 -220 222 -219 c 256
 175 -218 137 -190 151 -139 c 256
 173 -59 280 -21 347 9 c 257
 351 0 l 257
 289 -30 181 -64 161 -140 c 256
 149 -184 184 -208 224 -209 c 256
 260 -210 293 -191 323 -174 c 257
EndSplineSet
EndChar

StartChar: eogonek
Encoding: 281 281 271
GlifName: eogonek
Width: 472
VWidth: 0
Flags: HMW
LayerCount: 2
Fore
SplineSet
85 228 m 257
 88 238 l 257
 457 238 l 257
 493 321 473 456 349 458 c 256
 221 460 125 338 88 234 c 257
 89 233 l 257
 66 137 76.002 3.09668 200 1 c 256
 282.994 -0.40332 357 54 416 112 c 257
 423 105 l 257
 362 44 289.02 -9.70312 199 -9 c 256
 71 -8 50 132 79 232 c 256
 87 258 98 284 112 308 c 256
 160 390 248 470 349 469 c 256
 464 467 502 350 474 254 c 256
 471 245 467 236 464 228 c 257
 85 228 l 257
187 -182 m 257
 192 -189 l 257
 160 -209 127 -228 88 -227 c 256
 41 -226 2 -198 14 -147 c 256
 33 -68 138 -29 203 0 c 257
 208 -8 l 257
 147 -38 41 -73 23 -148 c 256
 13 -192 49 -216 89 -217 c 256
 125 -218 157 -200 187 -182 c 257
EndSplineSet
EndChar

StartChar: Ecaron
Encoding: 282 282 272
GlifName: E_caron
Width: 479
VWidth: 0
Flags: HMW
LayerCount: 2
Fore
SplineSet
32 0 m 257
 35 10 l 257
 354 10 l 257
 351 0 l 257
 32 0 l 257
268 690 m 257
 271 700 l 257
 589 700 l 257
 586 690 l 257
 268 690 l 257
163 384 m 257
 167 394 l 257
 466 394 l 257
 463 384 l 257
 163 384 l 257
270 699 m 257
 281 699 l 257
 40 0 l 257
 29 0 l 257
 270 699 l 257
455 781 m 257
 646 914 l 257
 652 906 l 257
 453 769 l 257
 349 908 l 257
 359 916 l 257
 455 781 l 257
EndSplineSet
EndChar

StartChar: ecaron
Encoding: 283 283 273
GlifName: ecaron
Width: 472
VWidth: 0
Flags: HMW
LayerCount: 2
Fore
SplineSet
85 228 m 257
 88 238 l 257
 457 238 l 257
 493 321 473 456 349 458 c 256
 221 460 125 338 88 234 c 257
 89 233 l 257
 66 137 76.002 3.09668 200 1 c 256
 282.994 -0.40332 357 54 416 112 c 257
 423 105 l 257
 362 44 289.02 -9.70312 199 -9 c 256
 71 -8 50 132 79 232 c 256
 87 258 98 284 112 308 c 256
 160 390 248 470 349 469 c 256
 464 467 502 350 474 254 c 256
 471 245 467 236 464 228 c 257
 85 228 l 257
338.151 541.01 m 257
 529.151 674.01 l 257
 535.151 666.01 l 257
 336.151 529.01 l 257
 231.151 668.01 l 257
 241.151 676.01 l 257
 338.151 541.01 l 257
EndSplineSet
EndChar

StartChar: Gcircumflex
Encoding: 284 284 274
GlifName: G_circumflex
Width: 719
VWidth: 0
Flags: HMW
LayerCount: 2
Fore
SplineSet
454 330 m 257
 457 340 l 257
 730 339 l 257
 660 169 511 -7 311 -7 c 256
 113 -7 58 188 112 350 c 256
 173 533 350 709 553 708 c 256
 656 708 727 649 765 556 c 257
 754 550 l 257
 723 642 650 697 552 697 c 256
 354 698 184 528 123 350 c 256
 70 194 120 4 313 4 c 256
 504 4 646 169 717 329 c 257
 454 330 l 257
622 902 m 257
 430 770 l 257
 425 777 l 257
 624 914 l 257
 729 775 l 257
 720 768 l 257
 622 902 l 257
EndSplineSet
EndChar

StartChar: gcircumflex
Encoding: 285 285 275
GlifName: gcircumflex
Width: 509
VWidth: 0
Flags: HMW
LayerCount: 2
Fore
SplineSet
-7 -30 m 257
 3 -30 l 257
 -20 -120 -6 -217 107 -219 c 256
 237 -221 332 -101 373 10 c 258
 528 459 l 257
 538 459 l 257
 384 10 l 258
 341 -107 242 -230 106 -229 c 256
 -12 -228 -31 -125 -7 -30 c 257
66 230 m 256
 105 346 215 472 348 469 c 256
 474 466 485 324 454 230 c 256
 417 120 313 -8 186 -9 c 256
 53 -10 32 128 66 230 c 256
76 230 m 256
 42 132 62 0 190 1 c 256
 312 2 415 129 450 235 c 256
 479 322 464 455 349 459 c 256
 222 464 114 341 76 230 c 256
417 664 m 257
 225 532 l 257
 220 539 l 257
 419 676 l 257
 523 537 l 257
 515 530 l 257
 417 664 l 257
EndSplineSet
EndChar

StartChar: Gbreve
Encoding: 286 286 276
GlifName: G_breve
Width: 719
VWidth: 0
Flags: HMW
LayerCount: 2
Fore
SplineSet
454 330 m 257
 457 340 l 257
 730 339 l 257
 660 169 511 -7 311 -7 c 256
 113 -7 58 188 112 350 c 256
 173 533 350 709 553 708 c 256
 656 708 727 649 765 556 c 257
 754 550 l 257
 723 642 650 697 552 697 c 256
 354 698 184 528 123 350 c 256
 70 194 120 4 313 4 c 256
 504 4 646 169 717 329 c 257
 454 330 l 257
474 908 m 257
 484 908 l 257
 472 838 498 780 577 779 c 256
 661 778 724 838 763 906 c 257
 773 906 l 257
 733 831 666 768 576 769 c 256
 490 770 460 831 474 908 c 257
EndSplineSet
EndChar

StartChar: gbreve
Encoding: 287 287 277
GlifName: gbreve
Width: 509
VWidth: 0
Flags: HMW
LayerCount: 2
Fore
SplineSet
-7 -30 m 257
 3 -30 l 257
 -20 -120 -6 -217 107 -219 c 256
 237 -221 332 -101 373 10 c 258
 528 459 l 257
 538 459 l 257
 384 10 l 258
 341 -107 242 -230 106 -229 c 256
 -12 -228 -31 -125 -7 -30 c 257
66 230 m 256
 105 346 215 472 348 469 c 256
 474 466 485 324 454 230 c 256
 417 120 313 -8 186 -9 c 256
 53 -10 32 128 66 230 c 256
76 230 m 256
 42 132 62 0 190 1 c 256
 312 2 415 129 450 235 c 256
 479 322 464 455 349 459 c 256
 222 464 114 341 76 230 c 256
269 670 m 257
 278 670 l 257
 266 600 292 542 371 541 c 256
 455 540 519 600 558 668 c 257
 568 668 l 257
 528 593 460 530 370 531 c 256
 284 532 255 593 269 670 c 257
EndSplineSet
EndChar

StartChar: Gdotaccent
Encoding: 288 288 278
GlifName: G_dotaccent
Width: 719
VWidth: 0
Flags: HMW
LayerCount: 2
Fore
SplineSet
454 330 m 257
 457 340 l 257
 730 339 l 257
 660 169 511 -7 311 -7 c 256
 113 -7 58 188 112 350 c 256
 173 533 350 709 553 708 c 256
 656 708 727 649 765 556 c 257
 754 550 l 257
 723 642 650 697 552 697 c 256
 354 698 184 528 123 350 c 256
 70 194 120 4 313 4 c 256
 504 4 646 169 717 329 c 257
 454 330 l 257
568 779 m 256
 569 783 577 790 582 790 c 256
 587 790 590 784 589 779 c 256
 588 775 580 768 575 768 c 256
 570 768 567 774 568 779 c 256
EndSplineSet
EndChar

StartChar: gdotaccent
Encoding: 289 289 279
GlifName: gdotaccent
Width: 509
VWidth: 0
Flags: HMW
LayerCount: 2
Fore
SplineSet
-7 -30 m 257
 3 -30 l 257
 -20 -120 -6 -217 107 -219 c 256
 237 -221 332 -101 373 10 c 258
 528 459 l 257
 538 459 l 257
 384 10 l 258
 341 -107 242 -230 106 -229 c 256
 -12 -228 -31 -125 -7 -30 c 257
66 230 m 256
 105 346 215 472 348 469 c 256
 474 466 485 324 454 230 c 256
 417 120 313 -8 186 -9 c 256
 53 -10 32 128 66 230 c 256
76 230 m 256
 42 132 62 0 190 1 c 256
 312 2 415 129 450 235 c 256
 479 322 464 455 349 459 c 256
 222 464 114 341 76 230 c 256
363 541 m 256
 364 545 372 552 377 552 c 256
 382 552 385 546 384 541 c 256
 383 537 375 530 370 530 c 256
 365 530 362 536 363 541 c 256
EndSplineSet
EndChar

StartChar: uni0122
Encoding: 290 290 280
GlifName: uni0122
Width: 719
VWidth: 0
Flags: HMW
LayerCount: 2
Fore
SplineSet
454 330 m 257
 457 340 l 257
 730 339 l 257
 660 169 511 -7 311 -7 c 256
 113 -7 58 188 112 350 c 256
 173 533 350 709 553 708 c 256
 656 708 727 649 765 556 c 257
 754 550 l 257
 723 642 650 697 552 697 c 256
 354 698 184 528 123 350 c 256
 70 194 120 4 313 4 c 256
 504 4 646 169 717 329 c 257
 454 330 l 257
335 -70 m 257
 345 -75 l 257
 152 -321 l 257
 146 -319 l 257
 335 -70 l 257
EndSplineSet
EndChar

StartChar: Hcircumflex
Encoding: 292 292 281
GlifName: H_circumflex
Width: 608
VWidth: 0
Flags: HMW
LayerCount: 2
Fore
SplineSet
162 377 m 257
 165 387 l 257
 598 387 l 257
 595 377 l 257
 162 377 l 257
699 699 m 257
 710 699 l 257
 469 0 l 257
 458 0 l 257
 699 699 l 257
270 699 m 257
 281 699 l 257
 40 0 l 257
 29 0 l 257
 270 699 l 257
560 902 m 257
 367 770 l 257
 363 777 l 257
 562 914 l 257
 667 775 l 257
 657 768 l 257
 560 902 l 257
EndSplineSet
EndChar

StartChar: hcircumflex
Encoding: 293 293 282
GlifName: hcircumflex
Width: 446
VWidth: 0
Flags: HMW
LayerCount: 2
Fore
SplineSet
303 779 m 257
 34 0 l 257
 24 0 l 257
 293 779 l 257
 303 779 l 257
413 320 m 258
 432 384 429 457 346 459 c 256
 244 461 170 363 129 282 c 257
 124 282 l 257
 165 369 239 470 347 469 c 256
 436 468 444 389 423 320 c 258
 311 0 l 257
 302 0 l 257
 413 320 l 258
372 974 m 257
 179 842 l 257
 175 849 l 257
 374 986 l 257
 479 847 l 257
 469 840 l 257
 372 974 l 257
EndSplineSet
EndChar

StartChar: Itilde
Encoding: 296 296 283
GlifName: I_tilde
Width: 169
VWidth: 0
Flags: HMW
LayerCount: 2
Fore
SplineSet
266 699 m 257
 276 699 l 257
 34 0 l 257
 24 0 l 257
 266 699 l 257
204 832 m 257
 223 859 246 888 283 888 c 256
 323 888 344 841 384 843 c 256
 413 844 435 870 454 889 c 257
 463 886 l 257
 442 864 416 835 382 835 c 256
 343 835 323 879 284 880 c 256
 251 881 230 855 213 831 c 257
 204 832 l 257
EndSplineSet
EndChar

StartChar: itilde
Encoding: 297 297 284
GlifName: itilde
Width: 178
VWidth: 0
Flags: HMW
LayerCount: 2
Fore
SplineSet
189 459 m 257
 198 459 l 257
 39 0 l 257
 29 0 l 257
 189 459 l 257
129 592 m 257
 148 619 171 648 208 648 c 256
 248 648 268 601 308 603 c 256
 337 604 360 630 379 649 c 257
 387 646 l 257
 366 624 341 595 307 595 c 256
 268 595 248 639 209 640 c 256
 176 641 155 615 138 591 c 257
 129 592 l 257
EndSplineSet
EndChar

StartChar: Imacron
Encoding: 298 298 285
GlifName: I_macron
Width: 169
VWidth: 0
Flags: HMW
LayerCount: 2
Fore
SplineSet
266 699 m 257
 276 699 l 257
 34 0 l 257
 24 0 l 257
 266 699 l 257
182 835 m 257
 185 845 l 257
 515 845 l 257
 511 835 l 257
 182 835 l 257
EndSplineSet
EndChar

StartChar: imacron
Encoding: 299 299 286
GlifName: imacron
Width: 178
VWidth: 0
Flags: HMW
LayerCount: 2
Fore
SplineSet
189 459 m 257
 198 459 l 257
 39 0 l 257
 29 0 l 257
 189 459 l 257
106 595 m 257
 110 605 l 257
 439 605 l 257
 436 595 l 257
 106 595 l 257
EndSplineSet
EndChar

StartChar: Ibreve
Encoding: 300 300 287
GlifName: I_breve
Width: 169
VWidth: 0
Flags: HMW
LayerCount: 2
Fore
SplineSet
266 699 m 257
 276 699 l 257
 34 0 l 257
 24 0 l 257
 266 699 l 257
191 910 m 257
 200 910 l 257
 188 840 214 782 293 781 c 256
 377 780 441 840 480 908 c 257
 490 908 l 257
 450 833 382 770 292 771 c 256
 206 772 177 833 191 910 c 257
EndSplineSet
EndChar

StartChar: ibreve
Encoding: 301 301 288
GlifName: ibreve
Width: 178
VWidth: 0
Flags: HMW
LayerCount: 2
Fore
SplineSet
189 459 m 257
 198 459 l 257
 39 0 l 257
 29 0 l 257
 189 459 l 257
115 670 m 257
 125 670 l 257
 113 600 139 542 218 541 c 256
 302 540 365 600 404 668 c 257
 414 668 l 257
 374 593 307 530 217 531 c 256
 131 532 101 593 115 670 c 257
EndSplineSet
EndChar

StartChar: Iogonek
Encoding: 302 302 289
GlifName: I_ogonek
Width: 169
VWidth: 0
Flags: HMW
LayerCount: 2
Fore
SplineSet
266 699 m 257
 276 699 l 257
 34 0 l 257
 24 0 l 257
 266 699 l 257
8 -174 m 257
 13 -182 l 257
 -19 -202 -54 -220 -93 -219 c 256
 -140 -218 -178 -190 -164 -139 c 256
 -142 -59 -35 -21 32 9 c 257
 36 0 l 257
 -26 -30 -135 -64 -155 -140 c 256
 -167 -184 -131 -208 -91 -209 c 256
 -55 -210 -22 -191 8 -174 c 257
EndSplineSet
EndChar

StartChar: iogonek
Encoding: 303 303 290
GlifName: iogonek
Width: 178
VWidth: 0
Flags: HMW
LayerCount: 2
Fore
SplineSet
263 695 m 256
 264 699 270 705 275 705 c 256
 280 705 283 700 282 695 c 256
 281 691 274 685 269 685 c 256
 264 685 262 690 263 695 c 256
189 459 m 257
 198 459 l 257
 39 0 l 257
 29 0 l 257
 189 459 l 257
13 -174 m 257
 18 -182 l 257
 -14 -202 -49 -220 -88 -219 c 256
 -135 -218 -173 -190 -159 -139 c 256
 -137 -59 -30 -20 37 9 c 257
 41 0 l 257
 -21 -30 -130 -64 -150 -140 c 256
 -162 -184 -126 -208 -86 -209 c 256
 -50 -210 -17 -191 13 -174 c 257
EndSplineSet
EndChar

StartChar: Idotaccent
Encoding: 304 304 291
GlifName: I_dotaccent
Width: 169
VWidth: 0
Flags: HMW
LayerCount: 2
Fore
SplineSet
266 699 m 257
 276 699 l 257
 34 0 l 257
 24 0 l 257
 266 699 l 257
288 786 m 256
 289 790 297 797 302 797 c 256
 307 797 310 791 309 786 c 256
 308 782 300 775 295 775 c 256
 290 775 287 781 288 786 c 256
EndSplineSet
EndChar

StartChar: uni0136
Encoding: 310 310 292
GlifName: uni0136
Width: 427
VWidth: 0
Flags: HMW
LayerCount: 2
Fore
SplineSet
266 699 m 257
 276 699 l 257
 35 0 l 257
 24 0 l 257
 266 699 l 257
569 698 m 257
 585 698 l 257
 175 371 l 257
 359 0 l 257
 344 0 l 257
 161 373 l 257
 569 698 l 257
217 -62 m 257
 227 -67 l 257
 35 -313 l 257
 29 -311 l 257
 217 -62 l 257
EndSplineSet
EndChar

StartChar: uni0137
Encoding: 311 311 293
GlifName: uni0137
Width: 350
VWidth: 0
Flags: HMW
LayerCount: 2
Fore
SplineSet
288 779 m 257
 298 779 l 257
 29 0 l 257
 20 0 l 257
 288 779 l 257
411 458 m 257
 427 458 l 257
 133 270 l 257
 287 0 l 257
 274 0 l 257
 120 271 l 257
 411 458 l 257
179 -62 m 257
 188 -67 l 257
 -4 -313 l 257
 -10 -311 l 257
 179 -62 l 257
EndSplineSet
EndChar

StartChar: Lacute
Encoding: 313 313 294
GlifName: L_acute
Width: 404
VWidth: 0
Flags: HMW
LayerCount: 2
Fore
SplineSet
270 699 m 257
 280 699 l 257
 43 10 l 257
 335 10 l 257
 332 0 l 257
 30 0 l 257
 270 699 l 257
664 923 m 257
 444 770 l 257
 442 775 l 257
 658 931 l 257
 664 923 l 257
EndSplineSet
EndChar

StartChar: lacute
Encoding: 314 314 295
GlifName: lacute
Width: 169
VWidth: 0
Flags: HMW
LayerCount: 2
Fore
SplineSet
293 779 m 257
 303 779 l 257
 34 0 l 257
 24 0 l 257
 293 779 l 257
538 995 m 257
 318 842 l 257
 316 847 l 257
 532 1003 l 257
 538 995 l 257
EndSplineSet
EndChar

StartChar: uni013B
Encoding: 315 315 296
GlifName: uni013B_
Width: 404
VWidth: 0
Flags: HMW
LayerCount: 2
Fore
SplineSet
270 699 m 257
 280 699 l 257
 43 10 l 257
 335 10 l 257
 332 0 l 257
 30 0 l 257
 270 699 l 257
168 -62 m 257
 178 -67 l 257
 -14 -313 l 257
 -20 -311 l 257
 168 -62 l 257
EndSplineSet
EndChar

StartChar: uni013C
Encoding: 316 316 297
GlifName: uni013C_
Width: 169
VWidth: 0
Flags: HMW
LayerCount: 2
Fore
SplineSet
293 779 m 257
 303 779 l 257
 34 0 l 257
 24 0 l 257
 293 779 l 257
37 -62 m 257
 46 -67 l 257
 -146 -313 l 257
 -152 -311 l 257
 37 -62 l 257
EndSplineSet
EndChar

StartChar: Lcaron
Encoding: 317 317 298
GlifName: L_caron
Width: 404
VWidth: 0
Flags: HMW
LayerCount: 2
Fore
SplineSet
270 699 m 257
 280 699 l 257
 43 10 l 257
 335 10 l 257
 332 0 l 257
 30 0 l 257
 270 699 l 257
513 706 m 257
 523 701 l 257
 331 455 l 257
 325 457 l 257
 513 706 l 257
EndSplineSet
EndChar

StartChar: lcaron
Encoding: 318 318 299
GlifName: lcaron
Width: 216
VWidth: 0
Flags: HMW
LayerCount: 2
Fore
SplineSet
293 779 m 257
 303 779 l 257
 34 0 l 257
 24 0 l 257
 293 779 l 257
509 762 m 257
 519 757 l 257
 326 511 l 257
 320 513 l 257
 509 762 l 257
EndSplineSet
EndChar

StartChar: Ldot
Encoding: 319 319 300
GlifName: L_dot
Width: 404
VWidth: 0
Flags: HMW
LayerCount: 2
Fore
SplineSet
270 699 m 257
 280 699 l 257
 43 10 l 257
 335 10 l 257
 332 0 l 257
 30 0 l 257
 270 699 l 257
340 414 m 256
 341 418 349 425 354 425 c 256
 359 425 362 419 361 414 c 256
 360 410 352 403 347 403 c 256
 342 403 339 409 340 414 c 256
EndSplineSet
EndChar

StartChar: ldot
Encoding: 320 320 301
GlifName: ldot
Width: 348
VWidth: 0
Flags: HMW
LayerCount: 2
Fore
SplineSet
293 779 m 257
 303 779 l 257
 34 0 l 257
 24 0 l 257
 293 779 l 257
297 396 m 256
 298 400 306 407 311 407 c 256
 316 407 319 401 318 396 c 256
 317 392 309 385 304 385 c 256
 299 385 296 391 297 396 c 256
EndSplineSet
EndChar

StartChar: eth
Encoding: 240 240 302
GlifName: eth
Width: 504
VWidth: 0
Flags: HMW
LayerCount: 2
Fore
SplineSet
469 220 m 256
 503 324 452 427 335 426 c 256
 221 425 113 323 77 220 c 256
 42 120 75 2 197 1 c 256
 321 0 432 108 469 220 c 256
378 700 m 257
 480 379 l 258
 495 327 496 272 479 220 c 256
 441 101 327 -10 196 -9 c 256
 66 -8 30 114 67 221 c 256
 105 330 215 436 336 436 c 256
 398 436 443 405 476 354 c 257
 476 355 l 257
 367 700 l 257
 378 700 l 257
278 575 m 257
 282 585 l 257
 536 585 l 257
 533 575 l 257
 278 575 l 257
EndSplineSet
EndChar

StartChar: racute
Encoding: 341 341 303
GlifName: racute
Width: 272
VWidth: 0
Flags: HMW
LayerCount: 2
Fore
SplineSet
194 459 m 257
 34 0 l 257
 24 0 l 257
 184 459 l 257
 194 459 l 257
351 440 m 257
 336 449 322 458 304 459 c 256
 213 464 159 349 129 281 c 257
 124 281 l 257
 155 354 208 476 305 469 c 256
 325 468 341 457 358 447 c 257
 351 440 l 257
479 685 m 257
 260 532 l 257
 257 537 l 257
 473 693 l 257
 479 685 l 257
EndSplineSet
EndChar

StartChar: rcaron
Encoding: 345 345 304
GlifName: rcaron
Width: 272
VWidth: 0
Flags: HMW
LayerCount: 2
Fore
SplineSet
194 459 m 257
 34 0 l 257
 24 0 l 257
 184 459 l 257
 194 459 l 257
351 440 m 257
 336 449 322 458 304 459 c 256
 213 464 159 349 129 281 c 257
 124 281 l 257
 155 354 208 476 305 469 c 256
 325 468 341 457 358 447 c 257
 351 440 l 257
299 543 m 257
 490 676 l 257
 496 668 l 257
 297 531 l 257
 192 670 l 257
 202 678 l 257
 299 543 l 257
EndSplineSet
EndChar

StartChar: Rcaron
Encoding: 344 344 305
GlifName: R_caron
Width: 440
VWidth: 0
Flags: HMW
LayerCount: 2
Fore
SplineSet
241 317 m 257
 252 317 l 257
 353 0 l 257
 341 0 l 257
 241 317 l 257
270 699 m 257
 281 699 l 257
 40 0 l 257
 29 0 l 257
 270 699 l 257
267 689 m 257
 271 700 l 257
 377 700 l 256
 490 696 574 626 534 507 c 256
 493 384 371 318 247 314 c 256
 139 314 l 257
 143 324 l 257
 248 324 l 256
 366 328 484 390 524 507 c 256
 563 621 483 684 375 689 c 256
 267 689 l 257
425 781 m 257
 616 914 l 257
 622 906 l 257
 423 769 l 257
 319 908 l 257
 328 916 l 257
 425 781 l 257
EndSplineSet
EndChar

StartChar: uni0213
Encoding: 531 531 306
GlifName: uni0213
Width: 272
VWidth: 0
Flags: HMW
LayerCount: 2
Fore
SplineSet
194 459 m 257
 34 0 l 257
 24 0 l 257
 184 459 l 257
 194 459 l 257
351 440 m 257
 336 449 322 458 304 459 c 256
 213 464 159 349 129 281 c 257
 124 281 l 257
 155 354 208 476 305 469 c 256
 325 468 341 457 358 447 c 257
 351 440 l 257
152 551 m 257
 161 551 l 257
 200 620 262 679 346 679 c 256
 426 679 452 621 441 550 c 257
 450 550 l 257
 465 626 438 688 352 689 c 256
 261 690 193 626 152 551 c 257
EndSplineSet
EndChar

StartChar: uni0212
Encoding: 530 530 307
GlifName: uni0212
Width: 440
VWidth: 0
Flags: HMW
LayerCount: 2
Fore
SplineSet
241 317 m 257
 252 317 l 257
 353 0 l 257
 341 0 l 257
 241 317 l 257
270 699 m 257
 281 699 l 257
 40 0 l 257
 29 0 l 257
 270 699 l 257
267 689 m 257
 271 700 l 257
 377 700 l 256
 490 696 574 626 534 507 c 256
 493 384 371 318 247 314 c 256
 139 314 l 257
 143 324 l 257
 248 324 l 256
 366 328 484 390 524 507 c 256
 563 621 483 684 375 689 c 256
 267 689 l 257
300 769 m 257
 309 769 l 257
 348 838 410 897 494 897 c 256
 574 897 600 839 589 768 c 257
 598 768 l 257
 613 844 586 906 500 907 c 256
 409 908 341 844 300 769 c 257
EndSplineSet
EndChar

StartChar: OE
Encoding: 338 338 308
GlifName: O_E_
Width: 894
VWidth: 0
Flags: HMW
LayerCount: 2
Fore
SplineSet
563 385 m 257
 567 395 l 257
 880 395 l 257
 877 385 l 257
 563 385 l 257
669 694 m 257
 679 694 l 257
 441 6 l 257
 431 6 l 257
 669 694 l 257
769 10 m 257
 766 0 l 257
 314 0 l 256
 118 7 44 177 102 350 c 256
 166 541 345 694 550 700 c 256
 1003 700 l 257
 1000 690 l 257
 675 690 l 257
 659 690 l 257
 549 690 l 256
 352 684 175 533 112 350 c 256
 56 185 127 17 315 10 c 256
 421 10 l 257
 444 10 l 257
 769 10 l 257
EndSplineSet
EndChar

StartChar: oe
Encoding: 339 339 309
GlifName: oe
Width: 871
VWidth: 0
Flags: HMW
LayerCount: 2
Fore
SplineSet
849 250 m 257
 882 343 846 457 733 458 c 256
 602 459 506 341 455 234 c 257
 457 233 l 257
 427 131 439 3 573 1 c 256
 662 0 737 53 799 111 c 257
 805 104 l 257
 740 46 663 -11 572 -9 c 256
 440 -6 415 125 449 230 c 256
 454 247 461 263 469 279 c 256
 518 375 618 470 733 469 c 256
 850 468 895 352 861 253 c 256
 858 245 854 237 850 229 c 257
 840 230 l 257
 849 250 l 257
452 228 m 257
 455 238 l 257
 854 238 l 257
 851 228 l 257
 452 228 l 257
66 230 m 256
 105 345 212 471 343 469 c 256
 471 467 489 327 456 230 c 256
 418 117 311 -9 182 -9 c 256
 50 -9 32 130 66 230 c 256
76 230 m 256
 43 134 58 1 185 1 c 256
 307 1 412 123 449 230 c 256
 480 321 466 456 345 459 c 256
 218 462 114 340 76 230 c 256
EndSplineSet
EndChar

StartChar: a.alt
Encoding: 65536 -1 310
GlifName: a.alt
Width: 509
VWidth: 0
Flags: HMW
LayerCount: 2
Fore
SplineSet
528 459 m 257
 538 459 l 257
 378 0 l 257
 369 0 l 257
 528 459 l 257
66 230 m 256
 105 346 215 472 348 469 c 256
 474 466 485 324 454 230 c 256
 417 120 313 -8 186 -9 c 256
 53 -10 32 128 66 230 c 256
76 230 m 256
 43 133 62 -1 190 1 c 256
 310 3 413 125 449 230 c 256
 479 318 467 455 349 459 c 256
 222 464 114 341 76 230 c 256
EndSplineSet
EndChar

StartChar: Jcircumflex
Encoding: 308 308 312
GlifName: J_circumflex
Width: 185
VWidth: 0
Flags: HMW
LayerCount: 2
Fore
SplineSet
-229 -159 m 257
 -206 -186 -181 -207 -143 -208 c 256
 -52 -211 -8 -124 19 -50 c 258
 276 699 l 257
 287 699 l 257
 27 -60 l 258
 -1 -137 -50 -222 -143 -219 c 256
 -185 -218 -213 -196 -237 -165 c 257
 -229 -159 l 257
351 902 m 257
 158 770 l 257
 155 777 l 257
 354 914 l 257
 458 775 l 257
 448 768 l 257
 351 902 l 257
EndSplineSet
EndChar

StartChar: jcircumflex
Encoding: 309 309 313
GlifName: jcircumflex
Width: 169
VWidth: 0
Flags: HMW
LayerCount: 2
Fore
SplineSet
-202 -165 m 257
 -188 -187 -173 -207 -144 -209 c 256
 -74 -213 -29 -138 -7 -82 c 258
 179 459 l 257
 189 459 l 257
 3 -82 l 258
 -20 -143 -70 -224 -146 -219 c 256
 -178 -217 -195 -197 -211 -172 c 257
 -202 -165 l 257
254 664 m 257
 62 532 l 257
 57 539 l 257
 256 676 l 257
 360 537 l 257
 352 530 l 257
 254 664 l 257
EndSplineSet
EndChar

StartChar: Nacute
Encoding: 323 323 314
GlifName: N_acute
Width: 625
VWidth: 0
Flags: HMW
LayerCount: 2
Fore
SplineSet
735 699 m 257
 746 699 l 257
 500 -15 l 257
 236 678 l 257
 2 0 l 257
 -9 0 l 257
 237 715 l 257
 500 17 l 257
 735 699 l 257
706 910 m 257
 487 757 l 257
 484 762 l 257
 701 918 l 257
 706 910 l 257
EndSplineSet
EndChar

StartChar: nacute
Encoding: 324 324 315
GlifName: nacute
Width: 446
VWidth: 0
Flags: HMW
LayerCount: 2
Fore
SplineSet
194 459 m 257
 34 0 l 257
 24 0 l 257
 184 459 l 257
 194 459 l 257
413 320 m 258
 432 384 429 457 346 459 c 256
 244 461 170 363 129 282 c 257
 124 282 l 257
 165 369 239 470 347 469 c 256
 436 468 444 389 423 320 c 258
 311 0 l 257
 302 0 l 257
 413 320 l 258
545 695 m 257
 327 542 l 257
 323 547 l 257
 540 703 l 257
 545 695 l 257
EndSplineSet
EndChar

StartChar: uni0145
Encoding: 325 325 316
GlifName: uni0145
Width: 625
VWidth: 0
Flags: HMW
LayerCount: 2
Fore
SplineSet
254 -47 m 257
 263 -52 l 257
 71 -298 l 257
 65 -296 l 257
 254 -47 l 257
735 699 m 257
 746 699 l 257
 500 -15 l 257
 236 678 l 257
 2 0 l 257
 -9 0 l 257
 237 715 l 257
 500 17 l 257
 735 699 l 257
EndSplineSet
EndChar

StartChar: uni0146
Encoding: 326 326 317
GlifName: uni0146
Width: 446
VWidth: 0
Flags: HMW
LayerCount: 2
Fore
SplineSet
194 459 m 257
 34 0 l 257
 24 0 l 257
 184 459 l 257
 194 459 l 257
413 320 m 258
 432 384 429 457 346 459 c 256
 244 461 170 363 129 282 c 257
 124 282 l 257
 165 369 239 470 347 469 c 256
 436 468 444 389 423 320 c 258
 311 0 l 257
 302 0 l 257
 413 320 l 258
172 -42 m 257
 183 -47 l 257
 -9 -293 l 257
 -15 -291 l 257
 172 -42 l 257
EndSplineSet
EndChar

StartChar: Ncaron
Encoding: 327 327 318
GlifName: N_caron
Width: 625
VWidth: 0
Flags: HMW
LayerCount: 2
Fore
SplineSet
530 778 m 257
 721 911 l 257
 726 903 l 257
 527 766 l 257
 423 905 l 257
 433 913 l 257
 530 778 l 257
735 699 m 257
 746 699 l 257
 500 -15 l 257
 236 678 l 257
 2 0 l 257
 -9 0 l 257
 237 715 l 257
 500 17 l 257
 735 699 l 257
EndSplineSet
EndChar

StartChar: ncaron
Encoding: 328 328 319
GlifName: ncaron
Width: 446
VWidth: 0
Flags: HMW
LayerCount: 2
Fore
SplineSet
194 459 m 257
 34 0 l 257
 24 0 l 257
 184 459 l 257
 194 459 l 257
413 320 m 258
 432 384 429 457 346 459 c 256
 244 461 170 363 129 282 c 257
 124 282 l 257
 165 369 239 470 347 469 c 256
 436 468 444 389 423 320 c 258
 311 0 l 257
 302 0 l 257
 413 320 l 258
354 543 m 257
 545 676 l 257
 550 668 l 257
 351 531 l 257
 247 670 l 257
 257 678 l 257
 354 543 l 257
EndSplineSet
EndChar

StartChar: Omacron
Encoding: 332 332 320
GlifName: O_macron
Width: 728
VWidth: 0
Flags: HMW
LayerCount: 2
Fore
SplineSet
123 350 m 256
 70 194 117 4 310 3 c 256
 507 2 676 174 736 350 c 256
 789 506 742 696 549 697 c 256
 352 698 183 526 123 350 c 256
112 350 m 256
 173 532 348 709 550 708 c 256
 748 707 801 512 747 350 c 256
 686 168 511 -9 309 -8 c 256
 111 -7 58 188 112 350 c 256
414 788 m 257
 417 798 l 257
 747 798 l 257
 744 788 l 257
 414 788 l 257
EndSplineSet
EndChar

StartChar: omacron
Encoding: 333 333 321
GlifName: omacron
Width: 523
VWidth: 0
Flags: HMW
LayerCount: 2
Fore
SplineSet
66 230 m 256
 107 353 230 470 366 469 c 256
 499 468 543 341 506 230 c 256
 465 107 341 -10 205 -9 c 256
 72 -8 29 119 66 230 c 256
76 230 m 256
 40 124 79 2 206 1 c 256
 336 0 456 112 496 230 c 256
 532 336 493 458 366 459 c 256
 236 460 116 348 76 230 c 256
230 550 m 257
 234 560 l 257
 563 560 l 257
 560 550 l 257
 230 550 l 257
EndSplineSet
EndChar

StartChar: Obreve
Encoding: 334 334 322
GlifName: O_breve
Width: 728
VWidth: 0
Flags: HMW
LayerCount: 2
Fore
SplineSet
123 350 m 256
 70 194 117 4 310 3 c 256
 507 2 676 174 736 350 c 256
 789 506 742 696 549 697 c 256
 352 698 183 526 123 350 c 256
112 350 m 256
 173 532 348 709 550 708 c 256
 748 707 801 512 747 350 c 256
 686 168 511 -9 309 -8 c 256
 111 -7 58 188 112 350 c 256
471 908 m 257
 481 908 l 257
 469 838 495 780 574 779 c 256
 658 778 721 838 760 906 c 257
 770 906 l 257
 730 831 663 768 573 769 c 256
 487 770 457 831 471 908 c 257
EndSplineSet
EndChar

StartChar: obreve
Encoding: 335 335 323
GlifName: obreve
Width: 523
VWidth: 0
Flags: HMW
LayerCount: 2
Fore
SplineSet
66 230 m 256
 107 353 230 470 366 469 c 256
 499 468 543 341 506 230 c 256
 465 107 341 -10 205 -9 c 256
 72 -8 29 119 66 230 c 256
76 230 m 256
 40 124 79 2 206 1 c 256
 336 0 456 112 496 230 c 256
 532 336 493 458 366 459 c 256
 236 460 116 348 76 230 c 256
288 670 m 257
 297 670 l 257
 285 600 311 542 390 541 c 256
 474 540 538 600 577 668 c 257
 587 668 l 257
 547 593 479 530 389 531 c 256
 303 532 274 593 288 670 c 257
EndSplineSet
EndChar

StartChar: Racute
Encoding: 340 340 324
GlifName: R_acute
Width: 440
VWidth: 0
Flags: HMW
LayerCount: 2
Fore
SplineSet
241 317 m 257
 252 317 l 257
 353 0 l 257
 341 0 l 257
 241 317 l 257
270 699 m 257
 281 699 l 257
 40 0 l 257
 29 0 l 257
 270 699 l 257
267 689 m 257
 271 700 l 257
 377 700 l 256
 490 696 574 626 534 507 c 256
 493 384 371 318 247 314 c 256
 139 314 l 257
 143 324 l 257
 248 324 l 256
 366 328 484 390 524 507 c 256
 563 621 483 684 375 689 c 256
 267 689 l 257
604 923 m 257
 386 770 l 257
 382 775 l 257
 599 931 l 257
 604 923 l 257
EndSplineSet
EndChar

StartChar: uni0156
Encoding: 342 342 325
GlifName: uni0156
Width: 440
VWidth: 0
Flags: HMW
LayerCount: 2
Fore
SplineSet
241 317 m 257
 252 317 l 257
 353 -0 l 257
 341 0 l 257
 241 317 l 257
270 699 m 257
 281 699 l 257
 40 0 l 257
 29 0 l 257
 270 699 l 257
267 689 m 257
 271 700 l 257
 377 700 l 256
 490 696 574 626 534 507 c 256
 493 384 371 318 247 314 c 256
 139 314 l 257
 143 324 l 257
 248 324 l 256
 366 328 484 390 524 507 c 256
 563 621 483 684 375 689 c 256
 267 689 l 257
169 -62 m 257
 180 -67 l 257
 -12 -313 l 257
 -18 -311 l 257
 169 -62 l 257
EndSplineSet
EndChar

StartChar: uni0157
Encoding: 343 343 326
GlifName: uni0157
Width: 272
VWidth: 0
Flags: HMW
LayerCount: 2
Fore
SplineSet
194 459 m 257
 34 0 l 257
 24 0 l 257
 184 459 l 257
 194 459 l 257
351 440 m 257
 336 449 322 458 304 459 c 256
 213 464 159 349 129 281 c 257
 124 281 l 257
 155 354 208 476 305 469 c 256
 325 468 341 457 358 447 c 257
 351 440 l 257
18 -62 m 257
 27 -67 l 257
 -165 -313 l 257
 -171 -311 l 257
 18 -62 l 257
EndSplineSet
EndChar

StartChar: Scedilla
Encoding: 350 350 327
GlifName: S_cedilla
Width: 459
VWidth: 0
Flags: HMW
LayerCount: 2
Fore
SplineSet
60 197 m 257
 59 110 77 6 185 4 c 256
 289 2 381 78 412 175 c 256
 439 261 393 320 320 359 c 256
 244 399 177 455 208 550 c 256
 237 637 332 708 424 707 c 256
 517 706 546 631 546 550 c 257
 536 548 l 257
 536 623 510 695 423 696 c 256
 337 697 247 631 219 550 c 256
 187 459 255 406 327 368 c 256
 404 328 451 265 423 175 c 256
 391 73 294 -9 184 -7 c 256
 71 -5 49 100 50 193 c 257
 60 197 l 257
180 -2 m 257
 192 -2 l 257
 111 -76 l 257
 133 -66 161 -51 186 -54 c 256
 225 -58 241 -92 231 -128 c 256
 217 -181 151 -221 98 -220 c 256
 66 -220 46 -204 25 -183 c 257
 33 -177 l 257
 52 -195 71 -210 99 -210 c 256
 147 -210 207 -175 221 -127 c 256
 230 -97 217 -68 184 -64 c 256
 155 -60 123 -77 97 -88 c 257
 180 -2 l 257
EndSplineSet
EndChar

StartChar: scedilla
Encoding: 351 351 328
GlifName: scedilla
Width: 379
VWidth: 0
Flags: HMW
LayerCount: 2
Fore
SplineSet
43 147 m 257
 37 80 46 1 131 0 c 256
 198 -1 269 53 289 117 c 256
 309 180 262 210 211 231 c 256
 152 256 106 288 131 359 c 256
 154 423 223 468 290 467 c 256
 353 466 376 424 383 368 c 257
 373 365 l 257
 366 416 347 456 289 457 c 256
 228 458 161 417 140 359 c 256
 115 291 163 263 218 240 c 256
 273 217 319 183 299 117 c 256
 278 47 203 -10 130 -9 c 256
 39 -8 26 70 33 144 c 257
 43 147 l 257
126 -4 m 257
 138 -4 l 257
 57 -78 l 257
 79 -68 106 -53 131 -56 c 256
 170 -60 186 -94 176 -130 c 256
 162 -183 96 -223 43 -222 c 256
 11 -222 -8 -206 -29 -185 c 257
 -21 -179 l 257
 -2 -197 17 -212 45 -212 c 256
 93 -212 153 -177 167 -129 c 256
 176 -99 163 -70 130 -66 c 256
 101 -62 69 -79 43 -90 c 257
 126 -4 l 257
EndSplineSet
EndChar

StartChar: Zcaron
Encoding: 381 381 329
GlifName: Z_caron
Width: 503
VWidth: 0
Flags: HMW
LayerCount: 2
Fore
SplineSet
218 689 m 257
 222 700 l 257
 675 699 l 257
 -10 12 l 257
 430 11 l 257
 426 0 l 257
 -37 0 l 257
 649 688 l 257
 218 689 l 257
474 781 m 257
 665 914 l 257
 671 906 l 257
 472 769 l 257
 368 908 l 257
 377 916 l 257
 474 781 l 257
EndSplineSet
EndChar

StartChar: zcaron
Encoding: 382 382 330
GlifName: zcaron
Width: 404
VWidth: 0
Flags: HMW
LayerCount: 2
Fore
SplineSet
337 543 m 257
 528 676 l 257
 533 668 l 257
 334 531 l 257
 230 670 l 257
 240 678 l 257
 337 543 l 257
456 449 m 257
 137 450 l 257
 140 460 l 257
 480 459 l 257
 -13 11 l 257
 335 10 l 257
 332 0 l 257
 -37 0 l 257
 456 449 l 257
EndSplineSet
EndChar

StartChar: Ydieresis
Encoding: 376 376 331
GlifName: Y_dieresis
Width: 477
VWidth: 0
Flags: HMW
LayerCount: 2
Fore
SplineSet
354 780 m 256
 355 785 364 790 369 790 c 256
 374 790 378 784 377 779 c 256
 376 775 368 768 363 768 c 256
 358 768 353 775 354 780 c 256
524 780 m 256
 525 785 534 790 539 790 c 256
 544 790 547 784 546 779 c 256
 545 775 537 768 532 768 c 256
 527 768 523 775 524 780 c 256
636 698 m 257
 649 698 l 257
 276 266 l 257
 184 0 l 257
 173 0 l 257
 266 267 l 257
 199 700 l 257
 211 700 l 257
 274 282 l 257
 636 698 l 257
EndSplineSet
EndChar

StartChar: Scaron
Encoding: 352 352 332
GlifName: S_caron
Width: 459
VWidth: 0
Flags: HMW
LayerCount: 2
Fore
SplineSet
60 197 m 257
 59 110 77 6 185 4 c 256
 289 2 381 78 412 175 c 256
 439 261 393 320 320 359 c 256
 244 399 177 455 208 550 c 256
 237 637 332 708 424 707 c 256
 517 706 546 631 546 550 c 257
 536 548 l 257
 536 623 510 695 423 696 c 256
 337 697 247 631 219 550 c 256
 187 459 255 406 327 368 c 256
 404 328 451 265 423 175 c 256
 391 73 294 -9 184 -7 c 256
 71 -5 49 100 50 193 c 257
 60 197 l 257
452 791 m 257
 643 924 l 257
 649 916 l 257
 450 779 l 257
 346 918 l 257
 355 926 l 257
 452 791 l 257
EndSplineSet
EndChar

StartChar: scaron
Encoding: 353 353 333
GlifName: scaron
Width: 379
VWidth: 0
Flags: HMW
LayerCount: 2
Fore
SplineSet
43 147 m 257
 37 80 46 1 131 0 c 256
 198 -1 269 53 289 117 c 256
 309 180 262 210 211 231 c 256
 152 256 106 288 131 359 c 256
 154 423 223 468 290 467 c 256
 353 466 376 424 383 368 c 257
 373 365 l 257
 366 416 347 456 289 457 c 256
 228 458 161 417 140 359 c 256
 115 291 163 263 218 240 c 256
 273 217 319 183 299 117 c 256
 278 47 203 -10 130 -9 c 256
 39 -8 26 70 33 144 c 257
 43 147 l 257
315 543 m 257
 506 676 l 257
 512 668 l 257
 313 531 l 257
 208 670 l 257
 218 678 l 257
 315 543 l 257
EndSplineSet
EndChar

StartChar: Lslash
Encoding: 321 321 334
GlifName: L_slash
Width: 352
VWidth: 0
Flags: HMW
LayerCount: 2
Fore
SplineSet
69 388 m 257
 66 397 l 257
 379 564 l 257
 382 555 l 257
 69 388 l 257
261 699 m 257
 272 699 l 257
 35 10 l 257
 293 10 l 257
 289 0 l 257
 20 0 l 257
 261 699 l 257
EndSplineSet
EndChar

StartChar: lslash
Encoding: 322 322 335
GlifName: lslash
Width: 150
VWidth: 0
Flags: HMW
LayerCount: 2
Fore
SplineSet
70 389 m 257
 65 397 l 257
 287 543 l 257
 292 535 l 257
 70 389 l 257
284 779 m 257
 293 779 l 257
 25 0 l 257
 15 0 l 257
 284 779 l 257
EndSplineSet
EndChar

StartChar: uni0218
Encoding: 536 536 336
GlifName: uni0218
Width: 459
VWidth: 0
Flags: HMW
LayerCount: 2
Fore
SplineSet
60 197 m 257
 59 110 77 6 185 4 c 256
 289 2 381 78 412 175 c 256
 439 261 393 320 320 359 c 256
 244 399 177 455 208 550 c 256
 237 637 332 708 424 707 c 256
 517 706 546 631 546 550 c 257
 536 548 l 257
 536 623 510 695 423 696 c 256
 337 697 247 631 219 550 c 256
 187 459 255 406 327 368 c 256
 404 328 451 265 423 175 c 256
 391 73 294 -9 184 -7 c 256
 71 -5 49 100 50 193 c 257
 60 197 l 257
208 -70 m 257
 218 -75 l 257
 25 -321 l 257
 19 -319 l 257
 208 -70 l 257
EndSplineSet
EndChar

StartChar: uni0219
Encoding: 537 537 337
GlifName: uni0219
Width: 379
VWidth: 0
Flags: HMW
LayerCount: 2
Fore
SplineSet
43 147 m 257
 37 80 46 1 131 0 c 256
 198 -1 269 53 289 117 c 256
 309 180 262 210 211 231 c 256
 152 256 106 288 131 359 c 256
 154 423 223 468 290 467 c 256
 353 466 376 424 383 368 c 257
 373 365 l 257
 366 416 347 456 289 457 c 256
 228 458 161 417 140 359 c 256
 115 291 163 263 218 240 c 256
 273 217 319 183 299 117 c 256
 278 47 203 -10 130 -9 c 256
 39 -8 26 70 33 144 c 257
 43 147 l 257
154 -72 m 257
 163 -77 l 257
 -29 -323 l 257
 -35 -321 l 257
 154 -72 l 257
EndSplineSet
EndChar

StartChar: pi
Encoding: 960 960 338
GlifName: pi
Width: 442
VWidth: 0
Flags: HMW
LayerCount: 2
Fore
SplineSet
185 449 m 257
 195 449 l 257
 39 0 l 257
 29 0 l 257
 185 449 l 257
131 460 m 257
 507 460 l 257
 504 450 l 257
 127 450 l 257
 131 460 l 257
420 449 m 257
 430 449 l 257
 316 121 l 258
 299 73 273 29 325 1 c 257
 322 -8 l 257
 259 16 289 70 307 121 c 258
 420 449 l 257
EndSplineSet
EndChar

StartChar: trademark
Encoding: 8482 8482 339
GlifName: trademark
Width: 625
VWidth: 0
Flags: HMW
LayerCount: 2
Fore
SplineSet
219 694 m 257
 220 700 l 257
 405 700 l 257
 403 694 l 257
 313 694 l 257
 194 351 l 257
 189 351 l 257
 308 694 l 257
 219 694 l 257
739 688 m 257
 750 707 l 257
 660 350 l 257
 655 350 l 257
 739 688 l 257
487 707 m 257
 482 687 l 257
 331 351 l 257
 325 351 l 257
 487 707 l 257
750 706 m 257
 739 687 l 257
 511 402 l 257
 481 688 l 257
 485 708 l 257
 515 416 l 257
 750 706 l 257
EndSplineSet
EndChar

StartChar: uni2219
Encoding: 8729 8729 340
GlifName: uni2219
Width: 244
VWidth: 0
Flags: HMW
LayerCount: 2
Fore
SplineSet
211 449 m 256
 212 453 220 460 225 460 c 256
 230 460 233 454 232 449 c 256
 231 445 223 438 218 438 c 256
 213 438 210 444 211 449 c 256
EndSplineSet
EndChar

StartChar: agrave.alt
Encoding: 65537 -1 341
GlifName: agrave.alt
Width: 509
VWidth: 0
Flags: HMW
LayerCount: 2
Fore
SplineSet
528 459 m 257
 538 459 l 257
 378 0 l 257
 369 0 l 257
 528 459 l 257
66 230 m 256
 105 346 215 472 348 469 c 256
 474 466 485 324 454 230 c 256
 417 120 313 -8 186 -9 c 256
 53 -10 32 128 66 230 c 256
76 230 m 256
 43 133 62 -1 190 1 c 256
 310 3 413 125 449 230 c 256
 479 318 467 455 349 459 c 256
 222 464 114 341 76 230 c 256
335 697 m 257
 345 704 l 257
 452 545 l 257
 448 541 l 257
 335 697 l 257
EndSplineSet
EndChar

StartChar: aacute.alt
Encoding: 65538 -1 342
GlifName: aacute.alt
Width: 509
VWidth: 0
Flags: HMW
LayerCount: 2
Fore
SplineSet
528 459 m 257
 538 459 l 257
 378 0 l 257
 369 0 l 257
 528 459 l 257
66 230 m 256
 105 346 215 472 348 469 c 256
 474 466 485 324 454 230 c 256
 417 120 313 -8 186 -9 c 256
 53 -10 32 128 66 230 c 256
76 230 m 256
 43 133 62 -1 190 1 c 256
 310 3 413 125 449 230 c 256
 479 318 467 455 349 459 c 256
 222 464 114 341 76 230 c 256
518 695 m 257
 299 542 l 257
 296 547 l 257
 512 703 l 257
 518 695 l 257
EndSplineSet
EndChar

StartChar: acircumflex.alt
Encoding: 65539 -1 343
GlifName: acircumflex.alt
Width: 509
VWidth: 0
Flags: HMW
LayerCount: 2
Fore
SplineSet
528 459 m 257
 538 459 l 257
 378 0 l 257
 369 0 l 257
 528 459 l 257
66 230 m 256
 105 346 215 472 348 469 c 256
 474 466 485 324 454 230 c 256
 417 120 313 -8 186 -9 c 256
 53 -10 32 128 66 230 c 256
76 230 m 256
 43 133 62 -1 190 1 c 256
 310 3 413 125 449 230 c 256
 479 318 467 455 349 459 c 256
 222 464 114 341 76 230 c 256
423 684 m 257
 232 552 l 257
 227 559 l 257
 426 696 l 257
 530 557 l 257
 522 550 l 257
 423 684 l 257
EndSplineSet
EndChar

StartChar: atilde.alt
Encoding: 65540 -1 344
GlifName: atilde.alt
Width: 509
VWidth: 0
Flags: HMW
LayerCount: 2
Fore
SplineSet
528 459 m 257
 538 459 l 257
 378 0 l 257
 369 0 l 257
 528 459 l 257
66 230 m 256
 105 346 215 472 348 469 c 256
 474 466 485 324 454 230 c 256
 417 120 313 -8 186 -9 c 256
 53 -10 32 128 66 230 c 256
76 230 m 256
 43 133 62 -1 190 1 c 256
 310 3 413 125 449 230 c 256
 479 318 467 455 349 459 c 256
 222 464 114 341 76 230 c 256
257 552 m 257
 243 576 319 608 335 608 c 256
 375 609 396 561 436 563 c 256
 465 564 487 590 506 609 c 257
 516 606 l 257
 495 584 468 555 435 555 c 256
 396 555 375 601 336 600 c 256
 304 599 285 574 267 551 c 257
 257 552 l 257
EndSplineSet
EndChar

StartChar: adieresis.alt
Encoding: 65541 -1 345
GlifName: adieresis.alt
Width: 509
VWidth: 0
Flags: HMW
LayerCount: 2
Fore
SplineSet
528 459 m 257
 538 459 l 257
 378 0 l 257
 369 0 l 257
 528 459 l 257
66 230 m 256
 105 346 215 472 348 469 c 256
 474 466 485 324 454 230 c 256
 417 120 313 -8 186 -9 c 256
 53 -10 32 128 66 230 c 256
76 230 m 256
 43 133 62 -1 190 1 c 256
 310 3 413 125 449 230 c 256
 479 318 467 455 349 459 c 256
 222 464 114 341 76 230 c 256
483 591 m 256
 484 595 492 602 497 602 c 256
 502 602 505 596 504 591 c 256
 503 587 495 580 490 580 c 256
 485 580 482 586 483 591 c 256
295 591 m 256
 296 595 304 602 309 602 c 256
 314 602 317 596 316 591 c 256
 315 587 307 580 302 580 c 256
 297 580 294 586 295 591 c 256
EndSplineSet
EndChar

StartChar: aring.alt
Encoding: 65542 -1 346
GlifName: aring.alt
Width: 509
VWidth: 0
Flags: HMW
LayerCount: 2
Fore
SplineSet
528 459 m 257
 538 459 l 257
 378 0 l 257
 369 0 l 257
 528 459 l 257
66 230 m 256
 105 346 215 472 348 469 c 256
 474 466 485 324 454 230 c 256
 417 120 313 -8 186 -9 c 256
 53 -10 32 128 66 230 c 256
76 230 m 256
 43 133 62 -1 190 1 c 256
 310 3 413 125 449 230 c 256
 479 318 467 455 349 459 c 256
 222 464 114 341 76 230 c 256
307 631 m 256
 324 682 382 730 437 729 c 256
 491 728 516 677 500 629 c 256
 483 578 425 530 370 531 c 256
 316 532 291 583 307 631 c 256
316 630 m 256
 302 588 323 543 371 541 c 256
 420 539 476 585 491 630 c 256
 505 672 484 717 436 719 c 256
 387 721 331 675 316 630 c 256
EndSplineSet
EndChar

StartChar: amacron.alt
Encoding: 65543 -1 347
GlifName: amacron.alt
Width: 509
VWidth: 0
Flags: HMW
LayerCount: 2
Fore
SplineSet
528 459 m 257
 538 459 l 257
 378 0 l 257
 369 0 l 257
 528 459 l 257
66 230 m 256
 105 346 215 472 348 469 c 256
 474 466 485 324 454 230 c 256
 417 120 313 -8 186 -9 c 256
 53 -10 32 128 66 230 c 256
76 230 m 256
 43 133 62 -1 190 1 c 256
 310 3 413 125 449 230 c 256
 479 318 467 455 349 459 c 256
 222 464 114 341 76 230 c 256
211 550 m 257
 215 560 l 257
 544 560 l 257
 541 550 l 257
 211 550 l 257
EndSplineSet
EndChar

StartChar: abreve.alt
Encoding: 65544 -1 348
GlifName: abreve.alt
Width: 509
VWidth: 0
Flags: HMW
LayerCount: 2
Fore
SplineSet
528 459 m 257
 538 459 l 257
 378 0 l 257
 369 0 l 257
 528 459 l 257
66 230 m 256
 105 346 215 472 348 469 c 256
 474 466 485 324 454 230 c 256
 417 120 313 -8 186 -9 c 256
 53 -10 32 128 66 230 c 256
76 230 m 256
 43 133 62 -1 190 1 c 256
 310 3 413 125 449 230 c 256
 479 318 467 455 349 459 c 256
 222 464 114 341 76 230 c 256
276 690 m 257
 285 690 l 257
 273 620 299 562 378 561 c 256
 462 560 526 620 565 688 c 257
 575 688 l 257
 535 613 467 550 377 551 c 256
 291 552 262 613 276 690 c 257
EndSplineSet
EndChar

StartChar: aogonek.alt
Encoding: 65545 -1 349
GlifName: aogonek.alt
Width: 509
VWidth: 0
Flags: HMW
LayerCount: 2
Fore
SplineSet
528 459 m 257
 538 459 l 257
 378 0 l 257
 369 0 l 257
 528 459 l 257
66 230 m 256
 105 346 215 472 348 469 c 256
 474 466 485 324 454 230 c 256
 417 120 313 -8 186 -9 c 256
 53 -10 32 128 66 230 c 256
76 230 m 256
 43 133 62 -1 190 1 c 256
 310 3 413 125 449 230 c 256
 479 318 467 455 349 459 c 256
 222 464 114 341 76 230 c 256
352 -174 m 257
 357 -182 l 257
 325 -202 290 -220 251 -219 c 256
 204 -218 166 -190 180 -139 c 256
 202 -59 310 -21 377 9 c 257
 381 0 l 257
 319 -30 210 -64 190 -140 c 256
 178 -184 213 -208 253 -209 c 256
 289 -210 322 -191 352 -174 c 257
EndSplineSet
EndChar

StartChar: dagger
Encoding: 8224 8224 350
GlifName: dagger
Width: 470
VWidth: 0
Flags: HMW
LayerCount: 2
Fore
SplineSet
216 540 m 257
 518 540 l 257
 515 530 l 257
 213 530 l 257
 216 540 l 257
413 700 m 257
 422 700 l 257
 159 -150 l 257
 149 -150 l 257
 413 700 l 257
EndSplineSet
EndChar

StartChar: daggerdbl
Encoding: 8225 8225 351
GlifName: daggerdbl
Width: 470
VWidth: 0
Flags: HMW
LayerCount: 2
Fore
SplineSet
87 120 m 257
 389 120 l 257
 386 110 l 257
 84 110 l 257
 87 120 l 257
216 540 m 257
 518 540 l 257
 515 530 l 257
 213 530 l 257
 216 540 l 257
413 700 m 257
 422 700 l 257
 159 -150 l 257
 149 -150 l 257
 413 700 l 257
EndSplineSet
EndChar

StartChar: ellipsis
Encoding: 8230 8230 352
GlifName: ellipsis
Width: 764
VWidth: 0
Flags: HMW
LayerCount: 2
Fore
SplineSet
59 1 m 256
 60 5 68 12 73 12 c 256
 78 12 81 6 80 1 c 256
 79 -3 71 -10 66 -10 c 256
 61 -10 58 -4 59 1 c 256
318 1 m 256
 319 5 326 12 331 12 c 256
 336 12 340 6 339 1 c 256
 338 -3 330 -10 325 -10 c 256
 320 -10 317 -4 318 1 c 256
576 1 m 256
 577 5 585 12 590 12 c 256
 595 12 598 6 597 1 c 256
 596 -3 589 -10 584 -10 c 256
 579 -10 575 -4 576 1 c 256
EndSplineSet
EndChar

StartChar: uniFF10
Encoding: 65296 65296 353
GlifName: uniF_F_10
Width: 517
VWidth: 0
Flags: HMW
LayerCount: 2
Fore
SplineSet
128 350 m 256
 95 254 34 2 203 0 c 256
 370 -2 475 217 520 350 c 256
 553 446 614 697 445 699 c 256
 278 701 173 483 128 350 c 256
117 350 m 256
 164 489 272 711 446 709 c 256
 624 707 566 454 531 350 c 256
 484 211 376 -11 202 -9 c 256
 24 -7 82 246 117 350 c 256
EndSplineSet
EndChar

StartChar: uniFF11
Encoding: 65297 65297 354
GlifName: uniF_F_11
Width: 517
VWidth: 0
Flags: HMW
LayerCount: 2
Fore
SplineSet
324 655 m 257
 328 666 l 257
 512 705 l 257
 269 0 l 257
 259 0 l 257
 497 690 l 257
 324 655 l 257
EndSplineSet
EndChar

StartChar: uniFF12
Encoding: 65298 65298 355
GlifName: uniF_F_12
Width: 517
VWidth: 0
Flags: HMW
LayerCount: 2
Fore
SplineSet
-14 0 m 257
 400 334 l 258
 462 385 527 441 554 519 c 256
 584 605 552 698 450 700 c 256
 315 702 228 570 179 461 c 257
 169 461 l 257
 219 575 310 713 451 710 c 256
 558 708 596 611 565 519 c 256
 538 439 472 380 409 328 c 258
 14 11 l 257
 417 10 l 257
 414 0 l 257
 -14 0 l 257
EndSplineSet
EndChar

StartChar: uniFF13
Encoding: 65299 65299 356
GlifName: uniF_F_13
Width: 517
VWidth: 0
Flags: HMW
LayerCount: 2
Fore
SplineSet
302 363 m 257
 305 371 l 257
 406 382 520 430 557 533 c 256
 587 616 543 697 451 699 c 256
 343 701 267 617 222 528 c 257
 212 528 l 257
 258 623 338 711 452 709 c 256
 550 708 598 622 567 533 c 256
 528 422 410 373 302 363 c 257
205 -9 m 256
 86 -9 45 80 70 185 c 257
 80 185 l 257
 56 84 92 1 206 1 c 256
 311 1 421 74 454 175 c 256
 491 287 401 348 302 360 c 257
 304 367 l 257
 409 356 501 292 463 175 c 256
 428 68 317 -9 205 -9 c 256
EndSplineSet
EndChar

StartChar: uniFF14
Encoding: 65300 65300 357
GlifName: uniF_F_14
Width: 517
VWidth: 0
Flags: HMW
LayerCount: 2
Fore
SplineSet
16 141 m 257
 28 149 l 257
 372 150 l 257
 376 150 l 257
 483 150 l 257
 479 140 l 257
 16 141 l 257
27 142 m 257
 16 141 l 257
 567 699 l 257
 570 699 l 257
 329 0 l 257
 318 0 l 257
 368 142 l 257
 369 147 l 257
 547 663 l 257
 27 142 l 257
EndSplineSet
EndChar

StartChar: uniFF15
Encoding: 65301 65301 358
GlifName: uniF_F_15
Width: 517
VWidth: 0
Flags: HMW
LayerCount: 2
Fore
SplineSet
482 230 m 256
 442 105 325 -10 188 -9 c 256
 95 -9 52 51 41 137 c 257
 50 142 l 257
 61 60 99 2 189 1 c 256
 320 0 432 111 472 230 c 256
 503 321 477 432 365 435 c 256
 276 438 198 383 133 330 c 257
 161 360 l 258
 213 411 292 447 366 445 c 256
 484 442 513 327 482 230 c 256
352 689 m 257
 161 360 l 257
 133 329 l 257
 348 699 l 257
 659 700 l 257
 656 690 l 257
 352 689 l 257
EndSplineSet
EndChar

StartChar: uniFF16
Encoding: 65302 65302 359
GlifName: uniF_F_16
Width: 517
VWidth: 0
Flags: HMW
LayerCount: 2
Fore
SplineSet
84 220 m 256
 49 120 81 3 203 1 c 256
 327 -1 439 108 476 220 c 256
 506 312 473 423 362 426 c 256
 241 429 123 331 84 220 c 256
502 698 m 257
 515 698 l 257
 166 357 l 257
 165 356 l 257
 222 399 289 439 363 437 c 256
 480 433 516 318 485 220 c 256
 447 101 333 -10 202 -9 c 256
 72 -8 37 113 74 220 c 256
 95 281 137 333 181 379 c 258
 502 698 l 257
EndSplineSet
EndChar

StartChar: uniFF17
Encoding: 65303 65303 360
GlifName: uniF_F_17
Width: 517
VWidth: 0
Flags: HMW
LayerCount: 2
Fore
SplineSet
230 690 m 257
 233 700 l 257
 677 699 l 257
 88 0 l 257
 78 0 l 257
 657 689 l 257
 230 690 l 257
EndSplineSet
EndChar

StartChar: uniFF18
Encoding: 65304 65304 361
GlifName: uniF_F_18
Width: 517
VWidth: 0
Flags: HMW
LayerCount: 2
Fore
SplineSet
226 541 m 256
 255 629 351 710 446 709 c 256
 538 708 580 621 553 540 c 256
 524 453 426 368 331 369 c 256
 239 370 200 461 226 541 c 256
235 541 m 256
 211 469 246 378 331 376 c 256
 420 374 515 461 543 541 c 256
 570 617 532 698 445 699 c 256
 355 700 263 624 235 541 c 256
85 185 m 256
 119 282 224 372 330 371 c 256
 432 370 479 276 450 185 c 256
 417 81 314 -10 202 -9 c 256
 91 -8 52 90 85 185 c 256
95 185 m 256
 63 96 98 2 203 1 c 256
 309 0 408 87 440 185 c 256
 468 269 427 363 330 364 c 256
 229 365 128 277 95 185 c 256
EndSplineSet
EndChar

StartChar: uniFF19
Encoding: 65305 65305 362
GlifName: uniF_F_19
Width: 517
VWidth: 0
Flags: HMW
LayerCount: 2
Fore
SplineSet
564 480 m 256
 599 580 567 697 445 699 c 256
 321 701 209 592 172 480 c 256
 142 388 175 277 286 274 c 256
 407 271 525 369 564 480 c 256
145 0 m 257
 133 0 l 257
 481 343 l 257
 482 344 l 257
 425 301 359 261 285 263 c 256
 168 267 132 382 163 480 c 256
 201 599 315 710 446 709 c 256
 576 708 611 587 574 480 c 256
 553 419 511 367 467 321 c 258
 145 0 l 257
EndSplineSet
EndChar

StartChar: caron
Encoding: 711 711 363
GlifName: caron
Width: 451
VWidth: 0
Flags: HMW
LayerCount: 2
Fore
SplineSet
369 583 m 257
 560 716 l 257
 566 708 l 257
 367 571 l 257
 262 710 l 257
 272 718 l 257
 369 583 l 257
EndSplineSet
EndChar

StartChar: napostrophe
Encoding: 329 329 364
GlifName: napostrophe
Width: 578
VWidth: 0
Flags: HMW
LayerCount: 2
Fore
SplineSet
278 459 m 257
 119 0 l 257
 109 0 l 257
 269 459 l 257
 278 459 l 257
498 320 m 258
 517 384 514 457 431 459 c 256
 329 461 255 363 214 282 c 257
 209 282 l 257
 250 369 324 470 432 469 c 256
 521 468 528 389 507 320 c 258
 396 0 l 257
 386 0 l 257
 498 320 l 258
349 698 m 257
 361 698 l 257
 189 472 l 257
 179 472 l 257
 349 698 l 257
EndSplineSet
EndChar

StartChar: IJ
Encoding: 306 306 365
GlifName: I_J_
Width: 461
VWidth: 0
Flags: HMW
LayerCount: 2
Fore
SplineSet
6 -159 m 257
 29 -186 55 -207 93 -208 c 256
 184 -211 227 -124 254 -50 c 258
 511 699 l 257
 522 699 l 257
 262 -60 l 258
 234 -137 185 -222 92 -219 c 256
 50 -218 22 -196 -2 -165 c 257
 6 -159 l 257
266 699 m 257
 276 699 l 257
 34 0 l 257
 24 0 l 257
 266 699 l 257
EndSplineSet
EndChar

StartChar: ij
Encoding: 307 307 366
GlifName: ij
Width: 479
VWidth: 0
Flags: HMW
LayerCount: 2
Fore
SplineSet
498 695 m 256
 499 699 506 705 511 705 c 256
 516 705 518 700 517 695 c 256
 516 691 510 685 505 685 c 256
 500 685 497 690 498 695 c 256
42 -165 m 257
 62 -165 77 -206 101 -209 c 256
 169 -219 217 -134 237 -82 c 258
 424 459 l 257
 434 459 l 257
 248 -82 l 258
 225 -143 175 -224 99 -219 c 256
 67 -217 50 -197 34 -172 c 257
 42 -165 l 257
263 695 m 256
 264 699 270 705 275 705 c 256
 280 705 283 700 282 695 c 256
 281 691 274 685 269 685 c 256
 264 685 262 690 263 695 c 256
189 459 m 257
 198 459 l 257
 39 0 l 257
 29 0 l 257
 189 459 l 257
EndSplineSet
EndChar

StartChar: uni0237
Encoding: 567 567 367
GlifName: uni0237
Width: 169
VWidth: 0
Flags: HMW
LayerCount: 2
Fore
SplineSet
-202 -165 m 257
 -188 -187 -173 -207 -144 -209 c 256
 -74 -213 -29 -138 -7 -82 c 258
 179 459 l 257
 189 459 l 257
 3 -82 l 258
 -20 -143 -70 -224 -146 -219 c 256
 -178 -217 -195 -197 -211 -172 c 257
 -202 -165 l 257
EndSplineSet
EndChar

StartChar: Sacute
Encoding: 346 346 368
GlifName: S_acute
Width: 459
VWidth: 0
Flags: HMW
LayerCount: 2
Fore
SplineSet
60 197 m 257
 59 110 77 6 185 4 c 256
 289 2 381 78 412 175 c 256
 439 261 393 320 320 359 c 256
 244 399 177 455 208 550 c 256
 237 637 332 708 424 707 c 256
 517 706 546 631 546 550 c 257
 536 548 l 257
 536 623 510 695 423 696 c 256
 337 697 247 631 219 550 c 256
 187 459 255 406 327 368 c 256
 404 328 451 265 423 175 c 256
 391 73 294 -9 184 -7 c 256
 71 -5 49 100 50 193 c 257
 60 197 l 257
647 923 m 257
 429 770 l 257
 425 775 l 257
 641 931 l 257
 647 923 l 257
EndSplineSet
EndChar

StartChar: sacute
Encoding: 347 347 369
GlifName: sacute
Width: 379
VWidth: 0
Flags: HMW
LayerCount: 2
Fore
SplineSet
43 147 m 257
 37 80 46 1 131 0 c 256
 198 -1 269 53 289 117 c 256
 309 180 262 210 211 231 c 256
 152 256 106 288 131 359 c 256
 154 423 223 468 290 467 c 256
 353 466 376 424 383 368 c 257
 373 365 l 257
 366 416 347 456 289 457 c 256
 228 458 161 417 140 359 c 256
 115 291 163 263 218 240 c 256
 273 217 319 183 299 117 c 256
 278 47 203 -10 130 -9 c 256
 39 -8 26 70 33 144 c 257
 43 147 l 257
513 685 m 257
 296 532 l 257
 291 537 l 257
 507 693 l 257
 513 685 l 257
EndSplineSet
EndChar

StartChar: Scircumflex
Encoding: 348 348 370
GlifName: S_circumflex
Width: 459
VWidth: 0
Flags: HMW
LayerCount: 2
Fore
SplineSet
60 197 m 257
 59 110 77 6 185 4 c 256
 289 2 381 78 412 175 c 256
 439 261 393 320 320 359 c 256
 244 399 177 455 208 550 c 256
 237 637 332 708 424 707 c 256
 517 706 546 631 546 550 c 257
 536 548 l 257
 536 623 510 695 423 696 c 256
 337 697 247 631 219 550 c 256
 187 459 255 406 327 368 c 256
 404 328 451 265 423 175 c 256
 391 73 294 -9 184 -7 c 256
 71 -5 49 100 50 193 c 257
 60 197 l 257
493 902 m 257
 302 770 l 257
 297 777 l 257
 496 914 l 257
 600 775 l 257
 591 768 l 257
 493 902 l 257
EndSplineSet
EndChar

StartChar: scircumflex
Encoding: 349 349 371
GlifName: scircumflex
Width: 379
VWidth: 0
Flags: HMW
LayerCount: 2
Fore
SplineSet
43 147 m 257
 37 80 46 1 131 0 c 256
 198 -1 269 53 289 117 c 256
 309 180 262 210 211 231 c 256
 152 256 106 288 131 359 c 256
 154 423 223 468 290 467 c 256
 353 466 376 424 383 368 c 257
 373 365 l 257
 366 416 347 456 289 457 c 256
 228 458 161 417 140 359 c 256
 115 291 163 263 218 240 c 256
 273 217 319 183 299 117 c 256
 278 47 203 -10 130 -9 c 256
 39 -8 26 70 33 144 c 257
 43 147 l 257
359 664 m 257
 168 532 l 257
 163 539 l 257
 362 676 l 257
 466 537 l 257
 457 530 l 257
 359 664 l 257
EndSplineSet
EndChar

StartChar: uni1E9E
Encoding: 7838 7838 372
Width: 626
VWidth: 0
Flags: HMW
LayerCount: 2
Fore
SplineSet
309 -9 m 256
 195 -9 162 88 184 185 c 257
 193 185 l 257
 172 93 201 2 310 1 c 256
 416 0 518 87 551 185 c 256
 590 302 495 349 395 358 c 257
 398 365 l 257
 503 356 601 307 561 185 c 256
 527 82 420 -9 309 -9 c 256
396 363 m 257
 399 370 l 257
 505 379 615 425 651 534 c 256
 683 631 611 697 517 699 c 256
 350 702 226 561 173 416 c 258
 29 0 l 257
 20 0 l 257
 162 416 l 258
 217 567 345 711 518 709 c 256
 618 708 695 636 661 533 c 256
 623 417 508 372 396 363 c 257
EndSplineSet
EndChar

StartChar: Zacute
Encoding: 377 377 373
Width: 503
VWidth: 0
Flags: W
HStem: 0 12<-10 -10 -10 426> 689 11<218 222>
LayerCount: 2
Fore
SplineSet
218 689 m 257
 222 700 l 257
 675 699 l 257
 -10 12 l 257
 430 11 l 257
 426 0 l 257
 -37 0 l 257
 649 688 l 257
 218 689 l 257
664 923 m 257
 444 770 l 257
 442 775 l 257
 658 931 l 257
 664 923 l 257
EndSplineSet
EndChar

StartChar: zacute
Encoding: 378 378 374
Width: 404
VWidth: 0
Flags: W
HStem: 0 11<-12 -12 -12 332> 450 10<137 140>
LayerCount: 2
Fore
SplineSet
455 449 m 257
 137 450 l 257
 140 460 l 257
 480 459 l 257
 -12 11 l 257
 335 10 l 257
 332 0 l 257
 -37 0 l 257
 455 449 l 257
526 685 m 257
 307 532 l 257
 304 537 l 257
 520 693 l 257
 526 685 l 257
EndSplineSet
EndChar

StartChar: Zdotaccent
Encoding: 379 379 375
Width: 503
VWidth: 0
Flags: W
HStem: 0 12<-10 -10 -10 426> 689 11<218 222> 768 22<469.5 480.5>
VStem: 465 21<779 779>
LayerCount: 2
Fore
SplineSet
218 689 m 257
 222 700 l 257
 675 699 l 257
 -10 12 l 257
 430 11 l 257
 426 0 l 257
 -37 0 l 257
 649 688 l 257
 218 689 l 257
465 779 m 256
 466 783 473 790 478 790 c 256
 483 790 487 784 486 779 c 256
 485 775 477 768 472 768 c 256
 467 768 464 774 465 779 c 256
EndSplineSet
EndChar

StartChar: zdotaccent
Encoding: 380 380 376
Width: 404
VWidth: 0
Flags: W
HStem: 0 11<-12 -12 -12 332> 450 10<137 140> 560 22<341.5 353.5>
VStem: 337 21<571 571>
LayerCount: 2
Fore
SplineSet
455 449 m 257
 137 450 l 257
 140 460 l 257
 480 459 l 257
 -12 11 l 257
 335 10 l 257
 332 0 l 257
 -37 0 l 257
 455 449 l 257
337 571 m 256
 338 575 346 582 351 582 c 256
 356 582 359 576 358 571 c 256
 357 567 349 560 344 560 c 256
 339 560 336 566 337 571 c 256
EndSplineSet
EndChar

StartChar: Tcaron
Encoding: 356 356 377
Width: 405
VWidth: 0
Flags: W
HStem: 0 21<142 153 142 142> 689 11<200 572 203 378 389 389 389 568>
LayerCount: 2
Fore
SplineSet
200 689 m 257
 203 700 l 257
 572 700 l 257
 568 689 l 257
 389 689 l 257
 153 0 l 257
 142 0 l 257
 378 689 l 257
 200 689 l 257
414 781 m 257
 605 914 l 257
 610 906 l 257
 411 769 l 257
 307 908 l 257
 317 916 l 257
 414 781 l 257
EndSplineSet
EndChar

StartChar: tcaron
Encoding: 357 357 378
Width: 263
VWidth: 0
Flags: W
HStem: 0 21<29 39 29 29> 450 10<117 264 113 268>
LayerCount: 2
Fore
SplineSet
117 460 m 257
 268 460 l 257
 264 450 l 257
 113 450 l 257
 117 460 l 257
243 619 m 257
 253 619 l 257
 39 0 l 257
 29 0 l 257
 243 619 l 257
469 773 m 257
 479 768 l 257
 287 522 l 257
 281 524 l 257
 469 773 l 257
EndSplineSet
EndChar

StartChar: Uring
Encoding: 366 366 379
Width: 541
VWidth: 0
Flags: W
HStem: -9 11<215 215> 679 20<266 276 276 276 637 648 648 648> 769 10 957 10
LayerCount: 2
Fore
SplineSet
266 699 m 257
 276 699 l 257
 111 220 l 258
 81 124 90 3 216 2 c 256
 342 1 432 112 472 220 c 258
 637 699 l 257
 648 699 l 257
 484 220 l 258
 442 104 349 -10 215 -9 c 256
 81 -8 69 116 101 220 c 258
 266 699 l 257
416 869 m 256
 433 920 492 968 547 967 c 256
 601 966 626 915 610 867 c 256
 593 816 534 768 479 769 c 256
 425 770 400 821 416 869 c 256
426 868 m 256
 412 826 433 781 481 779 c 256
 530 777 585 823 600 868 c 256
 614 910 593 955 545 957 c 256
 496 959 441 913 426 868 c 256
EndSplineSet
EndChar

StartChar: uring
Encoding: 367 367 380
Width: 446
VWidth: 0
Flags: W
HStem: 0 21<302 302 302 312> 439 20<184 194 194 194 461 471 471 471> 531 10 719 10<417 417>
LayerCount: 2
Fore
SplineSet
302 0 m 257
 461 459 l 257
 471 459 l 257
 312 0 l 257
 302 0 l 257
86 150 m 258
 66 86 62 2 150 1 c 256
 252 -1 325 96 366 178 c 257
 372 178 l 257
 331 91 256 -11 148 -9 c 256
 53 -8 54 80 76 150 c 258
 184 459 l 257
 194 459 l 257
 86 150 l 258
287 631 m 256
 304 682 363 730 418 729 c 256
 472 728 497 677 481 629 c 256
 464 578 405 530 350 531 c 256
 296 532 271 583 287 631 c 256
297 630 m 256
 283 588 304 543 352 541 c 256
 401 539 456 585 471 630 c 256
 485 672 465 717 417 719 c 256
 368 721 312 675 297 630 c 256
EndSplineSet
EndChar
